G04 #@! TF.GenerationSoftware,KiCad,Pcbnew,5.1.6-c6e7f7d~87~ubuntu19.10.1*
G04 #@! TF.CreationDate,2023-03-13T14:52:07-06:00*
G04 #@! TF.ProjectId,twm,74776d2e-6b69-4636-9164-5f7063625858,rev?*
G04 #@! TF.SameCoordinates,Original*
G04 #@! TF.FileFunction,Paste,Top*
G04 #@! TF.FilePolarity,Positive*
%FSLAX46Y46*%
G04 Gerber Fmt 4.6, Leading zero omitted, Abs format (unit mm)*
G04 Created by KiCad (PCBNEW 5.1.6-c6e7f7d~87~ubuntu19.10.1) date 2023-03-13 14:52:07*
%MOMM*%
%LPD*%
G01*
G04 APERTURE LIST*
%ADD10O,0.449999X1.400000*%
G04 APERTURE END LIST*
G36*
G01*
X102550000Y-108799999D02*
X102550000Y-109700001D01*
G75*
G02*
X102300001Y-109950000I-249999J0D01*
G01*
X101649999Y-109950000D01*
G75*
G02*
X101400000Y-109700001I0J249999D01*
G01*
X101400000Y-108799999D01*
G75*
G02*
X101649999Y-108550000I249999J0D01*
G01*
X102300001Y-108550000D01*
G75*
G02*
X102550000Y-108799999I0J-249999D01*
G01*
G37*
G36*
G01*
X104600000Y-108799999D02*
X104600000Y-109700001D01*
G75*
G02*
X104350001Y-109950000I-249999J0D01*
G01*
X103699999Y-109950000D01*
G75*
G02*
X103450000Y-109700001I0J249999D01*
G01*
X103450000Y-108799999D01*
G75*
G02*
X103699999Y-108550000I249999J0D01*
G01*
X104350001Y-108550000D01*
G75*
G02*
X104600000Y-108799999I0J-249999D01*
G01*
G37*
G36*
G01*
X106549999Y-62450000D02*
X107450001Y-62450000D01*
G75*
G02*
X107700000Y-62699999I0J-249999D01*
G01*
X107700000Y-63350001D01*
G75*
G02*
X107450001Y-63600000I-249999J0D01*
G01*
X106549999Y-63600000D01*
G75*
G02*
X106300000Y-63350001I0J249999D01*
G01*
X106300000Y-62699999D01*
G75*
G02*
X106549999Y-62450000I249999J0D01*
G01*
G37*
G36*
G01*
X106549999Y-60400000D02*
X107450001Y-60400000D01*
G75*
G02*
X107700000Y-60649999I0J-249999D01*
G01*
X107700000Y-61300001D01*
G75*
G02*
X107450001Y-61550000I-249999J0D01*
G01*
X106549999Y-61550000D01*
G75*
G02*
X106300000Y-61300001I0J249999D01*
G01*
X106300000Y-60649999D01*
G75*
G02*
X106549999Y-60400000I249999J0D01*
G01*
G37*
G36*
G01*
X148549999Y-62450000D02*
X149450001Y-62450000D01*
G75*
G02*
X149700000Y-62699999I0J-249999D01*
G01*
X149700000Y-63350001D01*
G75*
G02*
X149450001Y-63600000I-249999J0D01*
G01*
X148549999Y-63600000D01*
G75*
G02*
X148300000Y-63350001I0J249999D01*
G01*
X148300000Y-62699999D01*
G75*
G02*
X148549999Y-62450000I249999J0D01*
G01*
G37*
G36*
G01*
X148549999Y-60400000D02*
X149450001Y-60400000D01*
G75*
G02*
X149700000Y-60649999I0J-249999D01*
G01*
X149700000Y-61300001D01*
G75*
G02*
X149450001Y-61550000I-249999J0D01*
G01*
X148549999Y-61550000D01*
G75*
G02*
X148300000Y-61300001I0J249999D01*
G01*
X148300000Y-60649999D01*
G75*
G02*
X148549999Y-60400000I249999J0D01*
G01*
G37*
G36*
G01*
X148450001Y-109165000D02*
X147549999Y-109165000D01*
G75*
G02*
X147300000Y-108915001I0J249999D01*
G01*
X147300000Y-108264999D01*
G75*
G02*
X147549999Y-108015000I249999J0D01*
G01*
X148450001Y-108015000D01*
G75*
G02*
X148700000Y-108264999I0J-249999D01*
G01*
X148700000Y-108915001D01*
G75*
G02*
X148450001Y-109165000I-249999J0D01*
G01*
G37*
G36*
G01*
X148450001Y-111215000D02*
X147549999Y-111215000D01*
G75*
G02*
X147300000Y-110965001I0J249999D01*
G01*
X147300000Y-110314999D01*
G75*
G02*
X147549999Y-110065000I249999J0D01*
G01*
X148450001Y-110065000D01*
G75*
G02*
X148700000Y-110314999I0J-249999D01*
G01*
X148700000Y-110965001D01*
G75*
G02*
X148450001Y-111215000I-249999J0D01*
G01*
G37*
G36*
G01*
X102450000Y-67450001D02*
X102450000Y-66549999D01*
G75*
G02*
X102699999Y-66300000I249999J0D01*
G01*
X103350001Y-66300000D01*
G75*
G02*
X103600000Y-66549999I0J-249999D01*
G01*
X103600000Y-67450001D01*
G75*
G02*
X103350001Y-67700000I-249999J0D01*
G01*
X102699999Y-67700000D01*
G75*
G02*
X102450000Y-67450001I0J249999D01*
G01*
G37*
G36*
G01*
X100400000Y-67450001D02*
X100400000Y-66549999D01*
G75*
G02*
X100649999Y-66300000I249999J0D01*
G01*
X101300001Y-66300000D01*
G75*
G02*
X101550000Y-66549999I0J-249999D01*
G01*
X101550000Y-67450001D01*
G75*
G02*
X101300001Y-67700000I-249999J0D01*
G01*
X100649999Y-67700000D01*
G75*
G02*
X100400000Y-67450001I0J249999D01*
G01*
G37*
G36*
G01*
X131450001Y-104550000D02*
X130549999Y-104550000D01*
G75*
G02*
X130300000Y-104300001I0J249999D01*
G01*
X130300000Y-103649999D01*
G75*
G02*
X130549999Y-103400000I249999J0D01*
G01*
X131450001Y-103400000D01*
G75*
G02*
X131700000Y-103649999I0J-249999D01*
G01*
X131700000Y-104300001D01*
G75*
G02*
X131450001Y-104550000I-249999J0D01*
G01*
G37*
G36*
G01*
X131450001Y-106600000D02*
X130549999Y-106600000D01*
G75*
G02*
X130300000Y-106350001I0J249999D01*
G01*
X130300000Y-105699999D01*
G75*
G02*
X130549999Y-105450000I249999J0D01*
G01*
X131450001Y-105450000D01*
G75*
G02*
X131700000Y-105699999I0J-249999D01*
G01*
X131700000Y-106350001D01*
G75*
G02*
X131450001Y-106600000I-249999J0D01*
G01*
G37*
D10*
X127725001Y-75049998D03*
X128375002Y-75049998D03*
X129025001Y-75049998D03*
X129675002Y-75049998D03*
X130325001Y-75049998D03*
X130975002Y-75049998D03*
X131625001Y-75049998D03*
X132275002Y-75049998D03*
X132275002Y-80949999D03*
X131625001Y-80949999D03*
X130975002Y-80949999D03*
X130325001Y-80949999D03*
X129675002Y-80949999D03*
X129025001Y-80949999D03*
X128375002Y-80949999D03*
X127725001Y-80949999D03*
G36*
G01*
X125650000Y-85137500D02*
X125650000Y-85612500D01*
G75*
G02*
X125412500Y-85850000I-237500J0D01*
G01*
X124837500Y-85850000D01*
G75*
G02*
X124600000Y-85612500I0J237500D01*
G01*
X124600000Y-85137500D01*
G75*
G02*
X124837500Y-84900000I237500J0D01*
G01*
X125412500Y-84900000D01*
G75*
G02*
X125650000Y-85137500I0J-237500D01*
G01*
G37*
G36*
G01*
X127400000Y-85137500D02*
X127400000Y-85612500D01*
G75*
G02*
X127162500Y-85850000I-237500J0D01*
G01*
X126587500Y-85850000D01*
G75*
G02*
X126350000Y-85612500I0J237500D01*
G01*
X126350000Y-85137500D01*
G75*
G02*
X126587500Y-84900000I237500J0D01*
G01*
X127162500Y-84900000D01*
G75*
G02*
X127400000Y-85137500I0J-237500D01*
G01*
G37*
G36*
G01*
X143350000Y-84557500D02*
X143350000Y-84082500D01*
G75*
G02*
X143587500Y-83845000I237500J0D01*
G01*
X144162500Y-83845000D01*
G75*
G02*
X144400000Y-84082500I0J-237500D01*
G01*
X144400000Y-84557500D01*
G75*
G02*
X144162500Y-84795000I-237500J0D01*
G01*
X143587500Y-84795000D01*
G75*
G02*
X143350000Y-84557500I0J237500D01*
G01*
G37*
G36*
G01*
X141600000Y-84557500D02*
X141600000Y-84082500D01*
G75*
G02*
X141837500Y-83845000I237500J0D01*
G01*
X142412500Y-83845000D01*
G75*
G02*
X142650000Y-84082500I0J-237500D01*
G01*
X142650000Y-84557500D01*
G75*
G02*
X142412500Y-84795000I-237500J0D01*
G01*
X141837500Y-84795000D01*
G75*
G02*
X141600000Y-84557500I0J237500D01*
G01*
G37*
G36*
G01*
X143350000Y-80307500D02*
X143350000Y-79832500D01*
G75*
G02*
X143587500Y-79595000I237500J0D01*
G01*
X144162500Y-79595000D01*
G75*
G02*
X144400000Y-79832500I0J-237500D01*
G01*
X144400000Y-80307500D01*
G75*
G02*
X144162500Y-80545000I-237500J0D01*
G01*
X143587500Y-80545000D01*
G75*
G02*
X143350000Y-80307500I0J237500D01*
G01*
G37*
G36*
G01*
X141600000Y-80307500D02*
X141600000Y-79832500D01*
G75*
G02*
X141837500Y-79595000I237500J0D01*
G01*
X142412500Y-79595000D01*
G75*
G02*
X142650000Y-79832500I0J-237500D01*
G01*
X142650000Y-80307500D01*
G75*
G02*
X142412500Y-80545000I-237500J0D01*
G01*
X141837500Y-80545000D01*
G75*
G02*
X141600000Y-80307500I0J237500D01*
G01*
G37*
G36*
G01*
X143350000Y-76237500D02*
X143350000Y-75762500D01*
G75*
G02*
X143587500Y-75525000I237500J0D01*
G01*
X144162500Y-75525000D01*
G75*
G02*
X144400000Y-75762500I0J-237500D01*
G01*
X144400000Y-76237500D01*
G75*
G02*
X144162500Y-76475000I-237500J0D01*
G01*
X143587500Y-76475000D01*
G75*
G02*
X143350000Y-76237500I0J237500D01*
G01*
G37*
G36*
G01*
X141600000Y-76237500D02*
X141600000Y-75762500D01*
G75*
G02*
X141837500Y-75525000I237500J0D01*
G01*
X142412500Y-75525000D01*
G75*
G02*
X142650000Y-75762500I0J-237500D01*
G01*
X142650000Y-76237500D01*
G75*
G02*
X142412500Y-76475000I-237500J0D01*
G01*
X141837500Y-76475000D01*
G75*
G02*
X141600000Y-76237500I0J237500D01*
G01*
G37*
G36*
G01*
X143350000Y-73237500D02*
X143350000Y-72762500D01*
G75*
G02*
X143587500Y-72525000I237500J0D01*
G01*
X144162500Y-72525000D01*
G75*
G02*
X144400000Y-72762500I0J-237500D01*
G01*
X144400000Y-73237500D01*
G75*
G02*
X144162500Y-73475000I-237500J0D01*
G01*
X143587500Y-73475000D01*
G75*
G02*
X143350000Y-73237500I0J237500D01*
G01*
G37*
G36*
G01*
X141600000Y-73237500D02*
X141600000Y-72762500D01*
G75*
G02*
X141837500Y-72525000I237500J0D01*
G01*
X142412500Y-72525000D01*
G75*
G02*
X142650000Y-72762500I0J-237500D01*
G01*
X142650000Y-73237500D01*
G75*
G02*
X142412500Y-73475000I-237500J0D01*
G01*
X141837500Y-73475000D01*
G75*
G02*
X141600000Y-73237500I0J237500D01*
G01*
G37*
G36*
G01*
X143350000Y-70237500D02*
X143350000Y-69762500D01*
G75*
G02*
X143587500Y-69525000I237500J0D01*
G01*
X144162500Y-69525000D01*
G75*
G02*
X144400000Y-69762500I0J-237500D01*
G01*
X144400000Y-70237500D01*
G75*
G02*
X144162500Y-70475000I-237500J0D01*
G01*
X143587500Y-70475000D01*
G75*
G02*
X143350000Y-70237500I0J237500D01*
G01*
G37*
G36*
G01*
X141600000Y-70237500D02*
X141600000Y-69762500D01*
G75*
G02*
X141837500Y-69525000I237500J0D01*
G01*
X142412500Y-69525000D01*
G75*
G02*
X142650000Y-69762500I0J-237500D01*
G01*
X142650000Y-70237500D01*
G75*
G02*
X142412500Y-70475000I-237500J0D01*
G01*
X141837500Y-70475000D01*
G75*
G02*
X141600000Y-70237500I0J237500D01*
G01*
G37*
G36*
G01*
X125650000Y-72762500D02*
X125650000Y-73237500D01*
G75*
G02*
X125412500Y-73475000I-237500J0D01*
G01*
X124837500Y-73475000D01*
G75*
G02*
X124600000Y-73237500I0J237500D01*
G01*
X124600000Y-72762500D01*
G75*
G02*
X124837500Y-72525000I237500J0D01*
G01*
X125412500Y-72525000D01*
G75*
G02*
X125650000Y-72762500I0J-237500D01*
G01*
G37*
G36*
G01*
X127400000Y-72762500D02*
X127400000Y-73237500D01*
G75*
G02*
X127162500Y-73475000I-237500J0D01*
G01*
X126587500Y-73475000D01*
G75*
G02*
X126350000Y-73237500I0J237500D01*
G01*
X126350000Y-72762500D01*
G75*
G02*
X126587500Y-72525000I237500J0D01*
G01*
X127162500Y-72525000D01*
G75*
G02*
X127400000Y-72762500I0J-237500D01*
G01*
G37*
G36*
G01*
X125650000Y-70762500D02*
X125650000Y-71237500D01*
G75*
G02*
X125412500Y-71475000I-237500J0D01*
G01*
X124837500Y-71475000D01*
G75*
G02*
X124600000Y-71237500I0J237500D01*
G01*
X124600000Y-70762500D01*
G75*
G02*
X124837500Y-70525000I237500J0D01*
G01*
X125412500Y-70525000D01*
G75*
G02*
X125650000Y-70762500I0J-237500D01*
G01*
G37*
G36*
G01*
X127400000Y-70762500D02*
X127400000Y-71237500D01*
G75*
G02*
X127162500Y-71475000I-237500J0D01*
G01*
X126587500Y-71475000D01*
G75*
G02*
X126350000Y-71237500I0J237500D01*
G01*
X126350000Y-70762500D01*
G75*
G02*
X126587500Y-70525000I237500J0D01*
G01*
X127162500Y-70525000D01*
G75*
G02*
X127400000Y-70762500I0J-237500D01*
G01*
G37*
G36*
G01*
X125650000Y-82887500D02*
X125650000Y-83362500D01*
G75*
G02*
X125412500Y-83600000I-237500J0D01*
G01*
X124837500Y-83600000D01*
G75*
G02*
X124600000Y-83362500I0J237500D01*
G01*
X124600000Y-82887500D01*
G75*
G02*
X124837500Y-82650000I237500J0D01*
G01*
X125412500Y-82650000D01*
G75*
G02*
X125650000Y-82887500I0J-237500D01*
G01*
G37*
G36*
G01*
X127400000Y-82887500D02*
X127400000Y-83362500D01*
G75*
G02*
X127162500Y-83600000I-237500J0D01*
G01*
X126587500Y-83600000D01*
G75*
G02*
X126350000Y-83362500I0J237500D01*
G01*
X126350000Y-82887500D01*
G75*
G02*
X126587500Y-82650000I237500J0D01*
G01*
X127162500Y-82650000D01*
G75*
G02*
X127400000Y-82887500I0J-237500D01*
G01*
G37*
G36*
G01*
X124762500Y-76350000D02*
X125237500Y-76350000D01*
G75*
G02*
X125475000Y-76587500I0J-237500D01*
G01*
X125475000Y-77162500D01*
G75*
G02*
X125237500Y-77400000I-237500J0D01*
G01*
X124762500Y-77400000D01*
G75*
G02*
X124525000Y-77162500I0J237500D01*
G01*
X124525000Y-76587500D01*
G75*
G02*
X124762500Y-76350000I237500J0D01*
G01*
G37*
G36*
G01*
X124762500Y-74600000D02*
X125237500Y-74600000D01*
G75*
G02*
X125475000Y-74837500I0J-237500D01*
G01*
X125475000Y-75412500D01*
G75*
G02*
X125237500Y-75650000I-237500J0D01*
G01*
X124762500Y-75650000D01*
G75*
G02*
X124525000Y-75412500I0J237500D01*
G01*
X124525000Y-74837500D01*
G75*
G02*
X124762500Y-74600000I237500J0D01*
G01*
G37*
G36*
G01*
X125237500Y-79650000D02*
X124762500Y-79650000D01*
G75*
G02*
X124525000Y-79412500I0J237500D01*
G01*
X124525000Y-78837500D01*
G75*
G02*
X124762500Y-78600000I237500J0D01*
G01*
X125237500Y-78600000D01*
G75*
G02*
X125475000Y-78837500I0J-237500D01*
G01*
X125475000Y-79412500D01*
G75*
G02*
X125237500Y-79650000I-237500J0D01*
G01*
G37*
G36*
G01*
X125237500Y-81400000D02*
X124762500Y-81400000D01*
G75*
G02*
X124525000Y-81162500I0J237500D01*
G01*
X124525000Y-80587500D01*
G75*
G02*
X124762500Y-80350000I237500J0D01*
G01*
X125237500Y-80350000D01*
G75*
G02*
X125475000Y-80587500I0J-237500D01*
G01*
X125475000Y-81162500D01*
G75*
G02*
X125237500Y-81400000I-237500J0D01*
G01*
G37*
M02*
