G04 #@! TF.GenerationSoftware,KiCad,Pcbnew,5.1.6-c6e7f7d~87~ubuntu19.10.1*
G04 #@! TF.CreationDate,2023-03-13T14:52:07-06:00*
G04 #@! TF.ProjectId,twm,74776d2e-6b69-4636-9164-5f7063625858,rev?*
G04 #@! TF.SameCoordinates,Original*
G04 #@! TF.FileFunction,Soldermask,Top*
G04 #@! TF.FilePolarity,Negative*
%FSLAX46Y46*%
G04 Gerber Fmt 4.6, Leading zero omitted, Abs format (unit mm)*
G04 Created by KiCad (PCBNEW 5.1.6-c6e7f7d~87~ubuntu19.10.1) date 2023-03-13 14:52:07*
%MOMM*%
%LPD*%
G01*
G04 APERTURE LIST*
%ADD10C,6.500000*%
%ADD11C,1.700000*%
%ADD12C,3.100000*%
%ADD13R,1.700000X1.700000*%
%ADD14O,0.549999X1.500000*%
%ADD15C,3.600000*%
%ADD16C,3.400000*%
%ADD17R,4.100000X4.100000*%
G04 APERTURE END LIST*
D10*
X139120000Y-98570000D03*
X96000000Y-111000000D03*
X96000000Y-56000000D03*
G36*
G01*
X102600000Y-108771738D02*
X102600000Y-109728262D01*
G75*
G02*
X102328262Y-110000000I-271738J0D01*
G01*
X101621738Y-110000000D01*
G75*
G02*
X101350000Y-109728262I0J271738D01*
G01*
X101350000Y-108771738D01*
G75*
G02*
X101621738Y-108500000I271738J0D01*
G01*
X102328262Y-108500000D01*
G75*
G02*
X102600000Y-108771738I0J-271738D01*
G01*
G37*
G36*
G01*
X104650000Y-108771738D02*
X104650000Y-109728262D01*
G75*
G02*
X104378262Y-110000000I-271738J0D01*
G01*
X103671738Y-110000000D01*
G75*
G02*
X103400000Y-109728262I0J271738D01*
G01*
X103400000Y-108771738D01*
G75*
G02*
X103671738Y-108500000I271738J0D01*
G01*
X104378262Y-108500000D01*
G75*
G02*
X104650000Y-108771738I0J-271738D01*
G01*
G37*
G36*
G01*
X106521738Y-62400000D02*
X107478262Y-62400000D01*
G75*
G02*
X107750000Y-62671738I0J-271738D01*
G01*
X107750000Y-63378262D01*
G75*
G02*
X107478262Y-63650000I-271738J0D01*
G01*
X106521738Y-63650000D01*
G75*
G02*
X106250000Y-63378262I0J271738D01*
G01*
X106250000Y-62671738D01*
G75*
G02*
X106521738Y-62400000I271738J0D01*
G01*
G37*
G36*
G01*
X106521738Y-60350000D02*
X107478262Y-60350000D01*
G75*
G02*
X107750000Y-60621738I0J-271738D01*
G01*
X107750000Y-61328262D01*
G75*
G02*
X107478262Y-61600000I-271738J0D01*
G01*
X106521738Y-61600000D01*
G75*
G02*
X106250000Y-61328262I0J271738D01*
G01*
X106250000Y-60621738D01*
G75*
G02*
X106521738Y-60350000I271738J0D01*
G01*
G37*
G36*
G01*
X148521738Y-62400000D02*
X149478262Y-62400000D01*
G75*
G02*
X149750000Y-62671738I0J-271738D01*
G01*
X149750000Y-63378262D01*
G75*
G02*
X149478262Y-63650000I-271738J0D01*
G01*
X148521738Y-63650000D01*
G75*
G02*
X148250000Y-63378262I0J271738D01*
G01*
X148250000Y-62671738D01*
G75*
G02*
X148521738Y-62400000I271738J0D01*
G01*
G37*
G36*
G01*
X148521738Y-60350000D02*
X149478262Y-60350000D01*
G75*
G02*
X149750000Y-60621738I0J-271738D01*
G01*
X149750000Y-61328262D01*
G75*
G02*
X149478262Y-61600000I-271738J0D01*
G01*
X148521738Y-61600000D01*
G75*
G02*
X148250000Y-61328262I0J271738D01*
G01*
X148250000Y-60621738D01*
G75*
G02*
X148521738Y-60350000I271738J0D01*
G01*
G37*
G36*
G01*
X148478262Y-109215000D02*
X147521738Y-109215000D01*
G75*
G02*
X147250000Y-108943262I0J271738D01*
G01*
X147250000Y-108236738D01*
G75*
G02*
X147521738Y-107965000I271738J0D01*
G01*
X148478262Y-107965000D01*
G75*
G02*
X148750000Y-108236738I0J-271738D01*
G01*
X148750000Y-108943262D01*
G75*
G02*
X148478262Y-109215000I-271738J0D01*
G01*
G37*
G36*
G01*
X148478262Y-111265000D02*
X147521738Y-111265000D01*
G75*
G02*
X147250000Y-110993262I0J271738D01*
G01*
X147250000Y-110286738D01*
G75*
G02*
X147521738Y-110015000I271738J0D01*
G01*
X148478262Y-110015000D01*
G75*
G02*
X148750000Y-110286738I0J-271738D01*
G01*
X148750000Y-110993262D01*
G75*
G02*
X148478262Y-111265000I-271738J0D01*
G01*
G37*
G36*
G01*
X102400000Y-67478262D02*
X102400000Y-66521738D01*
G75*
G02*
X102671738Y-66250000I271738J0D01*
G01*
X103378262Y-66250000D01*
G75*
G02*
X103650000Y-66521738I0J-271738D01*
G01*
X103650000Y-67478262D01*
G75*
G02*
X103378262Y-67750000I-271738J0D01*
G01*
X102671738Y-67750000D01*
G75*
G02*
X102400000Y-67478262I0J271738D01*
G01*
G37*
G36*
G01*
X100350000Y-67478262D02*
X100350000Y-66521738D01*
G75*
G02*
X100621738Y-66250000I271738J0D01*
G01*
X101328262Y-66250000D01*
G75*
G02*
X101600000Y-66521738I0J-271738D01*
G01*
X101600000Y-67478262D01*
G75*
G02*
X101328262Y-67750000I-271738J0D01*
G01*
X100621738Y-67750000D01*
G75*
G02*
X100350000Y-67478262I0J271738D01*
G01*
G37*
G36*
G01*
X131478262Y-104600000D02*
X130521738Y-104600000D01*
G75*
G02*
X130250000Y-104328262I0J271738D01*
G01*
X130250000Y-103621738D01*
G75*
G02*
X130521738Y-103350000I271738J0D01*
G01*
X131478262Y-103350000D01*
G75*
G02*
X131750000Y-103621738I0J-271738D01*
G01*
X131750000Y-104328262D01*
G75*
G02*
X131478262Y-104600000I-271738J0D01*
G01*
G37*
G36*
G01*
X131478262Y-106650000D02*
X130521738Y-106650000D01*
G75*
G02*
X130250000Y-106378262I0J271738D01*
G01*
X130250000Y-105671738D01*
G75*
G02*
X130521738Y-105400000I271738J0D01*
G01*
X131478262Y-105400000D01*
G75*
G02*
X131750000Y-105671738I0J-271738D01*
G01*
X131750000Y-106378262D01*
G75*
G02*
X131478262Y-106650000I-271738J0D01*
G01*
G37*
D11*
X115450000Y-60735000D03*
X116470000Y-63265000D03*
X117490000Y-60735000D03*
X118510000Y-63265000D03*
X119530000Y-60735000D03*
X120550000Y-63265000D03*
X121570000Y-60735000D03*
X122590000Y-63265000D03*
D12*
X110500000Y-58435000D03*
X125500000Y-58435000D03*
D11*
X135450000Y-60735000D03*
X136470000Y-63265000D03*
X137490000Y-60735000D03*
X138510000Y-63265000D03*
X139530000Y-60735000D03*
X140550000Y-63265000D03*
X141570000Y-60735000D03*
X142590000Y-63265000D03*
D12*
X130500000Y-58435000D03*
X145500000Y-58435000D03*
D11*
X156265000Y-101450000D03*
X153735000Y-102470000D03*
X156265000Y-103490000D03*
X153735000Y-104510000D03*
X156265000Y-105530000D03*
X153735000Y-106550000D03*
X156265000Y-107570000D03*
X153735000Y-108590000D03*
D12*
X158565000Y-96500000D03*
X158565000Y-111500000D03*
D11*
X122550000Y-106265000D03*
X121530000Y-103735000D03*
X120510000Y-106265000D03*
X119490000Y-103735000D03*
X118470000Y-106265000D03*
X117450000Y-103735000D03*
X116430000Y-106265000D03*
X115410000Y-103735000D03*
D12*
X127500000Y-108565000D03*
X112500000Y-108565000D03*
D11*
X100735000Y-80550000D03*
X103265000Y-79530000D03*
X100735000Y-78510000D03*
X103265000Y-77490000D03*
X100735000Y-76470000D03*
X103265000Y-75450000D03*
X100735000Y-74430000D03*
X103265000Y-73410000D03*
D12*
X98435000Y-85500000D03*
X98435000Y-70500000D03*
D11*
X171620000Y-89510000D03*
X156380000Y-89510000D03*
X171620000Y-86970000D03*
X171620000Y-84430000D03*
X171620000Y-81890000D03*
X171620000Y-79350000D03*
X171620000Y-76810000D03*
X171620000Y-74270000D03*
X171620000Y-71730000D03*
X171620000Y-69190000D03*
X171620000Y-66650000D03*
X171620000Y-64110000D03*
X171620000Y-61570000D03*
X171620000Y-59030000D03*
X171620000Y-56490000D03*
X156380000Y-86970000D03*
X156380000Y-84430000D03*
X156380000Y-81890000D03*
X156380000Y-79350000D03*
X156380000Y-76810000D03*
X156380000Y-74270000D03*
X156380000Y-71730000D03*
X156380000Y-69190000D03*
X156380000Y-66650000D03*
X156380000Y-64110000D03*
X156380000Y-61570000D03*
X156380000Y-59030000D03*
D13*
X156380000Y-56490000D03*
D14*
X127725001Y-75049998D03*
X128375002Y-75049998D03*
X129025001Y-75049998D03*
X129675002Y-75049998D03*
X130325001Y-75049998D03*
X130975002Y-75049998D03*
X131625001Y-75049998D03*
X132275002Y-75049998D03*
X132275002Y-80949999D03*
X131625001Y-80949999D03*
X130975002Y-80949999D03*
X130325001Y-80949999D03*
X129675002Y-80949999D03*
X129025001Y-80949999D03*
X128375002Y-80949999D03*
X127725001Y-80949999D03*
G36*
G01*
X125700000Y-85112500D02*
X125700000Y-85637500D01*
G75*
G02*
X125437500Y-85900000I-262500J0D01*
G01*
X124812500Y-85900000D01*
G75*
G02*
X124550000Y-85637500I0J262500D01*
G01*
X124550000Y-85112500D01*
G75*
G02*
X124812500Y-84850000I262500J0D01*
G01*
X125437500Y-84850000D01*
G75*
G02*
X125700000Y-85112500I0J-262500D01*
G01*
G37*
G36*
G01*
X127450000Y-85112500D02*
X127450000Y-85637500D01*
G75*
G02*
X127187500Y-85900000I-262500J0D01*
G01*
X126562500Y-85900000D01*
G75*
G02*
X126300000Y-85637500I0J262500D01*
G01*
X126300000Y-85112500D01*
G75*
G02*
X126562500Y-84850000I262500J0D01*
G01*
X127187500Y-84850000D01*
G75*
G02*
X127450000Y-85112500I0J-262500D01*
G01*
G37*
G36*
G01*
X143300000Y-84582500D02*
X143300000Y-84057500D01*
G75*
G02*
X143562500Y-83795000I262500J0D01*
G01*
X144187500Y-83795000D01*
G75*
G02*
X144450000Y-84057500I0J-262500D01*
G01*
X144450000Y-84582500D01*
G75*
G02*
X144187500Y-84845000I-262500J0D01*
G01*
X143562500Y-84845000D01*
G75*
G02*
X143300000Y-84582500I0J262500D01*
G01*
G37*
G36*
G01*
X141550000Y-84582500D02*
X141550000Y-84057500D01*
G75*
G02*
X141812500Y-83795000I262500J0D01*
G01*
X142437500Y-83795000D01*
G75*
G02*
X142700000Y-84057500I0J-262500D01*
G01*
X142700000Y-84582500D01*
G75*
G02*
X142437500Y-84845000I-262500J0D01*
G01*
X141812500Y-84845000D01*
G75*
G02*
X141550000Y-84582500I0J262500D01*
G01*
G37*
G36*
G01*
X143300000Y-80332500D02*
X143300000Y-79807500D01*
G75*
G02*
X143562500Y-79545000I262500J0D01*
G01*
X144187500Y-79545000D01*
G75*
G02*
X144450000Y-79807500I0J-262500D01*
G01*
X144450000Y-80332500D01*
G75*
G02*
X144187500Y-80595000I-262500J0D01*
G01*
X143562500Y-80595000D01*
G75*
G02*
X143300000Y-80332500I0J262500D01*
G01*
G37*
G36*
G01*
X141550000Y-80332500D02*
X141550000Y-79807500D01*
G75*
G02*
X141812500Y-79545000I262500J0D01*
G01*
X142437500Y-79545000D01*
G75*
G02*
X142700000Y-79807500I0J-262500D01*
G01*
X142700000Y-80332500D01*
G75*
G02*
X142437500Y-80595000I-262500J0D01*
G01*
X141812500Y-80595000D01*
G75*
G02*
X141550000Y-80332500I0J262500D01*
G01*
G37*
G36*
G01*
X143300000Y-76262500D02*
X143300000Y-75737500D01*
G75*
G02*
X143562500Y-75475000I262500J0D01*
G01*
X144187500Y-75475000D01*
G75*
G02*
X144450000Y-75737500I0J-262500D01*
G01*
X144450000Y-76262500D01*
G75*
G02*
X144187500Y-76525000I-262500J0D01*
G01*
X143562500Y-76525000D01*
G75*
G02*
X143300000Y-76262500I0J262500D01*
G01*
G37*
G36*
G01*
X141550000Y-76262500D02*
X141550000Y-75737500D01*
G75*
G02*
X141812500Y-75475000I262500J0D01*
G01*
X142437500Y-75475000D01*
G75*
G02*
X142700000Y-75737500I0J-262500D01*
G01*
X142700000Y-76262500D01*
G75*
G02*
X142437500Y-76525000I-262500J0D01*
G01*
X141812500Y-76525000D01*
G75*
G02*
X141550000Y-76262500I0J262500D01*
G01*
G37*
G36*
G01*
X143300000Y-73262500D02*
X143300000Y-72737500D01*
G75*
G02*
X143562500Y-72475000I262500J0D01*
G01*
X144187500Y-72475000D01*
G75*
G02*
X144450000Y-72737500I0J-262500D01*
G01*
X144450000Y-73262500D01*
G75*
G02*
X144187500Y-73525000I-262500J0D01*
G01*
X143562500Y-73525000D01*
G75*
G02*
X143300000Y-73262500I0J262500D01*
G01*
G37*
G36*
G01*
X141550000Y-73262500D02*
X141550000Y-72737500D01*
G75*
G02*
X141812500Y-72475000I262500J0D01*
G01*
X142437500Y-72475000D01*
G75*
G02*
X142700000Y-72737500I0J-262500D01*
G01*
X142700000Y-73262500D01*
G75*
G02*
X142437500Y-73525000I-262500J0D01*
G01*
X141812500Y-73525000D01*
G75*
G02*
X141550000Y-73262500I0J262500D01*
G01*
G37*
G36*
G01*
X143300000Y-70262500D02*
X143300000Y-69737500D01*
G75*
G02*
X143562500Y-69475000I262500J0D01*
G01*
X144187500Y-69475000D01*
G75*
G02*
X144450000Y-69737500I0J-262500D01*
G01*
X144450000Y-70262500D01*
G75*
G02*
X144187500Y-70525000I-262500J0D01*
G01*
X143562500Y-70525000D01*
G75*
G02*
X143300000Y-70262500I0J262500D01*
G01*
G37*
G36*
G01*
X141550000Y-70262500D02*
X141550000Y-69737500D01*
G75*
G02*
X141812500Y-69475000I262500J0D01*
G01*
X142437500Y-69475000D01*
G75*
G02*
X142700000Y-69737500I0J-262500D01*
G01*
X142700000Y-70262500D01*
G75*
G02*
X142437500Y-70525000I-262500J0D01*
G01*
X141812500Y-70525000D01*
G75*
G02*
X141550000Y-70262500I0J262500D01*
G01*
G37*
G36*
G01*
X125700000Y-72737500D02*
X125700000Y-73262500D01*
G75*
G02*
X125437500Y-73525000I-262500J0D01*
G01*
X124812500Y-73525000D01*
G75*
G02*
X124550000Y-73262500I0J262500D01*
G01*
X124550000Y-72737500D01*
G75*
G02*
X124812500Y-72475000I262500J0D01*
G01*
X125437500Y-72475000D01*
G75*
G02*
X125700000Y-72737500I0J-262500D01*
G01*
G37*
G36*
G01*
X127450000Y-72737500D02*
X127450000Y-73262500D01*
G75*
G02*
X127187500Y-73525000I-262500J0D01*
G01*
X126562500Y-73525000D01*
G75*
G02*
X126300000Y-73262500I0J262500D01*
G01*
X126300000Y-72737500D01*
G75*
G02*
X126562500Y-72475000I262500J0D01*
G01*
X127187500Y-72475000D01*
G75*
G02*
X127450000Y-72737500I0J-262500D01*
G01*
G37*
G36*
G01*
X125700000Y-70737500D02*
X125700000Y-71262500D01*
G75*
G02*
X125437500Y-71525000I-262500J0D01*
G01*
X124812500Y-71525000D01*
G75*
G02*
X124550000Y-71262500I0J262500D01*
G01*
X124550000Y-70737500D01*
G75*
G02*
X124812500Y-70475000I262500J0D01*
G01*
X125437500Y-70475000D01*
G75*
G02*
X125700000Y-70737500I0J-262500D01*
G01*
G37*
G36*
G01*
X127450000Y-70737500D02*
X127450000Y-71262500D01*
G75*
G02*
X127187500Y-71525000I-262500J0D01*
G01*
X126562500Y-71525000D01*
G75*
G02*
X126300000Y-71262500I0J262500D01*
G01*
X126300000Y-70737500D01*
G75*
G02*
X126562500Y-70475000I262500J0D01*
G01*
X127187500Y-70475000D01*
G75*
G02*
X127450000Y-70737500I0J-262500D01*
G01*
G37*
G36*
G01*
X125700000Y-82862500D02*
X125700000Y-83387500D01*
G75*
G02*
X125437500Y-83650000I-262500J0D01*
G01*
X124812500Y-83650000D01*
G75*
G02*
X124550000Y-83387500I0J262500D01*
G01*
X124550000Y-82862500D01*
G75*
G02*
X124812500Y-82600000I262500J0D01*
G01*
X125437500Y-82600000D01*
G75*
G02*
X125700000Y-82862500I0J-262500D01*
G01*
G37*
G36*
G01*
X127450000Y-82862500D02*
X127450000Y-83387500D01*
G75*
G02*
X127187500Y-83650000I-262500J0D01*
G01*
X126562500Y-83650000D01*
G75*
G02*
X126300000Y-83387500I0J262500D01*
G01*
X126300000Y-82862500D01*
G75*
G02*
X126562500Y-82600000I262500J0D01*
G01*
X127187500Y-82600000D01*
G75*
G02*
X127450000Y-82862500I0J-262500D01*
G01*
G37*
D11*
X97000000Y-100250000D03*
D15*
X99000000Y-104750000D03*
X99000000Y-95750000D03*
D16*
X100000000Y-100250000D03*
D17*
X106000000Y-100250000D03*
G36*
G01*
X124737500Y-76300000D02*
X125262500Y-76300000D01*
G75*
G02*
X125525000Y-76562500I0J-262500D01*
G01*
X125525000Y-77187500D01*
G75*
G02*
X125262500Y-77450000I-262500J0D01*
G01*
X124737500Y-77450000D01*
G75*
G02*
X124475000Y-77187500I0J262500D01*
G01*
X124475000Y-76562500D01*
G75*
G02*
X124737500Y-76300000I262500J0D01*
G01*
G37*
G36*
G01*
X124737500Y-74550000D02*
X125262500Y-74550000D01*
G75*
G02*
X125525000Y-74812500I0J-262500D01*
G01*
X125525000Y-75437500D01*
G75*
G02*
X125262500Y-75700000I-262500J0D01*
G01*
X124737500Y-75700000D01*
G75*
G02*
X124475000Y-75437500I0J262500D01*
G01*
X124475000Y-74812500D01*
G75*
G02*
X124737500Y-74550000I262500J0D01*
G01*
G37*
G36*
G01*
X125262500Y-79700000D02*
X124737500Y-79700000D01*
G75*
G02*
X124475000Y-79437500I0J262500D01*
G01*
X124475000Y-78812500D01*
G75*
G02*
X124737500Y-78550000I262500J0D01*
G01*
X125262500Y-78550000D01*
G75*
G02*
X125525000Y-78812500I0J-262500D01*
G01*
X125525000Y-79437500D01*
G75*
G02*
X125262500Y-79700000I-262500J0D01*
G01*
G37*
G36*
G01*
X125262500Y-81450000D02*
X124737500Y-81450000D01*
G75*
G02*
X124475000Y-81187500I0J262500D01*
G01*
X124475000Y-80562500D01*
G75*
G02*
X124737500Y-80300000I262500J0D01*
G01*
X125262500Y-80300000D01*
G75*
G02*
X125525000Y-80562500I0J-262500D01*
G01*
X125525000Y-81187500D01*
G75*
G02*
X125262500Y-81450000I-262500J0D01*
G01*
G37*
M02*
