G04 #@! TF.GenerationSoftware,KiCad,Pcbnew,5.1.6-c6e7f7d~87~ubuntu19.10.1*
G04 #@! TF.CreationDate,2023-03-13T14:52:07-06:00*
G04 #@! TF.ProjectId,twm,74776d2e-6b69-4636-9164-5f7063625858,rev?*
G04 #@! TF.SameCoordinates,Original*
G04 #@! TF.FileFunction,Copper,L2,Bot*
G04 #@! TF.FilePolarity,Positive*
%FSLAX46Y46*%
G04 Gerber Fmt 4.6, Leading zero omitted, Abs format (unit mm)*
G04 Created by KiCad (PCBNEW 5.1.6-c6e7f7d~87~ubuntu19.10.1) date 2023-03-13 14:52:07*
%MOMM*%
%LPD*%
G01*
G04 APERTURE LIST*
G04 #@! TA.AperFunction,ComponentPad*
%ADD10C,6.400000*%
G04 #@! TD*
G04 #@! TA.AperFunction,ComponentPad*
%ADD11C,1.600000*%
G04 #@! TD*
G04 #@! TA.AperFunction,WasherPad*
%ADD12C,3.000000*%
G04 #@! TD*
G04 #@! TA.AperFunction,ComponentPad*
%ADD13R,1.600000X1.600000*%
G04 #@! TD*
G04 #@! TA.AperFunction,ComponentPad*
%ADD14C,3.500000*%
G04 #@! TD*
G04 #@! TA.AperFunction,ComponentPad*
%ADD15C,3.300000*%
G04 #@! TD*
G04 #@! TA.AperFunction,ComponentPad*
%ADD16R,4.000000X4.000000*%
G04 #@! TD*
G04 #@! TA.AperFunction,ViaPad*
%ADD17C,0.800000*%
G04 #@! TD*
G04 #@! TA.AperFunction,Conductor*
%ADD18C,0.500000*%
G04 #@! TD*
G04 #@! TA.AperFunction,Conductor*
%ADD19C,0.250000*%
G04 #@! TD*
G04 #@! TA.AperFunction,Conductor*
%ADD20C,0.254000*%
G04 #@! TD*
G04 APERTURE END LIST*
D10*
X139120000Y-98570000D03*
X96000000Y-111000000D03*
X96000000Y-56000000D03*
D11*
X115450000Y-60735000D03*
X116470000Y-63265000D03*
X117490000Y-60735000D03*
X118510000Y-63265000D03*
X119530000Y-60735000D03*
X120550000Y-63265000D03*
X121570000Y-60735000D03*
X122590000Y-63265000D03*
D12*
X110500000Y-58435000D03*
X125500000Y-58435000D03*
D11*
X135450000Y-60735000D03*
X136470000Y-63265000D03*
X137490000Y-60735000D03*
X138510000Y-63265000D03*
X139530000Y-60735000D03*
X140550000Y-63265000D03*
X141570000Y-60735000D03*
X142590000Y-63265000D03*
D12*
X130500000Y-58435000D03*
X145500000Y-58435000D03*
D11*
X156265000Y-101450000D03*
X153735000Y-102470000D03*
X156265000Y-103490000D03*
X153735000Y-104510000D03*
X156265000Y-105530000D03*
X153735000Y-106550000D03*
X156265000Y-107570000D03*
X153735000Y-108590000D03*
D12*
X158565000Y-96500000D03*
X158565000Y-111500000D03*
D11*
X122550000Y-106265000D03*
X121530000Y-103735000D03*
X120510000Y-106265000D03*
X119490000Y-103735000D03*
X118470000Y-106265000D03*
X117450000Y-103735000D03*
X116430000Y-106265000D03*
X115410000Y-103735000D03*
D12*
X127500000Y-108565000D03*
X112500000Y-108565000D03*
D11*
X100735000Y-80550000D03*
X103265000Y-79530000D03*
X100735000Y-78510000D03*
X103265000Y-77490000D03*
X100735000Y-76470000D03*
X103265000Y-75450000D03*
X100735000Y-74430000D03*
X103265000Y-73410000D03*
D12*
X98435000Y-85500000D03*
X98435000Y-70500000D03*
D11*
X171620000Y-89510000D03*
X156380000Y-89510000D03*
X171620000Y-86970000D03*
X171620000Y-84430000D03*
X171620000Y-81890000D03*
X171620000Y-79350000D03*
X171620000Y-76810000D03*
X171620000Y-74270000D03*
X171620000Y-71730000D03*
X171620000Y-69190000D03*
X171620000Y-66650000D03*
X171620000Y-64110000D03*
X171620000Y-61570000D03*
X171620000Y-59030000D03*
X171620000Y-56490000D03*
X156380000Y-86970000D03*
X156380000Y-84430000D03*
X156380000Y-81890000D03*
X156380000Y-79350000D03*
X156380000Y-76810000D03*
X156380000Y-74270000D03*
X156380000Y-71730000D03*
X156380000Y-69190000D03*
X156380000Y-66650000D03*
X156380000Y-64110000D03*
X156380000Y-61570000D03*
X156380000Y-59030000D03*
D13*
X156380000Y-56490000D03*
G04 #@! TA.AperFunction,SMDPad,CuDef*
G36*
G01*
X115350000Y-69187499D02*
X115350000Y-68712499D01*
G75*
G02*
X115587500Y-68474999I237500J0D01*
G01*
X116162500Y-68474999D01*
G75*
G02*
X116400000Y-68712499I0J-237500D01*
G01*
X116400000Y-69187499D01*
G75*
G02*
X116162500Y-69424999I-237500J0D01*
G01*
X115587500Y-69424999D01*
G75*
G02*
X115350000Y-69187499I0J237500D01*
G01*
G37*
G04 #@! TD.AperFunction*
G04 #@! TA.AperFunction,SMDPad,CuDef*
G36*
G01*
X113600000Y-69187499D02*
X113600000Y-68712499D01*
G75*
G02*
X113837500Y-68474999I237500J0D01*
G01*
X114412500Y-68474999D01*
G75*
G02*
X114650000Y-68712499I0J-237500D01*
G01*
X114650000Y-69187499D01*
G75*
G02*
X114412500Y-69424999I-237500J0D01*
G01*
X113837500Y-69424999D01*
G75*
G02*
X113600000Y-69187499I0J237500D01*
G01*
G37*
G04 #@! TD.AperFunction*
G04 #@! TA.AperFunction,SMDPad,CuDef*
G36*
G01*
X148237500Y-96775000D02*
X147762500Y-96775000D01*
G75*
G02*
X147525000Y-96537500I0J237500D01*
G01*
X147525000Y-95962500D01*
G75*
G02*
X147762500Y-95725000I237500J0D01*
G01*
X148237500Y-95725000D01*
G75*
G02*
X148475000Y-95962500I0J-237500D01*
G01*
X148475000Y-96537500D01*
G75*
G02*
X148237500Y-96775000I-237500J0D01*
G01*
G37*
G04 #@! TD.AperFunction*
G04 #@! TA.AperFunction,SMDPad,CuDef*
G36*
G01*
X148237500Y-98525000D02*
X147762500Y-98525000D01*
G75*
G02*
X147525000Y-98287500I0J237500D01*
G01*
X147525000Y-97712500D01*
G75*
G02*
X147762500Y-97475000I237500J0D01*
G01*
X148237500Y-97475000D01*
G75*
G02*
X148475000Y-97712500I0J-237500D01*
G01*
X148475000Y-98287500D01*
G75*
G02*
X148237500Y-98525000I-237500J0D01*
G01*
G37*
G04 #@! TD.AperFunction*
G04 #@! TA.AperFunction,SMDPad,CuDef*
G36*
G01*
X109212502Y-80599999D02*
X108737502Y-80599999D01*
G75*
G02*
X108500002Y-80362499I0J237500D01*
G01*
X108500002Y-79787499D01*
G75*
G02*
X108737502Y-79549999I237500J0D01*
G01*
X109212502Y-79549999D01*
G75*
G02*
X109450002Y-79787499I0J-237500D01*
G01*
X109450002Y-80362499D01*
G75*
G02*
X109212502Y-80599999I-237500J0D01*
G01*
G37*
G04 #@! TD.AperFunction*
G04 #@! TA.AperFunction,SMDPad,CuDef*
G36*
G01*
X109212502Y-82349999D02*
X108737502Y-82349999D01*
G75*
G02*
X108500002Y-82112499I0J237500D01*
G01*
X108500002Y-81537499D01*
G75*
G02*
X108737502Y-81299999I237500J0D01*
G01*
X109212502Y-81299999D01*
G75*
G02*
X109450002Y-81537499I0J-237500D01*
G01*
X109450002Y-82112499D01*
G75*
G02*
X109212502Y-82349999I-237500J0D01*
G01*
G37*
G04 #@! TD.AperFunction*
G04 #@! TA.AperFunction,SMDPad,CuDef*
G36*
G01*
X126350000Y-96362500D02*
X126350000Y-95887500D01*
G75*
G02*
X126587500Y-95650000I237500J0D01*
G01*
X127162500Y-95650000D01*
G75*
G02*
X127400000Y-95887500I0J-237500D01*
G01*
X127400000Y-96362500D01*
G75*
G02*
X127162500Y-96600000I-237500J0D01*
G01*
X126587500Y-96600000D01*
G75*
G02*
X126350000Y-96362500I0J237500D01*
G01*
G37*
G04 #@! TD.AperFunction*
G04 #@! TA.AperFunction,SMDPad,CuDef*
G36*
G01*
X124600000Y-96362500D02*
X124600000Y-95887500D01*
G75*
G02*
X124837500Y-95650000I237500J0D01*
G01*
X125412500Y-95650000D01*
G75*
G02*
X125650000Y-95887500I0J-237500D01*
G01*
X125650000Y-96362500D01*
G75*
G02*
X125412500Y-96600000I-237500J0D01*
G01*
X124837500Y-96600000D01*
G75*
G02*
X124600000Y-96362500I0J237500D01*
G01*
G37*
G04 #@! TD.AperFunction*
G04 #@! TA.AperFunction,SMDPad,CuDef*
G36*
G01*
X132737502Y-70299999D02*
X133212502Y-70299999D01*
G75*
G02*
X133450002Y-70537499I0J-237500D01*
G01*
X133450002Y-71112499D01*
G75*
G02*
X133212502Y-71349999I-237500J0D01*
G01*
X132737502Y-71349999D01*
G75*
G02*
X132500002Y-71112499I0J237500D01*
G01*
X132500002Y-70537499D01*
G75*
G02*
X132737502Y-70299999I237500J0D01*
G01*
G37*
G04 #@! TD.AperFunction*
G04 #@! TA.AperFunction,SMDPad,CuDef*
G36*
G01*
X132737502Y-68549999D02*
X133212502Y-68549999D01*
G75*
G02*
X133450002Y-68787499I0J-237500D01*
G01*
X133450002Y-69362499D01*
G75*
G02*
X133212502Y-69599999I-237500J0D01*
G01*
X132737502Y-69599999D01*
G75*
G02*
X132500002Y-69362499I0J237500D01*
G01*
X132500002Y-68787499D01*
G75*
G02*
X132737502Y-68549999I237500J0D01*
G01*
G37*
G04 #@! TD.AperFunction*
D14*
X99000000Y-104750000D03*
X99000000Y-95750000D03*
D15*
X100000000Y-100250000D03*
D16*
X106000000Y-100250000D03*
G04 #@! TA.AperFunction,SMDPad,CuDef*
G36*
G01*
X167270000Y-61332500D02*
X167270000Y-61807500D01*
G75*
G02*
X167032500Y-62045000I-237500J0D01*
G01*
X166457500Y-62045000D01*
G75*
G02*
X166220000Y-61807500I0J237500D01*
G01*
X166220000Y-61332500D01*
G75*
G02*
X166457500Y-61095000I237500J0D01*
G01*
X167032500Y-61095000D01*
G75*
G02*
X167270000Y-61332500I0J-237500D01*
G01*
G37*
G04 #@! TD.AperFunction*
G04 #@! TA.AperFunction,SMDPad,CuDef*
G36*
G01*
X169020000Y-61332500D02*
X169020000Y-61807500D01*
G75*
G02*
X168782500Y-62045000I-237500J0D01*
G01*
X168207500Y-62045000D01*
G75*
G02*
X167970000Y-61807500I0J237500D01*
G01*
X167970000Y-61332500D01*
G75*
G02*
X168207500Y-61095000I237500J0D01*
G01*
X168782500Y-61095000D01*
G75*
G02*
X169020000Y-61332500I0J-237500D01*
G01*
G37*
G04 #@! TD.AperFunction*
D17*
X128000000Y-77125000D03*
X132000000Y-77125000D03*
X128000000Y-79125000D03*
X132000000Y-79125000D03*
X131500000Y-70875000D03*
X134000000Y-73625000D03*
X130000000Y-68375000D03*
X122750000Y-76875000D03*
X123500000Y-85375000D03*
X133750000Y-80875000D03*
X133000000Y-83375000D03*
X131500000Y-85375000D03*
X128250000Y-72125000D03*
X133870000Y-76070000D03*
X123370000Y-78820000D03*
X121870000Y-80820000D03*
X123120000Y-71070000D03*
X128620000Y-86320000D03*
X154620000Y-62820000D03*
X154620000Y-68070000D03*
X154620000Y-73070000D03*
X154620000Y-78070000D03*
X158120000Y-60070000D03*
X158120000Y-62820000D03*
X158120000Y-65320000D03*
X158120000Y-67820000D03*
X158120000Y-70320000D03*
X158120000Y-72820000D03*
X158120000Y-75570000D03*
X158120000Y-78070000D03*
X158120000Y-80570000D03*
X169370000Y-64320000D03*
X154620000Y-83070000D03*
X126870000Y-90320000D03*
X128370000Y-93570000D03*
X140870000Y-90320000D03*
X138370000Y-93320000D03*
X119370000Y-76570000D03*
X134870000Y-69070000D03*
X122500000Y-75125000D03*
X132125001Y-73549998D03*
X130000000Y-84375000D03*
X128225002Y-73449999D03*
X131225002Y-82949999D03*
X130725002Y-72449999D03*
X129975002Y-71449999D03*
X128750000Y-69625000D03*
D18*
X171620000Y-59030000D02*
X167410000Y-59030000D01*
X166745000Y-59695000D02*
X166745000Y-61570000D01*
X167410000Y-59030000D02*
X166745000Y-59695000D01*
D19*
X106000000Y-91625000D02*
X122500000Y-75125000D01*
X106000000Y-100250000D02*
X106000000Y-91625000D01*
D18*
X168495000Y-61570000D02*
X171620000Y-61570000D01*
D19*
X132975002Y-72699997D02*
X132975002Y-70824999D01*
X132125001Y-73549998D02*
X132975002Y-72699997D01*
X130000000Y-84375000D02*
X130000000Y-89375000D01*
X126875000Y-92500000D02*
X126875000Y-96125000D01*
X130000000Y-89375000D02*
X126875000Y-92500000D01*
X128225002Y-73449999D02*
X118725002Y-73449999D01*
X112100002Y-80074999D02*
X108975002Y-80074999D01*
X118725002Y-73449999D02*
X112100002Y-80074999D01*
X144525003Y-96250000D02*
X148000000Y-96250000D01*
X131225002Y-82949999D02*
X144525003Y-96250000D01*
X130725002Y-72449999D02*
X129725002Y-72449999D01*
X126225002Y-68949999D02*
X116725002Y-68949999D01*
X129725002Y-72449999D02*
X126225002Y-68949999D01*
X116725002Y-68949999D02*
X115875000Y-68949999D01*
X129975002Y-70850002D02*
X128750000Y-69625000D01*
X129975002Y-71449999D02*
X129975002Y-70850002D01*
X102009999Y-81824999D02*
X100735000Y-80550000D01*
X108975002Y-81824999D02*
X102009999Y-81824999D01*
X125125000Y-103690000D02*
X122550000Y-106265000D01*
X125125000Y-96125000D02*
X125125000Y-103690000D01*
X152815000Y-98000000D02*
X156265000Y-101450000D01*
X148000000Y-98000000D02*
X152815000Y-98000000D01*
X132975002Y-63209998D02*
X135450000Y-60735000D01*
X132975002Y-69074999D02*
X132975002Y-63209998D01*
X114125000Y-62060000D02*
X115450000Y-60735000D01*
X114125000Y-68949999D02*
X114125000Y-62060000D01*
D20*
G36*
X93478724Y-53299119D02*
G01*
X96000000Y-55820395D01*
X98521276Y-53299119D01*
X98394669Y-53127000D01*
X172873000Y-53127000D01*
X172873000Y-55782316D01*
X172734637Y-55575241D01*
X172534759Y-55375363D01*
X172299727Y-55218320D01*
X172038574Y-55110147D01*
X171761335Y-55055000D01*
X171478665Y-55055000D01*
X171201426Y-55110147D01*
X170940273Y-55218320D01*
X170705241Y-55375363D01*
X170505363Y-55575241D01*
X170348320Y-55810273D01*
X170240147Y-56071426D01*
X170185000Y-56348665D01*
X170185000Y-56631335D01*
X170240147Y-56908574D01*
X170348320Y-57169727D01*
X170505363Y-57404759D01*
X170705241Y-57604637D01*
X170939128Y-57760915D01*
X170878486Y-57793329D01*
X170806903Y-58037298D01*
X171620000Y-58850395D01*
X172433097Y-58037298D01*
X172361514Y-57793329D01*
X172297008Y-57762806D01*
X172299727Y-57761680D01*
X172534759Y-57604637D01*
X172734637Y-57404759D01*
X172873000Y-57197684D01*
X172873000Y-58319036D01*
X172856671Y-58288486D01*
X172612702Y-58216903D01*
X171799605Y-59030000D01*
X172612702Y-59843097D01*
X172856671Y-59771514D01*
X172873000Y-59737004D01*
X172873000Y-60862316D01*
X172734637Y-60655241D01*
X172534759Y-60455363D01*
X172300872Y-60299085D01*
X172361514Y-60266671D01*
X172433097Y-60022702D01*
X171620000Y-59209605D01*
X170806903Y-60022702D01*
X170878486Y-60266671D01*
X170942992Y-60297194D01*
X170940273Y-60298320D01*
X170705241Y-60455363D01*
X170505363Y-60655241D01*
X170485479Y-60685000D01*
X169367046Y-60685000D01*
X169268942Y-60604488D01*
X169117567Y-60523577D01*
X168953316Y-60473752D01*
X168782500Y-60456928D01*
X168207500Y-60456928D01*
X168036684Y-60473752D01*
X167872433Y-60523577D01*
X167721058Y-60604488D01*
X167697161Y-60624099D01*
X167624494Y-60564463D01*
X167514180Y-60505498D01*
X167394482Y-60469188D01*
X167270000Y-60456928D01*
X167030750Y-60460000D01*
X166872000Y-60618750D01*
X166872000Y-61443000D01*
X166892000Y-61443000D01*
X166892000Y-61697000D01*
X166872000Y-61697000D01*
X166872000Y-62521250D01*
X167030750Y-62680000D01*
X167270000Y-62683072D01*
X167394482Y-62670812D01*
X167514180Y-62634502D01*
X167624494Y-62575537D01*
X167697161Y-62515901D01*
X167721058Y-62535512D01*
X167872433Y-62616423D01*
X168036684Y-62666248D01*
X168207500Y-62683072D01*
X168782500Y-62683072D01*
X168953316Y-62666248D01*
X169117567Y-62616423D01*
X169268942Y-62535512D01*
X169367046Y-62455000D01*
X170485479Y-62455000D01*
X170505363Y-62484759D01*
X170705241Y-62684637D01*
X170937759Y-62840000D01*
X170705241Y-62995363D01*
X170505363Y-63195241D01*
X170348320Y-63430273D01*
X170240147Y-63691426D01*
X170185000Y-63968665D01*
X170185000Y-64251335D01*
X170240147Y-64528574D01*
X170348320Y-64789727D01*
X170505363Y-65024759D01*
X170705241Y-65224637D01*
X170937759Y-65380000D01*
X170705241Y-65535363D01*
X170505363Y-65735241D01*
X170348320Y-65970273D01*
X170240147Y-66231426D01*
X170185000Y-66508665D01*
X170185000Y-66791335D01*
X170240147Y-67068574D01*
X170348320Y-67329727D01*
X170505363Y-67564759D01*
X170705241Y-67764637D01*
X170937759Y-67920000D01*
X170705241Y-68075363D01*
X170505363Y-68275241D01*
X170348320Y-68510273D01*
X170240147Y-68771426D01*
X170185000Y-69048665D01*
X170185000Y-69331335D01*
X170240147Y-69608574D01*
X170348320Y-69869727D01*
X170505363Y-70104759D01*
X170705241Y-70304637D01*
X170937759Y-70460000D01*
X170705241Y-70615363D01*
X170505363Y-70815241D01*
X170348320Y-71050273D01*
X170240147Y-71311426D01*
X170185000Y-71588665D01*
X170185000Y-71871335D01*
X170240147Y-72148574D01*
X170348320Y-72409727D01*
X170505363Y-72644759D01*
X170705241Y-72844637D01*
X170937759Y-73000000D01*
X170705241Y-73155363D01*
X170505363Y-73355241D01*
X170348320Y-73590273D01*
X170240147Y-73851426D01*
X170185000Y-74128665D01*
X170185000Y-74411335D01*
X170240147Y-74688574D01*
X170348320Y-74949727D01*
X170505363Y-75184759D01*
X170705241Y-75384637D01*
X170937759Y-75540000D01*
X170705241Y-75695363D01*
X170505363Y-75895241D01*
X170348320Y-76130273D01*
X170240147Y-76391426D01*
X170185000Y-76668665D01*
X170185000Y-76951335D01*
X170240147Y-77228574D01*
X170348320Y-77489727D01*
X170505363Y-77724759D01*
X170705241Y-77924637D01*
X170937759Y-78080000D01*
X170705241Y-78235363D01*
X170505363Y-78435241D01*
X170348320Y-78670273D01*
X170240147Y-78931426D01*
X170185000Y-79208665D01*
X170185000Y-79491335D01*
X170240147Y-79768574D01*
X170348320Y-80029727D01*
X170505363Y-80264759D01*
X170705241Y-80464637D01*
X170937759Y-80620000D01*
X170705241Y-80775363D01*
X170505363Y-80975241D01*
X170348320Y-81210273D01*
X170240147Y-81471426D01*
X170185000Y-81748665D01*
X170185000Y-82031335D01*
X170240147Y-82308574D01*
X170348320Y-82569727D01*
X170505363Y-82804759D01*
X170705241Y-83004637D01*
X170937759Y-83160000D01*
X170705241Y-83315363D01*
X170505363Y-83515241D01*
X170348320Y-83750273D01*
X170240147Y-84011426D01*
X170185000Y-84288665D01*
X170185000Y-84571335D01*
X170240147Y-84848574D01*
X170348320Y-85109727D01*
X170505363Y-85344759D01*
X170705241Y-85544637D01*
X170937759Y-85700000D01*
X170705241Y-85855363D01*
X170505363Y-86055241D01*
X170348320Y-86290273D01*
X170240147Y-86551426D01*
X170185000Y-86828665D01*
X170185000Y-87111335D01*
X170240147Y-87388574D01*
X170348320Y-87649727D01*
X170505363Y-87884759D01*
X170705241Y-88084637D01*
X170937759Y-88240000D01*
X170705241Y-88395363D01*
X170505363Y-88595241D01*
X170348320Y-88830273D01*
X170240147Y-89091426D01*
X170185000Y-89368665D01*
X170185000Y-89651335D01*
X170240147Y-89928574D01*
X170348320Y-90189727D01*
X170505363Y-90424759D01*
X170705241Y-90624637D01*
X170940273Y-90781680D01*
X171201426Y-90889853D01*
X171478665Y-90945000D01*
X171761335Y-90945000D01*
X172038574Y-90889853D01*
X172299727Y-90781680D01*
X172534759Y-90624637D01*
X172734637Y-90424759D01*
X172873000Y-90217684D01*
X172873000Y-113998000D01*
X98302722Y-113998000D01*
X98521276Y-113700881D01*
X96000000Y-111179605D01*
X93478724Y-113700881D01*
X93697278Y-113998000D01*
X93127000Y-113998000D01*
X93127000Y-113394669D01*
X93299119Y-113521276D01*
X95820395Y-111000000D01*
X96179605Y-111000000D01*
X98700881Y-113521276D01*
X99190548Y-113161088D01*
X99550849Y-112497118D01*
X99774694Y-111775615D01*
X99825647Y-111289721D01*
X156430000Y-111289721D01*
X156430000Y-111710279D01*
X156512047Y-112122756D01*
X156672988Y-112511302D01*
X156906637Y-112860983D01*
X157204017Y-113158363D01*
X157553698Y-113392012D01*
X157942244Y-113552953D01*
X158354721Y-113635000D01*
X158775279Y-113635000D01*
X159187756Y-113552953D01*
X159576302Y-113392012D01*
X159925983Y-113158363D01*
X160223363Y-112860983D01*
X160457012Y-112511302D01*
X160617953Y-112122756D01*
X160700000Y-111710279D01*
X160700000Y-111289721D01*
X160617953Y-110877244D01*
X160457012Y-110488698D01*
X160223363Y-110139017D01*
X159925983Y-109841637D01*
X159576302Y-109607988D01*
X159187756Y-109447047D01*
X158775279Y-109365000D01*
X158354721Y-109365000D01*
X157942244Y-109447047D01*
X157553698Y-109607988D01*
X157204017Y-109841637D01*
X156906637Y-110139017D01*
X156672988Y-110488698D01*
X156512047Y-110877244D01*
X156430000Y-111289721D01*
X99825647Y-111289721D01*
X99853480Y-111024305D01*
X99784178Y-110272062D01*
X99569452Y-109547792D01*
X99217555Y-108879330D01*
X99190548Y-108838912D01*
X98700881Y-108478724D01*
X96179605Y-111000000D01*
X95820395Y-111000000D01*
X93299119Y-108478724D01*
X93127000Y-108605331D01*
X93127000Y-108299119D01*
X93478724Y-108299119D01*
X96000000Y-110820395D01*
X98465674Y-108354721D01*
X110365000Y-108354721D01*
X110365000Y-108775279D01*
X110447047Y-109187756D01*
X110607988Y-109576302D01*
X110841637Y-109925983D01*
X111139017Y-110223363D01*
X111488698Y-110457012D01*
X111877244Y-110617953D01*
X112289721Y-110700000D01*
X112710279Y-110700000D01*
X113122756Y-110617953D01*
X113511302Y-110457012D01*
X113860983Y-110223363D01*
X114158363Y-109925983D01*
X114392012Y-109576302D01*
X114552953Y-109187756D01*
X114635000Y-108775279D01*
X114635000Y-108354721D01*
X125365000Y-108354721D01*
X125365000Y-108775279D01*
X125447047Y-109187756D01*
X125607988Y-109576302D01*
X125841637Y-109925983D01*
X126139017Y-110223363D01*
X126488698Y-110457012D01*
X126877244Y-110617953D01*
X127289721Y-110700000D01*
X127710279Y-110700000D01*
X128122756Y-110617953D01*
X128511302Y-110457012D01*
X128860983Y-110223363D01*
X129158363Y-109925983D01*
X129387735Y-109582702D01*
X152921903Y-109582702D01*
X152993486Y-109826671D01*
X153248996Y-109947571D01*
X153523184Y-110016300D01*
X153805512Y-110030217D01*
X154085130Y-109988787D01*
X154351292Y-109893603D01*
X154476514Y-109826671D01*
X154548097Y-109582702D01*
X153735000Y-108769605D01*
X152921903Y-109582702D01*
X129387735Y-109582702D01*
X129392012Y-109576302D01*
X129552953Y-109187756D01*
X129635000Y-108775279D01*
X129635000Y-108660512D01*
X152294783Y-108660512D01*
X152336213Y-108940130D01*
X152431397Y-109206292D01*
X152498329Y-109331514D01*
X152742298Y-109403097D01*
X153555395Y-108590000D01*
X152742298Y-107776903D01*
X152498329Y-107848486D01*
X152377429Y-108103996D01*
X152308700Y-108378184D01*
X152294783Y-108660512D01*
X129635000Y-108660512D01*
X129635000Y-108354721D01*
X129552953Y-107942244D01*
X129392012Y-107553698D01*
X129384665Y-107542702D01*
X152921903Y-107542702D01*
X152929913Y-107570000D01*
X152921903Y-107597298D01*
X152944574Y-107619969D01*
X152993486Y-107786671D01*
X153217069Y-107892464D01*
X153735000Y-108410395D01*
X154258668Y-107886727D01*
X154351292Y-107853603D01*
X154476514Y-107786671D01*
X154525426Y-107619969D01*
X154548097Y-107597298D01*
X154540087Y-107570000D01*
X154548097Y-107542702D01*
X154525426Y-107520031D01*
X154476514Y-107353329D01*
X154252931Y-107247536D01*
X153735000Y-106729605D01*
X153211332Y-107253273D01*
X153118708Y-107286397D01*
X152993486Y-107353329D01*
X152944574Y-107520031D01*
X152921903Y-107542702D01*
X129384665Y-107542702D01*
X129158363Y-107204017D01*
X128860983Y-106906637D01*
X128511302Y-106672988D01*
X128384614Y-106620512D01*
X152294783Y-106620512D01*
X152336213Y-106900130D01*
X152431397Y-107166292D01*
X152498329Y-107291514D01*
X152742298Y-107363097D01*
X153555395Y-106550000D01*
X152742298Y-105736903D01*
X152498329Y-105808486D01*
X152377429Y-106063996D01*
X152308700Y-106338184D01*
X152294783Y-106620512D01*
X128384614Y-106620512D01*
X128122756Y-106512047D01*
X127710279Y-106430000D01*
X127289721Y-106430000D01*
X126877244Y-106512047D01*
X126488698Y-106672988D01*
X126139017Y-106906637D01*
X125841637Y-107204017D01*
X125607988Y-107553698D01*
X125447047Y-107942244D01*
X125365000Y-108354721D01*
X114635000Y-108354721D01*
X114552953Y-107942244D01*
X114392012Y-107553698D01*
X114158363Y-107204017D01*
X113860983Y-106906637D01*
X113511302Y-106672988D01*
X113122756Y-106512047D01*
X112710279Y-106430000D01*
X112289721Y-106430000D01*
X111877244Y-106512047D01*
X111488698Y-106672988D01*
X111139017Y-106906637D01*
X110841637Y-107204017D01*
X110607988Y-107553698D01*
X110447047Y-107942244D01*
X110365000Y-108354721D01*
X98465674Y-108354721D01*
X98521276Y-108299119D01*
X98161088Y-107809452D01*
X97497118Y-107449151D01*
X96775615Y-107225306D01*
X96024305Y-107146520D01*
X95272062Y-107215822D01*
X94547792Y-107430548D01*
X93879330Y-107782445D01*
X93838912Y-107809452D01*
X93478724Y-108299119D01*
X93127000Y-108299119D01*
X93127000Y-104515098D01*
X96615000Y-104515098D01*
X96615000Y-104984902D01*
X96706654Y-105445679D01*
X96886440Y-105879721D01*
X97147450Y-106270349D01*
X97479651Y-106602550D01*
X97870279Y-106863560D01*
X98304321Y-107043346D01*
X98765098Y-107135000D01*
X99234902Y-107135000D01*
X99695679Y-107043346D01*
X100129721Y-106863560D01*
X100520349Y-106602550D01*
X100852550Y-106270349D01*
X101113560Y-105879721D01*
X101293346Y-105445679D01*
X101385000Y-104984902D01*
X101385000Y-104727702D01*
X114596903Y-104727702D01*
X114668486Y-104971671D01*
X114923996Y-105092571D01*
X115198184Y-105161300D01*
X115480512Y-105175217D01*
X115492105Y-105173499D01*
X115315363Y-105350241D01*
X115158320Y-105585273D01*
X115050147Y-105846426D01*
X114995000Y-106123665D01*
X114995000Y-106406335D01*
X115050147Y-106683574D01*
X115158320Y-106944727D01*
X115315363Y-107179759D01*
X115515241Y-107379637D01*
X115750273Y-107536680D01*
X116011426Y-107644853D01*
X116288665Y-107700000D01*
X116571335Y-107700000D01*
X116848574Y-107644853D01*
X117109727Y-107536680D01*
X117344759Y-107379637D01*
X117450000Y-107274396D01*
X117555241Y-107379637D01*
X117790273Y-107536680D01*
X118051426Y-107644853D01*
X118328665Y-107700000D01*
X118611335Y-107700000D01*
X118888574Y-107644853D01*
X119149727Y-107536680D01*
X119384759Y-107379637D01*
X119490000Y-107274396D01*
X119595241Y-107379637D01*
X119830273Y-107536680D01*
X120091426Y-107644853D01*
X120368665Y-107700000D01*
X120651335Y-107700000D01*
X120928574Y-107644853D01*
X121189727Y-107536680D01*
X121424759Y-107379637D01*
X121530000Y-107274396D01*
X121635241Y-107379637D01*
X121870273Y-107536680D01*
X122131426Y-107644853D01*
X122408665Y-107700000D01*
X122691335Y-107700000D01*
X122968574Y-107644853D01*
X123229727Y-107536680D01*
X123464759Y-107379637D01*
X123664637Y-107179759D01*
X123821680Y-106944727D01*
X123929853Y-106683574D01*
X123985000Y-106406335D01*
X123985000Y-106123665D01*
X123948688Y-105941114D01*
X124387100Y-105502702D01*
X152921903Y-105502702D01*
X152929913Y-105530000D01*
X152921903Y-105557298D01*
X152944574Y-105579969D01*
X152993486Y-105746671D01*
X153217069Y-105852464D01*
X153735000Y-106370395D01*
X154258668Y-105846727D01*
X154351292Y-105813603D01*
X154476514Y-105746671D01*
X154525426Y-105579969D01*
X154548097Y-105557298D01*
X154540087Y-105530000D01*
X154548097Y-105502702D01*
X154525426Y-105480031D01*
X154476514Y-105313329D01*
X154252931Y-105207536D01*
X153735000Y-104689605D01*
X153211332Y-105213273D01*
X153118708Y-105246397D01*
X152993486Y-105313329D01*
X152944574Y-105480031D01*
X152921903Y-105502702D01*
X124387100Y-105502702D01*
X125309290Y-104580512D01*
X152294783Y-104580512D01*
X152336213Y-104860130D01*
X152431397Y-105126292D01*
X152498329Y-105251514D01*
X152742298Y-105323097D01*
X153555395Y-104510000D01*
X152742298Y-103696903D01*
X152498329Y-103768486D01*
X152377429Y-104023996D01*
X152308700Y-104298184D01*
X152294783Y-104580512D01*
X125309290Y-104580512D01*
X125636003Y-104253799D01*
X125665001Y-104230001D01*
X125722556Y-104159870D01*
X125759974Y-104114277D01*
X125830546Y-103982247D01*
X125874003Y-103838986D01*
X125885000Y-103727333D01*
X125885000Y-103727323D01*
X125888676Y-103690000D01*
X125885000Y-103652677D01*
X125885000Y-103462702D01*
X152921903Y-103462702D01*
X152929913Y-103490000D01*
X152921903Y-103517298D01*
X152944574Y-103539969D01*
X152993486Y-103706671D01*
X153217069Y-103812464D01*
X153735000Y-104330395D01*
X154258668Y-103806727D01*
X154351292Y-103773603D01*
X154476514Y-103706671D01*
X154525426Y-103539969D01*
X154548097Y-103517298D01*
X154540087Y-103490000D01*
X154548097Y-103462702D01*
X154525426Y-103440031D01*
X154476514Y-103273329D01*
X154252931Y-103167536D01*
X153735000Y-102649605D01*
X153211332Y-103173273D01*
X153118708Y-103206397D01*
X152993486Y-103273329D01*
X152944574Y-103440031D01*
X152921903Y-103462702D01*
X125885000Y-103462702D01*
X125885000Y-102540512D01*
X152294783Y-102540512D01*
X152336213Y-102820130D01*
X152431397Y-103086292D01*
X152498329Y-103211514D01*
X152742298Y-103283097D01*
X153555395Y-102470000D01*
X152742298Y-101656903D01*
X152498329Y-101728486D01*
X152377429Y-101983996D01*
X152308700Y-102258184D01*
X152294783Y-102540512D01*
X125885000Y-102540512D01*
X125885000Y-101270881D01*
X136598724Y-101270881D01*
X136958912Y-101760548D01*
X137622882Y-102120849D01*
X138344385Y-102344694D01*
X139095695Y-102423480D01*
X139847938Y-102354178D01*
X140572208Y-102139452D01*
X141240670Y-101787555D01*
X141281088Y-101760548D01*
X141489440Y-101477298D01*
X152921903Y-101477298D01*
X153735000Y-102290395D01*
X154548097Y-101477298D01*
X154476514Y-101233329D01*
X154221004Y-101112429D01*
X153946816Y-101043700D01*
X153664488Y-101029783D01*
X153384870Y-101071213D01*
X153118708Y-101166397D01*
X152993486Y-101233329D01*
X152921903Y-101477298D01*
X141489440Y-101477298D01*
X141641276Y-101270881D01*
X139120000Y-98749605D01*
X136598724Y-101270881D01*
X125885000Y-101270881D01*
X125885000Y-98545695D01*
X135266520Y-98545695D01*
X135335822Y-99297938D01*
X135550548Y-100022208D01*
X135902445Y-100690670D01*
X135929452Y-100731088D01*
X136419119Y-101091276D01*
X138940395Y-98570000D01*
X139299605Y-98570000D01*
X141820881Y-101091276D01*
X142310548Y-100731088D01*
X142670849Y-100067118D01*
X142894694Y-99345615D01*
X142973480Y-98594305D01*
X142904178Y-97842062D01*
X142689452Y-97117792D01*
X142337555Y-96449330D01*
X142310548Y-96408912D01*
X141820881Y-96048724D01*
X139299605Y-98570000D01*
X138940395Y-98570000D01*
X136419119Y-96048724D01*
X135929452Y-96408912D01*
X135569151Y-97072882D01*
X135345306Y-97794385D01*
X135266520Y-98545695D01*
X125885000Y-98545695D01*
X125885000Y-97097964D01*
X125898942Y-97090512D01*
X126000000Y-97007575D01*
X126101058Y-97090512D01*
X126252433Y-97171423D01*
X126416684Y-97221248D01*
X126587500Y-97238072D01*
X127162500Y-97238072D01*
X127333316Y-97221248D01*
X127497567Y-97171423D01*
X127648942Y-97090512D01*
X127781623Y-96981623D01*
X127890512Y-96848942D01*
X127971423Y-96697567D01*
X128021248Y-96533316D01*
X128038072Y-96362500D01*
X128038072Y-95887500D01*
X128036262Y-95869119D01*
X136598724Y-95869119D01*
X139120000Y-98390395D01*
X141641276Y-95869119D01*
X141281088Y-95379452D01*
X140617118Y-95019151D01*
X139895615Y-94795306D01*
X139144305Y-94716520D01*
X138392062Y-94785822D01*
X137667792Y-95000548D01*
X136999330Y-95352445D01*
X136958912Y-95379452D01*
X136598724Y-95869119D01*
X128036262Y-95869119D01*
X128021248Y-95716684D01*
X127971423Y-95552433D01*
X127890512Y-95401058D01*
X127781623Y-95268377D01*
X127648942Y-95159488D01*
X127635000Y-95152036D01*
X127635000Y-92814801D01*
X130511008Y-89938795D01*
X130540001Y-89915001D01*
X130563795Y-89886008D01*
X130563799Y-89886004D01*
X130634973Y-89799277D01*
X130634974Y-89799276D01*
X130705546Y-89667247D01*
X130749003Y-89523986D01*
X130760000Y-89412333D01*
X130760000Y-89412324D01*
X130763676Y-89375001D01*
X130760000Y-89337678D01*
X130760000Y-85078711D01*
X130803937Y-85034774D01*
X130917205Y-84865256D01*
X130995226Y-84676898D01*
X131035000Y-84476939D01*
X131035000Y-84273061D01*
X130995226Y-84073102D01*
X130943977Y-83949377D01*
X131123063Y-83984999D01*
X131185201Y-83984999D01*
X143961204Y-96761003D01*
X143985002Y-96790001D01*
X144100727Y-96884974D01*
X144232756Y-96955546D01*
X144376017Y-96999003D01*
X144487670Y-97010000D01*
X144487678Y-97010000D01*
X144525003Y-97013676D01*
X144562328Y-97010000D01*
X147027036Y-97010000D01*
X147034488Y-97023942D01*
X147117425Y-97125000D01*
X147034488Y-97226058D01*
X146953577Y-97377433D01*
X146903752Y-97541684D01*
X146886928Y-97712500D01*
X146886928Y-98287500D01*
X146903752Y-98458316D01*
X146953577Y-98622567D01*
X147034488Y-98773942D01*
X147143377Y-98906623D01*
X147276058Y-99015512D01*
X147427433Y-99096423D01*
X147591684Y-99146248D01*
X147762500Y-99163072D01*
X148237500Y-99163072D01*
X148408316Y-99146248D01*
X148572567Y-99096423D01*
X148723942Y-99015512D01*
X148856623Y-98906623D01*
X148965512Y-98773942D01*
X148972964Y-98760000D01*
X152500199Y-98760000D01*
X154866312Y-101126114D01*
X154830000Y-101308665D01*
X154830000Y-101591335D01*
X154850191Y-101692843D01*
X154727702Y-101656903D01*
X153914605Y-102470000D01*
X154727702Y-103283097D01*
X154850191Y-103247157D01*
X154830000Y-103348665D01*
X154830000Y-103631335D01*
X154850191Y-103732843D01*
X154727702Y-103696903D01*
X153914605Y-104510000D01*
X154727702Y-105323097D01*
X154850191Y-105287157D01*
X154830000Y-105388665D01*
X154830000Y-105671335D01*
X154850191Y-105772843D01*
X154727702Y-105736903D01*
X153914605Y-106550000D01*
X154727702Y-107363097D01*
X154850191Y-107327157D01*
X154830000Y-107428665D01*
X154830000Y-107711335D01*
X154850191Y-107812843D01*
X154727702Y-107776903D01*
X153914605Y-108590000D01*
X154727702Y-109403097D01*
X154971671Y-109331514D01*
X155092571Y-109076004D01*
X155161300Y-108801816D01*
X155175217Y-108519488D01*
X155173499Y-108507895D01*
X155350241Y-108684637D01*
X155585273Y-108841680D01*
X155846426Y-108949853D01*
X156123665Y-109005000D01*
X156406335Y-109005000D01*
X156683574Y-108949853D01*
X156944727Y-108841680D01*
X157179759Y-108684637D01*
X157379637Y-108484759D01*
X157536680Y-108249727D01*
X157644853Y-107988574D01*
X157700000Y-107711335D01*
X157700000Y-107428665D01*
X157644853Y-107151426D01*
X157536680Y-106890273D01*
X157379637Y-106655241D01*
X157274396Y-106550000D01*
X157379637Y-106444759D01*
X157536680Y-106209727D01*
X157644853Y-105948574D01*
X157700000Y-105671335D01*
X157700000Y-105388665D01*
X157644853Y-105111426D01*
X157536680Y-104850273D01*
X157379637Y-104615241D01*
X157274396Y-104510000D01*
X157379637Y-104404759D01*
X157536680Y-104169727D01*
X157644853Y-103908574D01*
X157700000Y-103631335D01*
X157700000Y-103348665D01*
X157644853Y-103071426D01*
X157536680Y-102810273D01*
X157379637Y-102575241D01*
X157274396Y-102470000D01*
X157379637Y-102364759D01*
X157536680Y-102129727D01*
X157644853Y-101868574D01*
X157700000Y-101591335D01*
X157700000Y-101308665D01*
X157644853Y-101031426D01*
X157536680Y-100770273D01*
X157379637Y-100535241D01*
X157179759Y-100335363D01*
X156944727Y-100178320D01*
X156683574Y-100070147D01*
X156406335Y-100015000D01*
X156123665Y-100015000D01*
X155941114Y-100051312D01*
X153378804Y-97489003D01*
X153355001Y-97459999D01*
X153239276Y-97365026D01*
X153107247Y-97294454D01*
X152963986Y-97250997D01*
X152852333Y-97240000D01*
X152852322Y-97240000D01*
X152815000Y-97236324D01*
X152777678Y-97240000D01*
X148972964Y-97240000D01*
X148965512Y-97226058D01*
X148882575Y-97125000D01*
X148965512Y-97023942D01*
X149046423Y-96872567D01*
X149096248Y-96708316D01*
X149113072Y-96537500D01*
X149113072Y-96289721D01*
X156430000Y-96289721D01*
X156430000Y-96710279D01*
X156512047Y-97122756D01*
X156672988Y-97511302D01*
X156906637Y-97860983D01*
X157204017Y-98158363D01*
X157553698Y-98392012D01*
X157942244Y-98552953D01*
X158354721Y-98635000D01*
X158775279Y-98635000D01*
X159187756Y-98552953D01*
X159576302Y-98392012D01*
X159925983Y-98158363D01*
X160223363Y-97860983D01*
X160457012Y-97511302D01*
X160617953Y-97122756D01*
X160700000Y-96710279D01*
X160700000Y-96289721D01*
X160617953Y-95877244D01*
X160457012Y-95488698D01*
X160223363Y-95139017D01*
X159925983Y-94841637D01*
X159576302Y-94607988D01*
X159187756Y-94447047D01*
X158775279Y-94365000D01*
X158354721Y-94365000D01*
X157942244Y-94447047D01*
X157553698Y-94607988D01*
X157204017Y-94841637D01*
X156906637Y-95139017D01*
X156672988Y-95488698D01*
X156512047Y-95877244D01*
X156430000Y-96289721D01*
X149113072Y-96289721D01*
X149113072Y-95962500D01*
X149096248Y-95791684D01*
X149046423Y-95627433D01*
X148965512Y-95476058D01*
X148856623Y-95343377D01*
X148723942Y-95234488D01*
X148572567Y-95153577D01*
X148408316Y-95103752D01*
X148237500Y-95086928D01*
X147762500Y-95086928D01*
X147591684Y-95103752D01*
X147427433Y-95153577D01*
X147276058Y-95234488D01*
X147143377Y-95343377D01*
X147034488Y-95476058D01*
X147027036Y-95490000D01*
X144839805Y-95490000D01*
X132260002Y-82910198D01*
X132260002Y-82848060D01*
X132220228Y-82648101D01*
X132142207Y-82459743D01*
X132028939Y-82290225D01*
X131884776Y-82146062D01*
X131715258Y-82032794D01*
X131526900Y-81954773D01*
X131326941Y-81914999D01*
X131123063Y-81914999D01*
X130923104Y-81954773D01*
X130734746Y-82032794D01*
X130565228Y-82146062D01*
X130421065Y-82290225D01*
X130307797Y-82459743D01*
X130229776Y-82648101D01*
X130190002Y-82848060D01*
X130190002Y-83051938D01*
X130229776Y-83251897D01*
X130281025Y-83375622D01*
X130101939Y-83340000D01*
X129898061Y-83340000D01*
X129698102Y-83379774D01*
X129509744Y-83457795D01*
X129340226Y-83571063D01*
X129196063Y-83715226D01*
X129082795Y-83884744D01*
X129004774Y-84073102D01*
X128965000Y-84273061D01*
X128965000Y-84476939D01*
X129004774Y-84676898D01*
X129082795Y-84865256D01*
X129196063Y-85034774D01*
X129240000Y-85078711D01*
X129240001Y-89060196D01*
X126364003Y-91936196D01*
X126334999Y-91959999D01*
X126279871Y-92027174D01*
X126240026Y-92075724D01*
X126192306Y-92165001D01*
X126169454Y-92207754D01*
X126125997Y-92351015D01*
X126115000Y-92462668D01*
X126115000Y-92462678D01*
X126111324Y-92500000D01*
X126115000Y-92537323D01*
X126115001Y-95152036D01*
X126101058Y-95159488D01*
X126000000Y-95242425D01*
X125898942Y-95159488D01*
X125747567Y-95078577D01*
X125583316Y-95028752D01*
X125412500Y-95011928D01*
X124837500Y-95011928D01*
X124666684Y-95028752D01*
X124502433Y-95078577D01*
X124351058Y-95159488D01*
X124218377Y-95268377D01*
X124109488Y-95401058D01*
X124028577Y-95552433D01*
X123978752Y-95716684D01*
X123961928Y-95887500D01*
X123961928Y-96362500D01*
X123978752Y-96533316D01*
X124028577Y-96697567D01*
X124109488Y-96848942D01*
X124218377Y-96981623D01*
X124351058Y-97090512D01*
X124365000Y-97097964D01*
X124365001Y-103375197D01*
X122873886Y-104866312D01*
X122691335Y-104830000D01*
X122408665Y-104830000D01*
X122307157Y-104850191D01*
X122343097Y-104727702D01*
X121530000Y-103914605D01*
X120716903Y-104727702D01*
X120752843Y-104850191D01*
X120651335Y-104830000D01*
X120368665Y-104830000D01*
X120267157Y-104850191D01*
X120303097Y-104727702D01*
X119490000Y-103914605D01*
X118676903Y-104727702D01*
X118712843Y-104850191D01*
X118611335Y-104830000D01*
X118328665Y-104830000D01*
X118227157Y-104850191D01*
X118263097Y-104727702D01*
X117450000Y-103914605D01*
X116636903Y-104727702D01*
X116672843Y-104850191D01*
X116571335Y-104830000D01*
X116288665Y-104830000D01*
X116187157Y-104850191D01*
X116223097Y-104727702D01*
X115410000Y-103914605D01*
X114596903Y-104727702D01*
X101385000Y-104727702D01*
X101385000Y-104515098D01*
X101293346Y-104054321D01*
X101190286Y-103805512D01*
X113969783Y-103805512D01*
X114011213Y-104085130D01*
X114106397Y-104351292D01*
X114173329Y-104476514D01*
X114417298Y-104548097D01*
X115230395Y-103735000D01*
X115589605Y-103735000D01*
X116113273Y-104258668D01*
X116146397Y-104351292D01*
X116213329Y-104476514D01*
X116380031Y-104525426D01*
X116402702Y-104548097D01*
X116430000Y-104540087D01*
X116457298Y-104548097D01*
X116479969Y-104525426D01*
X116646671Y-104476514D01*
X116752464Y-104252931D01*
X117270395Y-103735000D01*
X117629605Y-103735000D01*
X118153273Y-104258668D01*
X118186397Y-104351292D01*
X118253329Y-104476514D01*
X118420031Y-104525426D01*
X118442702Y-104548097D01*
X118470000Y-104540087D01*
X118497298Y-104548097D01*
X118519969Y-104525426D01*
X118686671Y-104476514D01*
X118792464Y-104252931D01*
X119310395Y-103735000D01*
X119669605Y-103735000D01*
X120193273Y-104258668D01*
X120226397Y-104351292D01*
X120293329Y-104476514D01*
X120460031Y-104525426D01*
X120482702Y-104548097D01*
X120510000Y-104540087D01*
X120537298Y-104548097D01*
X120559969Y-104525426D01*
X120726671Y-104476514D01*
X120832464Y-104252931D01*
X121350395Y-103735000D01*
X121709605Y-103735000D01*
X122522702Y-104548097D01*
X122766671Y-104476514D01*
X122887571Y-104221004D01*
X122956300Y-103946816D01*
X122970217Y-103664488D01*
X122928787Y-103384870D01*
X122833603Y-103118708D01*
X122766671Y-102993486D01*
X122522702Y-102921903D01*
X121709605Y-103735000D01*
X121350395Y-103735000D01*
X120826727Y-103211332D01*
X120793603Y-103118708D01*
X120726671Y-102993486D01*
X120559969Y-102944574D01*
X120537298Y-102921903D01*
X120510000Y-102929913D01*
X120482702Y-102921903D01*
X120460031Y-102944574D01*
X120293329Y-102993486D01*
X120187536Y-103217069D01*
X119669605Y-103735000D01*
X119310395Y-103735000D01*
X118786727Y-103211332D01*
X118753603Y-103118708D01*
X118686671Y-102993486D01*
X118519969Y-102944574D01*
X118497298Y-102921903D01*
X118470000Y-102929913D01*
X118442702Y-102921903D01*
X118420031Y-102944574D01*
X118253329Y-102993486D01*
X118147536Y-103217069D01*
X117629605Y-103735000D01*
X117270395Y-103735000D01*
X116746727Y-103211332D01*
X116713603Y-103118708D01*
X116646671Y-102993486D01*
X116479969Y-102944574D01*
X116457298Y-102921903D01*
X116430000Y-102929913D01*
X116402702Y-102921903D01*
X116380031Y-102944574D01*
X116213329Y-102993486D01*
X116107536Y-103217069D01*
X115589605Y-103735000D01*
X115230395Y-103735000D01*
X114417298Y-102921903D01*
X114173329Y-102993486D01*
X114052429Y-103248996D01*
X113983700Y-103523184D01*
X113969783Y-103805512D01*
X101190286Y-103805512D01*
X101113560Y-103620279D01*
X100852550Y-103229651D01*
X100520349Y-102897450D01*
X100129721Y-102636440D01*
X99879537Y-102532810D01*
X100036898Y-102545759D01*
X100484070Y-102494449D01*
X100912639Y-102356885D01*
X101244777Y-102179354D01*
X101418830Y-101848435D01*
X100000000Y-100429605D01*
X98581170Y-101848435D01*
X98755223Y-102179354D01*
X99116388Y-102365000D01*
X98765098Y-102365000D01*
X98304321Y-102456654D01*
X97870279Y-102636440D01*
X97479651Y-102897450D01*
X97147450Y-103229651D01*
X96886440Y-103620279D01*
X96706654Y-104054321D01*
X96615000Y-104515098D01*
X93127000Y-104515098D01*
X93127000Y-100108665D01*
X95565000Y-100108665D01*
X95565000Y-100391335D01*
X95620147Y-100668574D01*
X95728320Y-100929727D01*
X95885363Y-101164759D01*
X96085241Y-101364637D01*
X96320273Y-101521680D01*
X96581426Y-101629853D01*
X96858665Y-101685000D01*
X97141335Y-101685000D01*
X97418574Y-101629853D01*
X97679727Y-101521680D01*
X97914759Y-101364637D01*
X97971015Y-101308381D01*
X98070646Y-101494777D01*
X98401565Y-101668830D01*
X99820395Y-100250000D01*
X100179605Y-100250000D01*
X101598435Y-101668830D01*
X101929354Y-101494777D01*
X102135125Y-101094460D01*
X102258846Y-100661692D01*
X102295759Y-100213102D01*
X102244449Y-99765930D01*
X102106885Y-99337361D01*
X101929354Y-99005223D01*
X101598435Y-98831170D01*
X100179605Y-100250000D01*
X99820395Y-100250000D01*
X98401565Y-98831170D01*
X98070646Y-99005223D01*
X97973538Y-99194142D01*
X97914759Y-99135363D01*
X97679727Y-98978320D01*
X97418574Y-98870147D01*
X97141335Y-98815000D01*
X96858665Y-98815000D01*
X96581426Y-98870147D01*
X96320273Y-98978320D01*
X96085241Y-99135363D01*
X95885363Y-99335241D01*
X95728320Y-99570273D01*
X95620147Y-99831426D01*
X95565000Y-100108665D01*
X93127000Y-100108665D01*
X93127000Y-95515098D01*
X96615000Y-95515098D01*
X96615000Y-95984902D01*
X96706654Y-96445679D01*
X96886440Y-96879721D01*
X97147450Y-97270349D01*
X97479651Y-97602550D01*
X97870279Y-97863560D01*
X98304321Y-98043346D01*
X98765098Y-98135000D01*
X99112643Y-98135000D01*
X99087361Y-98143115D01*
X98755223Y-98320646D01*
X98581170Y-98651565D01*
X100000000Y-100070395D01*
X101418830Y-98651565D01*
X101244777Y-98320646D01*
X100844460Y-98114875D01*
X100411692Y-97991154D01*
X99963102Y-97954241D01*
X99890757Y-97962542D01*
X100129721Y-97863560D01*
X100520349Y-97602550D01*
X100852550Y-97270349D01*
X101113560Y-96879721D01*
X101293346Y-96445679D01*
X101385000Y-95984902D01*
X101385000Y-95515098D01*
X101293346Y-95054321D01*
X101113560Y-94620279D01*
X100852550Y-94229651D01*
X100520349Y-93897450D01*
X100129721Y-93636440D01*
X99695679Y-93456654D01*
X99234902Y-93365000D01*
X98765098Y-93365000D01*
X98304321Y-93456654D01*
X97870279Y-93636440D01*
X97479651Y-93897450D01*
X97147450Y-94229651D01*
X96886440Y-94620279D01*
X96706654Y-95054321D01*
X96615000Y-95515098D01*
X93127000Y-95515098D01*
X93127000Y-85289721D01*
X96300000Y-85289721D01*
X96300000Y-85710279D01*
X96382047Y-86122756D01*
X96542988Y-86511302D01*
X96776637Y-86860983D01*
X97074017Y-87158363D01*
X97423698Y-87392012D01*
X97812244Y-87552953D01*
X98224721Y-87635000D01*
X98645279Y-87635000D01*
X99057756Y-87552953D01*
X99446302Y-87392012D01*
X99795983Y-87158363D01*
X100093363Y-86860983D01*
X100327012Y-86511302D01*
X100487953Y-86122756D01*
X100570000Y-85710279D01*
X100570000Y-85289721D01*
X100487953Y-84877244D01*
X100327012Y-84488698D01*
X100093363Y-84139017D01*
X99795983Y-83841637D01*
X99446302Y-83607988D01*
X99057756Y-83447047D01*
X98645279Y-83365000D01*
X98224721Y-83365000D01*
X97812244Y-83447047D01*
X97423698Y-83607988D01*
X97074017Y-83841637D01*
X96776637Y-84139017D01*
X96542988Y-84488698D01*
X96382047Y-84877244D01*
X96300000Y-85289721D01*
X93127000Y-85289721D01*
X93127000Y-74288665D01*
X99300000Y-74288665D01*
X99300000Y-74571335D01*
X99355147Y-74848574D01*
X99463320Y-75109727D01*
X99620363Y-75344759D01*
X99725604Y-75450000D01*
X99620363Y-75555241D01*
X99463320Y-75790273D01*
X99355147Y-76051426D01*
X99300000Y-76328665D01*
X99300000Y-76611335D01*
X99355147Y-76888574D01*
X99463320Y-77149727D01*
X99620363Y-77384759D01*
X99725604Y-77490000D01*
X99620363Y-77595241D01*
X99463320Y-77830273D01*
X99355147Y-78091426D01*
X99300000Y-78368665D01*
X99300000Y-78651335D01*
X99355147Y-78928574D01*
X99463320Y-79189727D01*
X99620363Y-79424759D01*
X99725604Y-79530000D01*
X99620363Y-79635241D01*
X99463320Y-79870273D01*
X99355147Y-80131426D01*
X99300000Y-80408665D01*
X99300000Y-80691335D01*
X99355147Y-80968574D01*
X99463320Y-81229727D01*
X99620363Y-81464759D01*
X99820241Y-81664637D01*
X100055273Y-81821680D01*
X100316426Y-81929853D01*
X100593665Y-81985000D01*
X100876335Y-81985000D01*
X101058886Y-81948688D01*
X101446200Y-82336002D01*
X101469998Y-82365000D01*
X101498996Y-82388798D01*
X101585722Y-82459973D01*
X101708731Y-82525723D01*
X101717752Y-82530545D01*
X101861013Y-82574002D01*
X101972666Y-82584999D01*
X101972676Y-82584999D01*
X102009999Y-82588675D01*
X102047322Y-82584999D01*
X108002038Y-82584999D01*
X108009490Y-82598941D01*
X108118379Y-82731622D01*
X108251060Y-82840511D01*
X108402435Y-82921422D01*
X108566686Y-82971247D01*
X108737502Y-82988071D01*
X109212502Y-82988071D01*
X109383318Y-82971247D01*
X109547569Y-82921422D01*
X109698944Y-82840511D01*
X109831625Y-82731622D01*
X109940514Y-82598941D01*
X110021425Y-82447566D01*
X110071250Y-82283315D01*
X110088074Y-82112499D01*
X110088074Y-81537499D01*
X110071250Y-81366683D01*
X110021425Y-81202432D01*
X109940514Y-81051057D01*
X109857577Y-80949999D01*
X109940514Y-80848941D01*
X109947966Y-80834999D01*
X112062680Y-80834999D01*
X112100002Y-80838675D01*
X112137324Y-80834999D01*
X112137335Y-80834999D01*
X112248988Y-80824002D01*
X112392249Y-80780545D01*
X112524278Y-80709973D01*
X112640003Y-80615000D01*
X112663806Y-80585996D01*
X119039804Y-74209999D01*
X122006445Y-74209999D01*
X121840226Y-74321063D01*
X121696063Y-74465226D01*
X121582795Y-74634744D01*
X121504774Y-74823102D01*
X121465000Y-75023061D01*
X121465000Y-75085198D01*
X105488998Y-91061201D01*
X105460000Y-91084999D01*
X105436202Y-91113997D01*
X105436201Y-91113998D01*
X105365026Y-91200724D01*
X105294454Y-91332754D01*
X105250998Y-91476015D01*
X105236324Y-91625000D01*
X105240001Y-91662332D01*
X105240000Y-97611928D01*
X104000000Y-97611928D01*
X103875518Y-97624188D01*
X103755820Y-97660498D01*
X103645506Y-97719463D01*
X103548815Y-97798815D01*
X103469463Y-97895506D01*
X103410498Y-98005820D01*
X103374188Y-98125518D01*
X103361928Y-98250000D01*
X103361928Y-102250000D01*
X103374188Y-102374482D01*
X103410498Y-102494180D01*
X103469463Y-102604494D01*
X103548815Y-102701185D01*
X103645506Y-102780537D01*
X103755820Y-102839502D01*
X103875518Y-102875812D01*
X104000000Y-102888072D01*
X108000000Y-102888072D01*
X108124482Y-102875812D01*
X108244180Y-102839502D01*
X108354494Y-102780537D01*
X108401088Y-102742298D01*
X114596903Y-102742298D01*
X115410000Y-103555395D01*
X116223097Y-102742298D01*
X116636903Y-102742298D01*
X117450000Y-103555395D01*
X118263097Y-102742298D01*
X118676903Y-102742298D01*
X119490000Y-103555395D01*
X120303097Y-102742298D01*
X120716903Y-102742298D01*
X121530000Y-103555395D01*
X122343097Y-102742298D01*
X122271514Y-102498329D01*
X122016004Y-102377429D01*
X121741816Y-102308700D01*
X121459488Y-102294783D01*
X121179870Y-102336213D01*
X120913708Y-102431397D01*
X120788486Y-102498329D01*
X120716903Y-102742298D01*
X120303097Y-102742298D01*
X120231514Y-102498329D01*
X119976004Y-102377429D01*
X119701816Y-102308700D01*
X119419488Y-102294783D01*
X119139870Y-102336213D01*
X118873708Y-102431397D01*
X118748486Y-102498329D01*
X118676903Y-102742298D01*
X118263097Y-102742298D01*
X118191514Y-102498329D01*
X117936004Y-102377429D01*
X117661816Y-102308700D01*
X117379488Y-102294783D01*
X117099870Y-102336213D01*
X116833708Y-102431397D01*
X116708486Y-102498329D01*
X116636903Y-102742298D01*
X116223097Y-102742298D01*
X116151514Y-102498329D01*
X115896004Y-102377429D01*
X115621816Y-102308700D01*
X115339488Y-102294783D01*
X115059870Y-102336213D01*
X114793708Y-102431397D01*
X114668486Y-102498329D01*
X114596903Y-102742298D01*
X108401088Y-102742298D01*
X108451185Y-102701185D01*
X108530537Y-102604494D01*
X108589502Y-102494180D01*
X108625812Y-102374482D01*
X108638072Y-102250000D01*
X108638072Y-98250000D01*
X108625812Y-98125518D01*
X108589502Y-98005820D01*
X108530537Y-97895506D01*
X108451185Y-97798815D01*
X108354494Y-97719463D01*
X108244180Y-97660498D01*
X108124482Y-97624188D01*
X108000000Y-97611928D01*
X106760000Y-97611928D01*
X106760000Y-91939801D01*
X122539802Y-76160000D01*
X122601939Y-76160000D01*
X122801898Y-76120226D01*
X122990256Y-76042205D01*
X123159774Y-75928937D01*
X123303937Y-75784774D01*
X123417205Y-75615256D01*
X123495226Y-75426898D01*
X123535000Y-75226939D01*
X123535000Y-75023061D01*
X123495226Y-74823102D01*
X123417205Y-74634744D01*
X123303937Y-74465226D01*
X123159774Y-74321063D01*
X122993555Y-74209999D01*
X127521291Y-74209999D01*
X127565228Y-74253936D01*
X127734746Y-74367204D01*
X127923104Y-74445225D01*
X128123063Y-74484999D01*
X128326941Y-74484999D01*
X128526900Y-74445225D01*
X128715258Y-74367204D01*
X128884776Y-74253936D01*
X129028939Y-74109773D01*
X129142207Y-73940255D01*
X129220228Y-73751897D01*
X129260002Y-73551938D01*
X129260002Y-73348060D01*
X129220228Y-73148101D01*
X129142207Y-72959743D01*
X129106493Y-72906293D01*
X129161207Y-72961007D01*
X129185001Y-72990000D01*
X129213994Y-73013794D01*
X129213998Y-73013798D01*
X129258290Y-73050147D01*
X129300726Y-73084973D01*
X129432755Y-73155545D01*
X129576016Y-73199002D01*
X129687669Y-73209999D01*
X129687678Y-73209999D01*
X129725001Y-73213675D01*
X129762324Y-73209999D01*
X130021291Y-73209999D01*
X130065228Y-73253936D01*
X130234746Y-73367204D01*
X130423104Y-73445225D01*
X130623063Y-73484999D01*
X130826941Y-73484999D01*
X131026900Y-73445225D01*
X131096281Y-73416486D01*
X131090001Y-73448059D01*
X131090001Y-73651937D01*
X131129775Y-73851896D01*
X131207796Y-74040254D01*
X131321064Y-74209772D01*
X131465227Y-74353935D01*
X131634745Y-74467203D01*
X131823103Y-74545224D01*
X132023062Y-74584998D01*
X132226940Y-74584998D01*
X132426899Y-74545224D01*
X132615257Y-74467203D01*
X132784775Y-74353935D01*
X132928938Y-74209772D01*
X133042206Y-74040254D01*
X133120227Y-73851896D01*
X133160001Y-73651937D01*
X133160001Y-73589800D01*
X133486006Y-73263795D01*
X133515003Y-73239998D01*
X133549319Y-73198184D01*
X133609976Y-73124274D01*
X133680548Y-72992244D01*
X133701250Y-72923996D01*
X133724005Y-72848983D01*
X133735002Y-72737330D01*
X133735002Y-72737320D01*
X133738678Y-72699997D01*
X133735002Y-72662674D01*
X133735002Y-71810919D01*
X133831625Y-71731622D01*
X133940514Y-71598941D01*
X134021425Y-71447566D01*
X134071250Y-71283315D01*
X134088074Y-71112499D01*
X134088074Y-70537499D01*
X134071250Y-70366683D01*
X134021425Y-70202432D01*
X133940514Y-70051057D01*
X133857577Y-69949999D01*
X133940514Y-69848941D01*
X134021425Y-69697566D01*
X134071250Y-69533315D01*
X134088074Y-69362499D01*
X134088074Y-68787499D01*
X134071250Y-68616683D01*
X134021425Y-68452432D01*
X133940514Y-68301057D01*
X133831625Y-68168376D01*
X133735002Y-68089079D01*
X133735002Y-64257702D01*
X135656903Y-64257702D01*
X135728486Y-64501671D01*
X135983996Y-64622571D01*
X136258184Y-64691300D01*
X136540512Y-64705217D01*
X136820130Y-64663787D01*
X137086292Y-64568603D01*
X137211514Y-64501671D01*
X137283097Y-64257702D01*
X137696903Y-64257702D01*
X137768486Y-64501671D01*
X138023996Y-64622571D01*
X138298184Y-64691300D01*
X138580512Y-64705217D01*
X138860130Y-64663787D01*
X139126292Y-64568603D01*
X139251514Y-64501671D01*
X139323097Y-64257702D01*
X139736903Y-64257702D01*
X139808486Y-64501671D01*
X140063996Y-64622571D01*
X140338184Y-64691300D01*
X140620512Y-64705217D01*
X140900130Y-64663787D01*
X141166292Y-64568603D01*
X141291514Y-64501671D01*
X141363097Y-64257702D01*
X141776903Y-64257702D01*
X141848486Y-64501671D01*
X142103996Y-64622571D01*
X142378184Y-64691300D01*
X142660512Y-64705217D01*
X142940130Y-64663787D01*
X143206292Y-64568603D01*
X143331514Y-64501671D01*
X143403097Y-64257702D01*
X142590000Y-63444605D01*
X141776903Y-64257702D01*
X141363097Y-64257702D01*
X140550000Y-63444605D01*
X139736903Y-64257702D01*
X139323097Y-64257702D01*
X138510000Y-63444605D01*
X137696903Y-64257702D01*
X137283097Y-64257702D01*
X136470000Y-63444605D01*
X135656903Y-64257702D01*
X133735002Y-64257702D01*
X133735002Y-63524799D01*
X133924289Y-63335512D01*
X135029783Y-63335512D01*
X135071213Y-63615130D01*
X135166397Y-63881292D01*
X135233329Y-64006514D01*
X135477298Y-64078097D01*
X136290395Y-63265000D01*
X136649605Y-63265000D01*
X137173273Y-63788668D01*
X137206397Y-63881292D01*
X137273329Y-64006514D01*
X137440031Y-64055426D01*
X137462702Y-64078097D01*
X137490000Y-64070087D01*
X137517298Y-64078097D01*
X137539969Y-64055426D01*
X137706671Y-64006514D01*
X137812464Y-63782931D01*
X138330395Y-63265000D01*
X138689605Y-63265000D01*
X139213273Y-63788668D01*
X139246397Y-63881292D01*
X139313329Y-64006514D01*
X139480031Y-64055426D01*
X139502702Y-64078097D01*
X139530000Y-64070087D01*
X139557298Y-64078097D01*
X139579969Y-64055426D01*
X139746671Y-64006514D01*
X139852464Y-63782931D01*
X140370395Y-63265000D01*
X140729605Y-63265000D01*
X141253273Y-63788668D01*
X141286397Y-63881292D01*
X141353329Y-64006514D01*
X141520031Y-64055426D01*
X141542702Y-64078097D01*
X141570000Y-64070087D01*
X141597298Y-64078097D01*
X141619969Y-64055426D01*
X141786671Y-64006514D01*
X141892464Y-63782931D01*
X142410395Y-63265000D01*
X142769605Y-63265000D01*
X143582702Y-64078097D01*
X143826671Y-64006514D01*
X143947571Y-63751004D01*
X144016300Y-63476816D01*
X144030217Y-63194488D01*
X143988787Y-62914870D01*
X143893603Y-62648708D01*
X143826671Y-62523486D01*
X143582702Y-62451903D01*
X142769605Y-63265000D01*
X142410395Y-63265000D01*
X141886727Y-62741332D01*
X141853603Y-62648708D01*
X141786671Y-62523486D01*
X141619969Y-62474574D01*
X141597298Y-62451903D01*
X141570000Y-62459913D01*
X141542702Y-62451903D01*
X141520031Y-62474574D01*
X141353329Y-62523486D01*
X141247536Y-62747069D01*
X140729605Y-63265000D01*
X140370395Y-63265000D01*
X139846727Y-62741332D01*
X139813603Y-62648708D01*
X139746671Y-62523486D01*
X139579969Y-62474574D01*
X139557298Y-62451903D01*
X139530000Y-62459913D01*
X139502702Y-62451903D01*
X139480031Y-62474574D01*
X139313329Y-62523486D01*
X139207536Y-62747069D01*
X138689605Y-63265000D01*
X138330395Y-63265000D01*
X137806727Y-62741332D01*
X137773603Y-62648708D01*
X137706671Y-62523486D01*
X137539969Y-62474574D01*
X137517298Y-62451903D01*
X137490000Y-62459913D01*
X137462702Y-62451903D01*
X137440031Y-62474574D01*
X137273329Y-62523486D01*
X137167536Y-62747069D01*
X136649605Y-63265000D01*
X136290395Y-63265000D01*
X135477298Y-62451903D01*
X135233329Y-62523486D01*
X135112429Y-62778996D01*
X135043700Y-63053184D01*
X135029783Y-63335512D01*
X133924289Y-63335512D01*
X135126114Y-62133688D01*
X135308665Y-62170000D01*
X135591335Y-62170000D01*
X135692843Y-62149809D01*
X135656903Y-62272298D01*
X136470000Y-63085395D01*
X137283097Y-62272298D01*
X137247157Y-62149809D01*
X137348665Y-62170000D01*
X137631335Y-62170000D01*
X137732843Y-62149809D01*
X137696903Y-62272298D01*
X138510000Y-63085395D01*
X139323097Y-62272298D01*
X139287157Y-62149809D01*
X139388665Y-62170000D01*
X139671335Y-62170000D01*
X139772843Y-62149809D01*
X139736903Y-62272298D01*
X140550000Y-63085395D01*
X141363097Y-62272298D01*
X141327157Y-62149809D01*
X141428665Y-62170000D01*
X141711335Y-62170000D01*
X141812843Y-62149809D01*
X141776903Y-62272298D01*
X142590000Y-63085395D01*
X143403097Y-62272298D01*
X143331514Y-62028329D01*
X143076004Y-61907429D01*
X142801816Y-61838700D01*
X142519488Y-61824783D01*
X142507895Y-61826501D01*
X142684637Y-61649759D01*
X142841680Y-61414727D01*
X142949853Y-61153574D01*
X143005000Y-60876335D01*
X143005000Y-60593665D01*
X142949853Y-60316426D01*
X142841680Y-60055273D01*
X142684637Y-59820241D01*
X142484759Y-59620363D01*
X142249727Y-59463320D01*
X141988574Y-59355147D01*
X141711335Y-59300000D01*
X141428665Y-59300000D01*
X141151426Y-59355147D01*
X140890273Y-59463320D01*
X140655241Y-59620363D01*
X140550000Y-59725604D01*
X140444759Y-59620363D01*
X140209727Y-59463320D01*
X139948574Y-59355147D01*
X139671335Y-59300000D01*
X139388665Y-59300000D01*
X139111426Y-59355147D01*
X138850273Y-59463320D01*
X138615241Y-59620363D01*
X138510000Y-59725604D01*
X138404759Y-59620363D01*
X138169727Y-59463320D01*
X137908574Y-59355147D01*
X137631335Y-59300000D01*
X137348665Y-59300000D01*
X137071426Y-59355147D01*
X136810273Y-59463320D01*
X136575241Y-59620363D01*
X136470000Y-59725604D01*
X136364759Y-59620363D01*
X136129727Y-59463320D01*
X135868574Y-59355147D01*
X135591335Y-59300000D01*
X135308665Y-59300000D01*
X135031426Y-59355147D01*
X134770273Y-59463320D01*
X134535241Y-59620363D01*
X134335363Y-59820241D01*
X134178320Y-60055273D01*
X134070147Y-60316426D01*
X134015000Y-60593665D01*
X134015000Y-60876335D01*
X134051312Y-61058886D01*
X132464000Y-62646199D01*
X132435002Y-62669997D01*
X132411204Y-62698995D01*
X132411203Y-62698996D01*
X132340028Y-62785722D01*
X132269456Y-62917752D01*
X132259719Y-62949853D01*
X132226000Y-63061012D01*
X132215003Y-63172665D01*
X132211326Y-63209998D01*
X132215003Y-63247330D01*
X132215002Y-68089079D01*
X132118379Y-68168376D01*
X132009490Y-68301057D01*
X131928579Y-68452432D01*
X131878754Y-68616683D01*
X131861930Y-68787499D01*
X131861930Y-69362499D01*
X131878754Y-69533315D01*
X131928579Y-69697566D01*
X132009490Y-69848941D01*
X132092427Y-69949999D01*
X132009490Y-70051057D01*
X131928579Y-70202432D01*
X131878754Y-70366683D01*
X131861930Y-70537499D01*
X131861930Y-71112499D01*
X131878754Y-71283315D01*
X131928579Y-71447566D01*
X132009490Y-71598941D01*
X132118379Y-71731622D01*
X132215002Y-71810919D01*
X132215002Y-72385195D01*
X132085199Y-72514998D01*
X132023062Y-72514998D01*
X131823103Y-72554772D01*
X131753722Y-72583511D01*
X131760002Y-72551938D01*
X131760002Y-72348060D01*
X131720228Y-72148101D01*
X131642207Y-71959743D01*
X131528939Y-71790225D01*
X131384776Y-71646062D01*
X131215258Y-71532794D01*
X131026900Y-71454773D01*
X131010002Y-71451412D01*
X131010002Y-71348060D01*
X130970228Y-71148101D01*
X130892207Y-70959743D01*
X130778939Y-70790225D01*
X130727750Y-70739036D01*
X130724005Y-70701016D01*
X130680548Y-70557755D01*
X130609976Y-70425726D01*
X130561521Y-70366683D01*
X130538801Y-70338998D01*
X130538797Y-70338994D01*
X130515003Y-70310001D01*
X130486010Y-70286207D01*
X129785000Y-69585198D01*
X129785000Y-69523061D01*
X129745226Y-69323102D01*
X129667205Y-69134744D01*
X129553937Y-68965226D01*
X129409774Y-68821063D01*
X129240256Y-68707795D01*
X129051898Y-68629774D01*
X128851939Y-68590000D01*
X128648061Y-68590000D01*
X128448102Y-68629774D01*
X128259744Y-68707795D01*
X128090226Y-68821063D01*
X127946063Y-68965226D01*
X127832795Y-69134744D01*
X127754774Y-69323102D01*
X127741191Y-69391387D01*
X126788806Y-68439002D01*
X126765003Y-68409998D01*
X126649278Y-68315025D01*
X126517249Y-68244453D01*
X126373988Y-68200996D01*
X126262335Y-68189999D01*
X126262324Y-68189999D01*
X126225002Y-68186323D01*
X126187680Y-68189999D01*
X116860920Y-68189999D01*
X116781623Y-68093376D01*
X116648942Y-67984487D01*
X116497567Y-67903576D01*
X116333316Y-67853751D01*
X116162500Y-67836927D01*
X115587500Y-67836927D01*
X115416684Y-67853751D01*
X115252433Y-67903576D01*
X115101058Y-67984487D01*
X115000000Y-68067424D01*
X114898942Y-67984487D01*
X114885000Y-67977035D01*
X114885000Y-64257702D01*
X115656903Y-64257702D01*
X115728486Y-64501671D01*
X115983996Y-64622571D01*
X116258184Y-64691300D01*
X116540512Y-64705217D01*
X116820130Y-64663787D01*
X117086292Y-64568603D01*
X117211514Y-64501671D01*
X117283097Y-64257702D01*
X117696903Y-64257702D01*
X117768486Y-64501671D01*
X118023996Y-64622571D01*
X118298184Y-64691300D01*
X118580512Y-64705217D01*
X118860130Y-64663787D01*
X119126292Y-64568603D01*
X119251514Y-64501671D01*
X119323097Y-64257702D01*
X119736903Y-64257702D01*
X119808486Y-64501671D01*
X120063996Y-64622571D01*
X120338184Y-64691300D01*
X120620512Y-64705217D01*
X120900130Y-64663787D01*
X121166292Y-64568603D01*
X121291514Y-64501671D01*
X121363097Y-64257702D01*
X121776903Y-64257702D01*
X121848486Y-64501671D01*
X122103996Y-64622571D01*
X122378184Y-64691300D01*
X122660512Y-64705217D01*
X122940130Y-64663787D01*
X123206292Y-64568603D01*
X123331514Y-64501671D01*
X123403097Y-64257702D01*
X122590000Y-63444605D01*
X121776903Y-64257702D01*
X121363097Y-64257702D01*
X120550000Y-63444605D01*
X119736903Y-64257702D01*
X119323097Y-64257702D01*
X118510000Y-63444605D01*
X117696903Y-64257702D01*
X117283097Y-64257702D01*
X116470000Y-63444605D01*
X115656903Y-64257702D01*
X114885000Y-64257702D01*
X114885000Y-63335512D01*
X115029783Y-63335512D01*
X115071213Y-63615130D01*
X115166397Y-63881292D01*
X115233329Y-64006514D01*
X115477298Y-64078097D01*
X116290395Y-63265000D01*
X116649605Y-63265000D01*
X117173273Y-63788668D01*
X117206397Y-63881292D01*
X117273329Y-64006514D01*
X117440031Y-64055426D01*
X117462702Y-64078097D01*
X117490000Y-64070087D01*
X117517298Y-64078097D01*
X117539969Y-64055426D01*
X117706671Y-64006514D01*
X117812464Y-63782931D01*
X118330395Y-63265000D01*
X118689605Y-63265000D01*
X119213273Y-63788668D01*
X119246397Y-63881292D01*
X119313329Y-64006514D01*
X119480031Y-64055426D01*
X119502702Y-64078097D01*
X119530000Y-64070087D01*
X119557298Y-64078097D01*
X119579969Y-64055426D01*
X119746671Y-64006514D01*
X119852464Y-63782931D01*
X120370395Y-63265000D01*
X120729605Y-63265000D01*
X121253273Y-63788668D01*
X121286397Y-63881292D01*
X121353329Y-64006514D01*
X121520031Y-64055426D01*
X121542702Y-64078097D01*
X121570000Y-64070087D01*
X121597298Y-64078097D01*
X121619969Y-64055426D01*
X121786671Y-64006514D01*
X121892464Y-63782931D01*
X122410395Y-63265000D01*
X122769605Y-63265000D01*
X123582702Y-64078097D01*
X123826671Y-64006514D01*
X123947571Y-63751004D01*
X124016300Y-63476816D01*
X124030217Y-63194488D01*
X123988787Y-62914870D01*
X123893603Y-62648708D01*
X123826671Y-62523486D01*
X123582702Y-62451903D01*
X122769605Y-63265000D01*
X122410395Y-63265000D01*
X121886727Y-62741332D01*
X121853603Y-62648708D01*
X121786671Y-62523486D01*
X121619969Y-62474574D01*
X121597298Y-62451903D01*
X121570000Y-62459913D01*
X121542702Y-62451903D01*
X121520031Y-62474574D01*
X121353329Y-62523486D01*
X121247536Y-62747069D01*
X120729605Y-63265000D01*
X120370395Y-63265000D01*
X119846727Y-62741332D01*
X119813603Y-62648708D01*
X119746671Y-62523486D01*
X119579969Y-62474574D01*
X119557298Y-62451903D01*
X119530000Y-62459913D01*
X119502702Y-62451903D01*
X119480031Y-62474574D01*
X119313329Y-62523486D01*
X119207536Y-62747069D01*
X118689605Y-63265000D01*
X118330395Y-63265000D01*
X117806727Y-62741332D01*
X117773603Y-62648708D01*
X117706671Y-62523486D01*
X117539969Y-62474574D01*
X117517298Y-62451903D01*
X117490000Y-62459913D01*
X117462702Y-62451903D01*
X117440031Y-62474574D01*
X117273329Y-62523486D01*
X117167536Y-62747069D01*
X116649605Y-63265000D01*
X116290395Y-63265000D01*
X115477298Y-62451903D01*
X115233329Y-62523486D01*
X115112429Y-62778996D01*
X115043700Y-63053184D01*
X115029783Y-63335512D01*
X114885000Y-63335512D01*
X114885000Y-62374801D01*
X115126114Y-62133688D01*
X115308665Y-62170000D01*
X115591335Y-62170000D01*
X115692843Y-62149809D01*
X115656903Y-62272298D01*
X116470000Y-63085395D01*
X117283097Y-62272298D01*
X117247157Y-62149809D01*
X117348665Y-62170000D01*
X117631335Y-62170000D01*
X117732843Y-62149809D01*
X117696903Y-62272298D01*
X118510000Y-63085395D01*
X119323097Y-62272298D01*
X119287157Y-62149809D01*
X119388665Y-62170000D01*
X119671335Y-62170000D01*
X119772843Y-62149809D01*
X119736903Y-62272298D01*
X120550000Y-63085395D01*
X121363097Y-62272298D01*
X121327157Y-62149809D01*
X121428665Y-62170000D01*
X121711335Y-62170000D01*
X121812843Y-62149809D01*
X121776903Y-62272298D01*
X122590000Y-63085395D01*
X123403097Y-62272298D01*
X123331514Y-62028329D01*
X123076004Y-61907429D01*
X122801816Y-61838700D01*
X122519488Y-61824783D01*
X122507895Y-61826501D01*
X122684637Y-61649759D01*
X122841680Y-61414727D01*
X122949853Y-61153574D01*
X123005000Y-60876335D01*
X123005000Y-60593665D01*
X122949853Y-60316426D01*
X122841680Y-60055273D01*
X122684637Y-59820241D01*
X122484759Y-59620363D01*
X122249727Y-59463320D01*
X121988574Y-59355147D01*
X121711335Y-59300000D01*
X121428665Y-59300000D01*
X121151426Y-59355147D01*
X120890273Y-59463320D01*
X120655241Y-59620363D01*
X120550000Y-59725604D01*
X120444759Y-59620363D01*
X120209727Y-59463320D01*
X119948574Y-59355147D01*
X119671335Y-59300000D01*
X119388665Y-59300000D01*
X119111426Y-59355147D01*
X118850273Y-59463320D01*
X118615241Y-59620363D01*
X118510000Y-59725604D01*
X118404759Y-59620363D01*
X118169727Y-59463320D01*
X117908574Y-59355147D01*
X117631335Y-59300000D01*
X117348665Y-59300000D01*
X117071426Y-59355147D01*
X116810273Y-59463320D01*
X116575241Y-59620363D01*
X116470000Y-59725604D01*
X116364759Y-59620363D01*
X116129727Y-59463320D01*
X115868574Y-59355147D01*
X115591335Y-59300000D01*
X115308665Y-59300000D01*
X115031426Y-59355147D01*
X114770273Y-59463320D01*
X114535241Y-59620363D01*
X114335363Y-59820241D01*
X114178320Y-60055273D01*
X114070147Y-60316426D01*
X114015000Y-60593665D01*
X114015000Y-60876335D01*
X114051312Y-61058886D01*
X113613998Y-61496201D01*
X113585000Y-61519999D01*
X113561202Y-61548997D01*
X113561201Y-61548998D01*
X113490026Y-61635724D01*
X113419454Y-61767754D01*
X113407398Y-61807500D01*
X113377086Y-61907429D01*
X113375998Y-61911015D01*
X113361324Y-62060000D01*
X113365001Y-62097332D01*
X113365000Y-67977035D01*
X113351058Y-67984487D01*
X113218377Y-68093376D01*
X113109488Y-68226057D01*
X113028577Y-68377432D01*
X112978752Y-68541683D01*
X112961928Y-68712499D01*
X112961928Y-69187499D01*
X112978752Y-69358315D01*
X113028577Y-69522566D01*
X113109488Y-69673941D01*
X113218377Y-69806622D01*
X113351058Y-69915511D01*
X113502433Y-69996422D01*
X113666684Y-70046247D01*
X113837500Y-70063071D01*
X114412500Y-70063071D01*
X114583316Y-70046247D01*
X114747567Y-69996422D01*
X114898942Y-69915511D01*
X115000000Y-69832574D01*
X115101058Y-69915511D01*
X115252433Y-69996422D01*
X115416684Y-70046247D01*
X115587500Y-70063071D01*
X116162500Y-70063071D01*
X116333316Y-70046247D01*
X116497567Y-69996422D01*
X116648942Y-69915511D01*
X116781623Y-69806622D01*
X116860920Y-69709999D01*
X125910201Y-69709999D01*
X128768709Y-72568509D01*
X128715258Y-72532794D01*
X128526900Y-72454773D01*
X128326941Y-72414999D01*
X128123063Y-72414999D01*
X127923104Y-72454773D01*
X127734746Y-72532794D01*
X127565228Y-72646062D01*
X127521291Y-72689999D01*
X118762325Y-72689999D01*
X118725002Y-72686323D01*
X118687679Y-72689999D01*
X118687669Y-72689999D01*
X118576016Y-72700996D01*
X118432755Y-72744453D01*
X118300726Y-72815025D01*
X118185001Y-72909998D01*
X118161203Y-72938996D01*
X111785201Y-79314999D01*
X109947966Y-79314999D01*
X109940514Y-79301057D01*
X109831625Y-79168376D01*
X109698944Y-79059487D01*
X109547569Y-78978576D01*
X109383318Y-78928751D01*
X109212502Y-78911927D01*
X108737502Y-78911927D01*
X108566686Y-78928751D01*
X108402435Y-78978576D01*
X108251060Y-79059487D01*
X108118379Y-79168376D01*
X108009490Y-79301057D01*
X107928579Y-79452432D01*
X107878754Y-79616683D01*
X107861930Y-79787499D01*
X107861930Y-80362499D01*
X107878754Y-80533315D01*
X107928579Y-80697566D01*
X108009490Y-80848941D01*
X108092427Y-80949999D01*
X108009490Y-81051057D01*
X108002038Y-81064999D01*
X102324801Y-81064999D01*
X102133688Y-80873886D01*
X102170000Y-80691335D01*
X102170000Y-80522702D01*
X102451903Y-80522702D01*
X102523486Y-80766671D01*
X102778996Y-80887571D01*
X103053184Y-80956300D01*
X103335512Y-80970217D01*
X103615130Y-80928787D01*
X103881292Y-80833603D01*
X104006514Y-80766671D01*
X104078097Y-80522702D01*
X103265000Y-79709605D01*
X102451903Y-80522702D01*
X102170000Y-80522702D01*
X102170000Y-80408665D01*
X102149809Y-80307157D01*
X102272298Y-80343097D01*
X103085395Y-79530000D01*
X103444605Y-79530000D01*
X104257702Y-80343097D01*
X104501671Y-80271514D01*
X104622571Y-80016004D01*
X104691300Y-79741816D01*
X104705217Y-79459488D01*
X104663787Y-79179870D01*
X104568603Y-78913708D01*
X104501671Y-78788486D01*
X104257702Y-78716903D01*
X103444605Y-79530000D01*
X103085395Y-79530000D01*
X102272298Y-78716903D01*
X102149809Y-78752843D01*
X102170000Y-78651335D01*
X102170000Y-78482702D01*
X102451903Y-78482702D01*
X102459913Y-78510000D01*
X102451903Y-78537298D01*
X102474574Y-78559969D01*
X102523486Y-78726671D01*
X102747069Y-78832464D01*
X103265000Y-79350395D01*
X103788668Y-78826727D01*
X103881292Y-78793603D01*
X104006514Y-78726671D01*
X104055426Y-78559969D01*
X104078097Y-78537298D01*
X104070087Y-78510000D01*
X104078097Y-78482702D01*
X104055426Y-78460031D01*
X104006514Y-78293329D01*
X103782931Y-78187536D01*
X103265000Y-77669605D01*
X102741332Y-78193273D01*
X102648708Y-78226397D01*
X102523486Y-78293329D01*
X102474574Y-78460031D01*
X102451903Y-78482702D01*
X102170000Y-78482702D01*
X102170000Y-78368665D01*
X102149809Y-78267157D01*
X102272298Y-78303097D01*
X103085395Y-77490000D01*
X103444605Y-77490000D01*
X104257702Y-78303097D01*
X104501671Y-78231514D01*
X104622571Y-77976004D01*
X104691300Y-77701816D01*
X104705217Y-77419488D01*
X104663787Y-77139870D01*
X104568603Y-76873708D01*
X104501671Y-76748486D01*
X104257702Y-76676903D01*
X103444605Y-77490000D01*
X103085395Y-77490000D01*
X102272298Y-76676903D01*
X102149809Y-76712843D01*
X102170000Y-76611335D01*
X102170000Y-76442702D01*
X102451903Y-76442702D01*
X102459913Y-76470000D01*
X102451903Y-76497298D01*
X102474574Y-76519969D01*
X102523486Y-76686671D01*
X102747069Y-76792464D01*
X103265000Y-77310395D01*
X103788668Y-76786727D01*
X103881292Y-76753603D01*
X104006514Y-76686671D01*
X104055426Y-76519969D01*
X104078097Y-76497298D01*
X104070087Y-76470000D01*
X104078097Y-76442702D01*
X104055426Y-76420031D01*
X104006514Y-76253329D01*
X103782931Y-76147536D01*
X103265000Y-75629605D01*
X102741332Y-76153273D01*
X102648708Y-76186397D01*
X102523486Y-76253329D01*
X102474574Y-76420031D01*
X102451903Y-76442702D01*
X102170000Y-76442702D01*
X102170000Y-76328665D01*
X102149809Y-76227157D01*
X102272298Y-76263097D01*
X103085395Y-75450000D01*
X103444605Y-75450000D01*
X104257702Y-76263097D01*
X104501671Y-76191514D01*
X104622571Y-75936004D01*
X104691300Y-75661816D01*
X104705217Y-75379488D01*
X104663787Y-75099870D01*
X104568603Y-74833708D01*
X104501671Y-74708486D01*
X104257702Y-74636903D01*
X103444605Y-75450000D01*
X103085395Y-75450000D01*
X102272298Y-74636903D01*
X102149809Y-74672843D01*
X102170000Y-74571335D01*
X102170000Y-74402702D01*
X102451903Y-74402702D01*
X102459913Y-74430000D01*
X102451903Y-74457298D01*
X102474574Y-74479969D01*
X102523486Y-74646671D01*
X102747069Y-74752464D01*
X103265000Y-75270395D01*
X103788668Y-74746727D01*
X103881292Y-74713603D01*
X104006514Y-74646671D01*
X104055426Y-74479969D01*
X104078097Y-74457298D01*
X104070087Y-74430000D01*
X104078097Y-74402702D01*
X104055426Y-74380031D01*
X104006514Y-74213329D01*
X103782931Y-74107536D01*
X103265000Y-73589605D01*
X102741332Y-74113273D01*
X102648708Y-74146397D01*
X102523486Y-74213329D01*
X102474574Y-74380031D01*
X102451903Y-74402702D01*
X102170000Y-74402702D01*
X102170000Y-74288665D01*
X102149809Y-74187157D01*
X102272298Y-74223097D01*
X103085395Y-73410000D01*
X103444605Y-73410000D01*
X104257702Y-74223097D01*
X104501671Y-74151514D01*
X104622571Y-73896004D01*
X104691300Y-73621816D01*
X104705217Y-73339488D01*
X104663787Y-73059870D01*
X104568603Y-72793708D01*
X104501671Y-72668486D01*
X104257702Y-72596903D01*
X103444605Y-73410000D01*
X103085395Y-73410000D01*
X102272298Y-72596903D01*
X102028329Y-72668486D01*
X101907429Y-72923996D01*
X101838700Y-73198184D01*
X101824783Y-73480512D01*
X101826501Y-73492105D01*
X101649759Y-73315363D01*
X101414727Y-73158320D01*
X101153574Y-73050147D01*
X100876335Y-72995000D01*
X100593665Y-72995000D01*
X100316426Y-73050147D01*
X100055273Y-73158320D01*
X99820241Y-73315363D01*
X99620363Y-73515241D01*
X99463320Y-73750273D01*
X99355147Y-74011426D01*
X99300000Y-74288665D01*
X93127000Y-74288665D01*
X93127000Y-70289721D01*
X96300000Y-70289721D01*
X96300000Y-70710279D01*
X96382047Y-71122756D01*
X96542988Y-71511302D01*
X96776637Y-71860983D01*
X97074017Y-72158363D01*
X97423698Y-72392012D01*
X97812244Y-72552953D01*
X98224721Y-72635000D01*
X98645279Y-72635000D01*
X99057756Y-72552953D01*
X99385256Y-72417298D01*
X102451903Y-72417298D01*
X103265000Y-73230395D01*
X104078097Y-72417298D01*
X104006514Y-72173329D01*
X103751004Y-72052429D01*
X103476816Y-71983700D01*
X103194488Y-71969783D01*
X102914870Y-72011213D01*
X102648708Y-72106397D01*
X102523486Y-72173329D01*
X102451903Y-72417298D01*
X99385256Y-72417298D01*
X99446302Y-72392012D01*
X99795983Y-72158363D01*
X100093363Y-71860983D01*
X100327012Y-71511302D01*
X100487953Y-71122756D01*
X100570000Y-70710279D01*
X100570000Y-70289721D01*
X100487953Y-69877244D01*
X100327012Y-69488698D01*
X100093363Y-69139017D01*
X99795983Y-68841637D01*
X99446302Y-68607988D01*
X99057756Y-68447047D01*
X98645279Y-68365000D01*
X98224721Y-68365000D01*
X97812244Y-68447047D01*
X97423698Y-68607988D01*
X97074017Y-68841637D01*
X96776637Y-69139017D01*
X96542988Y-69488698D01*
X96382047Y-69877244D01*
X96300000Y-70289721D01*
X93127000Y-70289721D01*
X93127000Y-58700881D01*
X93478724Y-58700881D01*
X93838912Y-59190548D01*
X94502882Y-59550849D01*
X95224385Y-59774694D01*
X95975695Y-59853480D01*
X96727938Y-59784178D01*
X97452208Y-59569452D01*
X98120670Y-59217555D01*
X98161088Y-59190548D01*
X98521276Y-58700881D01*
X96000000Y-56179605D01*
X93478724Y-58700881D01*
X93127000Y-58700881D01*
X93127000Y-58394669D01*
X93299119Y-58521276D01*
X95820395Y-56000000D01*
X96179605Y-56000000D01*
X98700881Y-58521276D01*
X99104040Y-58224721D01*
X108365000Y-58224721D01*
X108365000Y-58645279D01*
X108447047Y-59057756D01*
X108607988Y-59446302D01*
X108841637Y-59795983D01*
X109139017Y-60093363D01*
X109488698Y-60327012D01*
X109877244Y-60487953D01*
X110289721Y-60570000D01*
X110710279Y-60570000D01*
X111122756Y-60487953D01*
X111511302Y-60327012D01*
X111860983Y-60093363D01*
X112158363Y-59795983D01*
X112392012Y-59446302D01*
X112552953Y-59057756D01*
X112635000Y-58645279D01*
X112635000Y-58224721D01*
X123365000Y-58224721D01*
X123365000Y-58645279D01*
X123447047Y-59057756D01*
X123607988Y-59446302D01*
X123841637Y-59795983D01*
X124139017Y-60093363D01*
X124488698Y-60327012D01*
X124877244Y-60487953D01*
X125289721Y-60570000D01*
X125710279Y-60570000D01*
X126122756Y-60487953D01*
X126511302Y-60327012D01*
X126860983Y-60093363D01*
X127158363Y-59795983D01*
X127392012Y-59446302D01*
X127552953Y-59057756D01*
X127635000Y-58645279D01*
X127635000Y-58224721D01*
X128365000Y-58224721D01*
X128365000Y-58645279D01*
X128447047Y-59057756D01*
X128607988Y-59446302D01*
X128841637Y-59795983D01*
X129139017Y-60093363D01*
X129488698Y-60327012D01*
X129877244Y-60487953D01*
X130289721Y-60570000D01*
X130710279Y-60570000D01*
X131122756Y-60487953D01*
X131511302Y-60327012D01*
X131860983Y-60093363D01*
X132158363Y-59795983D01*
X132392012Y-59446302D01*
X132552953Y-59057756D01*
X132635000Y-58645279D01*
X132635000Y-58224721D01*
X143365000Y-58224721D01*
X143365000Y-58645279D01*
X143447047Y-59057756D01*
X143607988Y-59446302D01*
X143841637Y-59795983D01*
X144139017Y-60093363D01*
X144488698Y-60327012D01*
X144877244Y-60487953D01*
X145289721Y-60570000D01*
X145710279Y-60570000D01*
X146122756Y-60487953D01*
X146511302Y-60327012D01*
X146860983Y-60093363D01*
X147158363Y-59795983D01*
X147392012Y-59446302D01*
X147552953Y-59057756D01*
X147635000Y-58645279D01*
X147635000Y-58224721D01*
X147552953Y-57812244D01*
X147392012Y-57423698D01*
X147302678Y-57290000D01*
X154941928Y-57290000D01*
X154954188Y-57414482D01*
X154990498Y-57534180D01*
X155049463Y-57644494D01*
X155128815Y-57741185D01*
X155225506Y-57820537D01*
X155335820Y-57879502D01*
X155455518Y-57915812D01*
X155463961Y-57916643D01*
X155265363Y-58115241D01*
X155108320Y-58350273D01*
X155000147Y-58611426D01*
X154945000Y-58888665D01*
X154945000Y-59171335D01*
X155000147Y-59448574D01*
X155108320Y-59709727D01*
X155265363Y-59944759D01*
X155465241Y-60144637D01*
X155697759Y-60300000D01*
X155465241Y-60455363D01*
X155265363Y-60655241D01*
X155108320Y-60890273D01*
X155000147Y-61151426D01*
X154945000Y-61428665D01*
X154945000Y-61711335D01*
X155000147Y-61988574D01*
X155108320Y-62249727D01*
X155265363Y-62484759D01*
X155465241Y-62684637D01*
X155697759Y-62840000D01*
X155465241Y-62995363D01*
X155265363Y-63195241D01*
X155108320Y-63430273D01*
X155000147Y-63691426D01*
X154945000Y-63968665D01*
X154945000Y-64251335D01*
X155000147Y-64528574D01*
X155108320Y-64789727D01*
X155265363Y-65024759D01*
X155465241Y-65224637D01*
X155697759Y-65380000D01*
X155465241Y-65535363D01*
X155265363Y-65735241D01*
X155108320Y-65970273D01*
X155000147Y-66231426D01*
X154945000Y-66508665D01*
X154945000Y-66791335D01*
X155000147Y-67068574D01*
X155108320Y-67329727D01*
X155265363Y-67564759D01*
X155465241Y-67764637D01*
X155697759Y-67920000D01*
X155465241Y-68075363D01*
X155265363Y-68275241D01*
X155108320Y-68510273D01*
X155000147Y-68771426D01*
X154945000Y-69048665D01*
X154945000Y-69331335D01*
X155000147Y-69608574D01*
X155108320Y-69869727D01*
X155265363Y-70104759D01*
X155465241Y-70304637D01*
X155697759Y-70460000D01*
X155465241Y-70615363D01*
X155265363Y-70815241D01*
X155108320Y-71050273D01*
X155000147Y-71311426D01*
X154945000Y-71588665D01*
X154945000Y-71871335D01*
X155000147Y-72148574D01*
X155108320Y-72409727D01*
X155265363Y-72644759D01*
X155465241Y-72844637D01*
X155697759Y-73000000D01*
X155465241Y-73155363D01*
X155265363Y-73355241D01*
X155108320Y-73590273D01*
X155000147Y-73851426D01*
X154945000Y-74128665D01*
X154945000Y-74411335D01*
X155000147Y-74688574D01*
X155108320Y-74949727D01*
X155265363Y-75184759D01*
X155465241Y-75384637D01*
X155697759Y-75540000D01*
X155465241Y-75695363D01*
X155265363Y-75895241D01*
X155108320Y-76130273D01*
X155000147Y-76391426D01*
X154945000Y-76668665D01*
X154945000Y-76951335D01*
X155000147Y-77228574D01*
X155108320Y-77489727D01*
X155265363Y-77724759D01*
X155465241Y-77924637D01*
X155697759Y-78080000D01*
X155465241Y-78235363D01*
X155265363Y-78435241D01*
X155108320Y-78670273D01*
X155000147Y-78931426D01*
X154945000Y-79208665D01*
X154945000Y-79491335D01*
X155000147Y-79768574D01*
X155108320Y-80029727D01*
X155265363Y-80264759D01*
X155465241Y-80464637D01*
X155697759Y-80620000D01*
X155465241Y-80775363D01*
X155265363Y-80975241D01*
X155108320Y-81210273D01*
X155000147Y-81471426D01*
X154945000Y-81748665D01*
X154945000Y-82031335D01*
X155000147Y-82308574D01*
X155108320Y-82569727D01*
X155265363Y-82804759D01*
X155465241Y-83004637D01*
X155697759Y-83160000D01*
X155465241Y-83315363D01*
X155265363Y-83515241D01*
X155108320Y-83750273D01*
X155000147Y-84011426D01*
X154945000Y-84288665D01*
X154945000Y-84571335D01*
X155000147Y-84848574D01*
X155108320Y-85109727D01*
X155265363Y-85344759D01*
X155465241Y-85544637D01*
X155697759Y-85700000D01*
X155465241Y-85855363D01*
X155265363Y-86055241D01*
X155108320Y-86290273D01*
X155000147Y-86551426D01*
X154945000Y-86828665D01*
X154945000Y-87111335D01*
X155000147Y-87388574D01*
X155108320Y-87649727D01*
X155265363Y-87884759D01*
X155465241Y-88084637D01*
X155697759Y-88240000D01*
X155465241Y-88395363D01*
X155265363Y-88595241D01*
X155108320Y-88830273D01*
X155000147Y-89091426D01*
X154945000Y-89368665D01*
X154945000Y-89651335D01*
X155000147Y-89928574D01*
X155108320Y-90189727D01*
X155265363Y-90424759D01*
X155465241Y-90624637D01*
X155700273Y-90781680D01*
X155961426Y-90889853D01*
X156238665Y-90945000D01*
X156521335Y-90945000D01*
X156798574Y-90889853D01*
X157059727Y-90781680D01*
X157294759Y-90624637D01*
X157494637Y-90424759D01*
X157651680Y-90189727D01*
X157759853Y-89928574D01*
X157815000Y-89651335D01*
X157815000Y-89368665D01*
X157759853Y-89091426D01*
X157651680Y-88830273D01*
X157494637Y-88595241D01*
X157294759Y-88395363D01*
X157062241Y-88240000D01*
X157294759Y-88084637D01*
X157494637Y-87884759D01*
X157651680Y-87649727D01*
X157759853Y-87388574D01*
X157815000Y-87111335D01*
X157815000Y-86828665D01*
X157759853Y-86551426D01*
X157651680Y-86290273D01*
X157494637Y-86055241D01*
X157294759Y-85855363D01*
X157062241Y-85700000D01*
X157294759Y-85544637D01*
X157494637Y-85344759D01*
X157651680Y-85109727D01*
X157759853Y-84848574D01*
X157815000Y-84571335D01*
X157815000Y-84288665D01*
X157759853Y-84011426D01*
X157651680Y-83750273D01*
X157494637Y-83515241D01*
X157294759Y-83315363D01*
X157062241Y-83160000D01*
X157294759Y-83004637D01*
X157494637Y-82804759D01*
X157651680Y-82569727D01*
X157759853Y-82308574D01*
X157815000Y-82031335D01*
X157815000Y-81748665D01*
X157759853Y-81471426D01*
X157651680Y-81210273D01*
X157494637Y-80975241D01*
X157294759Y-80775363D01*
X157062241Y-80620000D01*
X157294759Y-80464637D01*
X157494637Y-80264759D01*
X157651680Y-80029727D01*
X157759853Y-79768574D01*
X157815000Y-79491335D01*
X157815000Y-79208665D01*
X157759853Y-78931426D01*
X157651680Y-78670273D01*
X157494637Y-78435241D01*
X157294759Y-78235363D01*
X157062241Y-78080000D01*
X157294759Y-77924637D01*
X157494637Y-77724759D01*
X157651680Y-77489727D01*
X157759853Y-77228574D01*
X157815000Y-76951335D01*
X157815000Y-76668665D01*
X157759853Y-76391426D01*
X157651680Y-76130273D01*
X157494637Y-75895241D01*
X157294759Y-75695363D01*
X157062241Y-75540000D01*
X157294759Y-75384637D01*
X157494637Y-75184759D01*
X157651680Y-74949727D01*
X157759853Y-74688574D01*
X157815000Y-74411335D01*
X157815000Y-74128665D01*
X157759853Y-73851426D01*
X157651680Y-73590273D01*
X157494637Y-73355241D01*
X157294759Y-73155363D01*
X157062241Y-73000000D01*
X157294759Y-72844637D01*
X157494637Y-72644759D01*
X157651680Y-72409727D01*
X157759853Y-72148574D01*
X157815000Y-71871335D01*
X157815000Y-71588665D01*
X157759853Y-71311426D01*
X157651680Y-71050273D01*
X157494637Y-70815241D01*
X157294759Y-70615363D01*
X157062241Y-70460000D01*
X157294759Y-70304637D01*
X157494637Y-70104759D01*
X157651680Y-69869727D01*
X157759853Y-69608574D01*
X157815000Y-69331335D01*
X157815000Y-69048665D01*
X157759853Y-68771426D01*
X157651680Y-68510273D01*
X157494637Y-68275241D01*
X157294759Y-68075363D01*
X157062241Y-67920000D01*
X157294759Y-67764637D01*
X157494637Y-67564759D01*
X157651680Y-67329727D01*
X157759853Y-67068574D01*
X157815000Y-66791335D01*
X157815000Y-66508665D01*
X157759853Y-66231426D01*
X157651680Y-65970273D01*
X157494637Y-65735241D01*
X157294759Y-65535363D01*
X157062241Y-65380000D01*
X157294759Y-65224637D01*
X157494637Y-65024759D01*
X157651680Y-64789727D01*
X157759853Y-64528574D01*
X157815000Y-64251335D01*
X157815000Y-63968665D01*
X157759853Y-63691426D01*
X157651680Y-63430273D01*
X157494637Y-63195241D01*
X157294759Y-62995363D01*
X157062241Y-62840000D01*
X157294759Y-62684637D01*
X157494637Y-62484759D01*
X157651680Y-62249727D01*
X157736480Y-62045000D01*
X165581928Y-62045000D01*
X165594188Y-62169482D01*
X165630498Y-62289180D01*
X165689463Y-62399494D01*
X165768815Y-62496185D01*
X165865506Y-62575537D01*
X165975820Y-62634502D01*
X166095518Y-62670812D01*
X166220000Y-62683072D01*
X166459250Y-62680000D01*
X166618000Y-62521250D01*
X166618000Y-61697000D01*
X165743750Y-61697000D01*
X165585000Y-61855750D01*
X165581928Y-62045000D01*
X157736480Y-62045000D01*
X157759853Y-61988574D01*
X157815000Y-61711335D01*
X157815000Y-61428665D01*
X157759853Y-61151426D01*
X157736481Y-61095000D01*
X165581928Y-61095000D01*
X165585000Y-61284250D01*
X165743750Y-61443000D01*
X166618000Y-61443000D01*
X166618000Y-60618750D01*
X166459250Y-60460000D01*
X166220000Y-60456928D01*
X166095518Y-60469188D01*
X165975820Y-60505498D01*
X165865506Y-60564463D01*
X165768815Y-60643815D01*
X165689463Y-60740506D01*
X165630498Y-60850820D01*
X165594188Y-60970518D01*
X165581928Y-61095000D01*
X157736481Y-61095000D01*
X157651680Y-60890273D01*
X157494637Y-60655241D01*
X157294759Y-60455363D01*
X157062241Y-60300000D01*
X157294759Y-60144637D01*
X157494637Y-59944759D01*
X157651680Y-59709727D01*
X157759853Y-59448574D01*
X157815000Y-59171335D01*
X157815000Y-59100512D01*
X170179783Y-59100512D01*
X170221213Y-59380130D01*
X170316397Y-59646292D01*
X170383329Y-59771514D01*
X170627298Y-59843097D01*
X171440395Y-59030000D01*
X170627298Y-58216903D01*
X170383329Y-58288486D01*
X170262429Y-58543996D01*
X170193700Y-58818184D01*
X170179783Y-59100512D01*
X157815000Y-59100512D01*
X157815000Y-58888665D01*
X157759853Y-58611426D01*
X157651680Y-58350273D01*
X157494637Y-58115241D01*
X157296039Y-57916643D01*
X157304482Y-57915812D01*
X157424180Y-57879502D01*
X157534494Y-57820537D01*
X157631185Y-57741185D01*
X157710537Y-57644494D01*
X157769502Y-57534180D01*
X157805812Y-57414482D01*
X157818072Y-57290000D01*
X157815000Y-56775750D01*
X157656250Y-56617000D01*
X156507000Y-56617000D01*
X156507000Y-56637000D01*
X156253000Y-56637000D01*
X156253000Y-56617000D01*
X155103750Y-56617000D01*
X154945000Y-56775750D01*
X154941928Y-57290000D01*
X147302678Y-57290000D01*
X147158363Y-57074017D01*
X146860983Y-56776637D01*
X146511302Y-56542988D01*
X146122756Y-56382047D01*
X145710279Y-56300000D01*
X145289721Y-56300000D01*
X144877244Y-56382047D01*
X144488698Y-56542988D01*
X144139017Y-56776637D01*
X143841637Y-57074017D01*
X143607988Y-57423698D01*
X143447047Y-57812244D01*
X143365000Y-58224721D01*
X132635000Y-58224721D01*
X132552953Y-57812244D01*
X132392012Y-57423698D01*
X132158363Y-57074017D01*
X131860983Y-56776637D01*
X131511302Y-56542988D01*
X131122756Y-56382047D01*
X130710279Y-56300000D01*
X130289721Y-56300000D01*
X129877244Y-56382047D01*
X129488698Y-56542988D01*
X129139017Y-56776637D01*
X128841637Y-57074017D01*
X128607988Y-57423698D01*
X128447047Y-57812244D01*
X128365000Y-58224721D01*
X127635000Y-58224721D01*
X127552953Y-57812244D01*
X127392012Y-57423698D01*
X127158363Y-57074017D01*
X126860983Y-56776637D01*
X126511302Y-56542988D01*
X126122756Y-56382047D01*
X125710279Y-56300000D01*
X125289721Y-56300000D01*
X124877244Y-56382047D01*
X124488698Y-56542988D01*
X124139017Y-56776637D01*
X123841637Y-57074017D01*
X123607988Y-57423698D01*
X123447047Y-57812244D01*
X123365000Y-58224721D01*
X112635000Y-58224721D01*
X112552953Y-57812244D01*
X112392012Y-57423698D01*
X112158363Y-57074017D01*
X111860983Y-56776637D01*
X111511302Y-56542988D01*
X111122756Y-56382047D01*
X110710279Y-56300000D01*
X110289721Y-56300000D01*
X109877244Y-56382047D01*
X109488698Y-56542988D01*
X109139017Y-56776637D01*
X108841637Y-57074017D01*
X108607988Y-57423698D01*
X108447047Y-57812244D01*
X108365000Y-58224721D01*
X99104040Y-58224721D01*
X99190548Y-58161088D01*
X99550849Y-57497118D01*
X99774694Y-56775615D01*
X99853480Y-56024305D01*
X99822682Y-55690000D01*
X154941928Y-55690000D01*
X154945000Y-56204250D01*
X155103750Y-56363000D01*
X156253000Y-56363000D01*
X156253000Y-55213750D01*
X156507000Y-55213750D01*
X156507000Y-56363000D01*
X157656250Y-56363000D01*
X157815000Y-56204250D01*
X157818072Y-55690000D01*
X157805812Y-55565518D01*
X157769502Y-55445820D01*
X157710537Y-55335506D01*
X157631185Y-55238815D01*
X157534494Y-55159463D01*
X157424180Y-55100498D01*
X157304482Y-55064188D01*
X157180000Y-55051928D01*
X156665750Y-55055000D01*
X156507000Y-55213750D01*
X156253000Y-55213750D01*
X156094250Y-55055000D01*
X155580000Y-55051928D01*
X155455518Y-55064188D01*
X155335820Y-55100498D01*
X155225506Y-55159463D01*
X155128815Y-55238815D01*
X155049463Y-55335506D01*
X154990498Y-55445820D01*
X154954188Y-55565518D01*
X154941928Y-55690000D01*
X99822682Y-55690000D01*
X99784178Y-55272062D01*
X99569452Y-54547792D01*
X99217555Y-53879330D01*
X99190548Y-53838912D01*
X98700881Y-53478724D01*
X96179605Y-56000000D01*
X95820395Y-56000000D01*
X93299119Y-53478724D01*
X93127000Y-53605331D01*
X93127000Y-53127000D01*
X93605331Y-53127000D01*
X93478724Y-53299119D01*
G37*
X93478724Y-53299119D02*
X96000000Y-55820395D01*
X98521276Y-53299119D01*
X98394669Y-53127000D01*
X172873000Y-53127000D01*
X172873000Y-55782316D01*
X172734637Y-55575241D01*
X172534759Y-55375363D01*
X172299727Y-55218320D01*
X172038574Y-55110147D01*
X171761335Y-55055000D01*
X171478665Y-55055000D01*
X171201426Y-55110147D01*
X170940273Y-55218320D01*
X170705241Y-55375363D01*
X170505363Y-55575241D01*
X170348320Y-55810273D01*
X170240147Y-56071426D01*
X170185000Y-56348665D01*
X170185000Y-56631335D01*
X170240147Y-56908574D01*
X170348320Y-57169727D01*
X170505363Y-57404759D01*
X170705241Y-57604637D01*
X170939128Y-57760915D01*
X170878486Y-57793329D01*
X170806903Y-58037298D01*
X171620000Y-58850395D01*
X172433097Y-58037298D01*
X172361514Y-57793329D01*
X172297008Y-57762806D01*
X172299727Y-57761680D01*
X172534759Y-57604637D01*
X172734637Y-57404759D01*
X172873000Y-57197684D01*
X172873000Y-58319036D01*
X172856671Y-58288486D01*
X172612702Y-58216903D01*
X171799605Y-59030000D01*
X172612702Y-59843097D01*
X172856671Y-59771514D01*
X172873000Y-59737004D01*
X172873000Y-60862316D01*
X172734637Y-60655241D01*
X172534759Y-60455363D01*
X172300872Y-60299085D01*
X172361514Y-60266671D01*
X172433097Y-60022702D01*
X171620000Y-59209605D01*
X170806903Y-60022702D01*
X170878486Y-60266671D01*
X170942992Y-60297194D01*
X170940273Y-60298320D01*
X170705241Y-60455363D01*
X170505363Y-60655241D01*
X170485479Y-60685000D01*
X169367046Y-60685000D01*
X169268942Y-60604488D01*
X169117567Y-60523577D01*
X168953316Y-60473752D01*
X168782500Y-60456928D01*
X168207500Y-60456928D01*
X168036684Y-60473752D01*
X167872433Y-60523577D01*
X167721058Y-60604488D01*
X167697161Y-60624099D01*
X167624494Y-60564463D01*
X167514180Y-60505498D01*
X167394482Y-60469188D01*
X167270000Y-60456928D01*
X167030750Y-60460000D01*
X166872000Y-60618750D01*
X166872000Y-61443000D01*
X166892000Y-61443000D01*
X166892000Y-61697000D01*
X166872000Y-61697000D01*
X166872000Y-62521250D01*
X167030750Y-62680000D01*
X167270000Y-62683072D01*
X167394482Y-62670812D01*
X167514180Y-62634502D01*
X167624494Y-62575537D01*
X167697161Y-62515901D01*
X167721058Y-62535512D01*
X167872433Y-62616423D01*
X168036684Y-62666248D01*
X168207500Y-62683072D01*
X168782500Y-62683072D01*
X168953316Y-62666248D01*
X169117567Y-62616423D01*
X169268942Y-62535512D01*
X169367046Y-62455000D01*
X170485479Y-62455000D01*
X170505363Y-62484759D01*
X170705241Y-62684637D01*
X170937759Y-62840000D01*
X170705241Y-62995363D01*
X170505363Y-63195241D01*
X170348320Y-63430273D01*
X170240147Y-63691426D01*
X170185000Y-63968665D01*
X170185000Y-64251335D01*
X170240147Y-64528574D01*
X170348320Y-64789727D01*
X170505363Y-65024759D01*
X170705241Y-65224637D01*
X170937759Y-65380000D01*
X170705241Y-65535363D01*
X170505363Y-65735241D01*
X170348320Y-65970273D01*
X170240147Y-66231426D01*
X170185000Y-66508665D01*
X170185000Y-66791335D01*
X170240147Y-67068574D01*
X170348320Y-67329727D01*
X170505363Y-67564759D01*
X170705241Y-67764637D01*
X170937759Y-67920000D01*
X170705241Y-68075363D01*
X170505363Y-68275241D01*
X170348320Y-68510273D01*
X170240147Y-68771426D01*
X170185000Y-69048665D01*
X170185000Y-69331335D01*
X170240147Y-69608574D01*
X170348320Y-69869727D01*
X170505363Y-70104759D01*
X170705241Y-70304637D01*
X170937759Y-70460000D01*
X170705241Y-70615363D01*
X170505363Y-70815241D01*
X170348320Y-71050273D01*
X170240147Y-71311426D01*
X170185000Y-71588665D01*
X170185000Y-71871335D01*
X170240147Y-72148574D01*
X170348320Y-72409727D01*
X170505363Y-72644759D01*
X170705241Y-72844637D01*
X170937759Y-73000000D01*
X170705241Y-73155363D01*
X170505363Y-73355241D01*
X170348320Y-73590273D01*
X170240147Y-73851426D01*
X170185000Y-74128665D01*
X170185000Y-74411335D01*
X170240147Y-74688574D01*
X170348320Y-74949727D01*
X170505363Y-75184759D01*
X170705241Y-75384637D01*
X170937759Y-75540000D01*
X170705241Y-75695363D01*
X170505363Y-75895241D01*
X170348320Y-76130273D01*
X170240147Y-76391426D01*
X170185000Y-76668665D01*
X170185000Y-76951335D01*
X170240147Y-77228574D01*
X170348320Y-77489727D01*
X170505363Y-77724759D01*
X170705241Y-77924637D01*
X170937759Y-78080000D01*
X170705241Y-78235363D01*
X170505363Y-78435241D01*
X170348320Y-78670273D01*
X170240147Y-78931426D01*
X170185000Y-79208665D01*
X170185000Y-79491335D01*
X170240147Y-79768574D01*
X170348320Y-80029727D01*
X170505363Y-80264759D01*
X170705241Y-80464637D01*
X170937759Y-80620000D01*
X170705241Y-80775363D01*
X170505363Y-80975241D01*
X170348320Y-81210273D01*
X170240147Y-81471426D01*
X170185000Y-81748665D01*
X170185000Y-82031335D01*
X170240147Y-82308574D01*
X170348320Y-82569727D01*
X170505363Y-82804759D01*
X170705241Y-83004637D01*
X170937759Y-83160000D01*
X170705241Y-83315363D01*
X170505363Y-83515241D01*
X170348320Y-83750273D01*
X170240147Y-84011426D01*
X170185000Y-84288665D01*
X170185000Y-84571335D01*
X170240147Y-84848574D01*
X170348320Y-85109727D01*
X170505363Y-85344759D01*
X170705241Y-85544637D01*
X170937759Y-85700000D01*
X170705241Y-85855363D01*
X170505363Y-86055241D01*
X170348320Y-86290273D01*
X170240147Y-86551426D01*
X170185000Y-86828665D01*
X170185000Y-87111335D01*
X170240147Y-87388574D01*
X170348320Y-87649727D01*
X170505363Y-87884759D01*
X170705241Y-88084637D01*
X170937759Y-88240000D01*
X170705241Y-88395363D01*
X170505363Y-88595241D01*
X170348320Y-88830273D01*
X170240147Y-89091426D01*
X170185000Y-89368665D01*
X170185000Y-89651335D01*
X170240147Y-89928574D01*
X170348320Y-90189727D01*
X170505363Y-90424759D01*
X170705241Y-90624637D01*
X170940273Y-90781680D01*
X171201426Y-90889853D01*
X171478665Y-90945000D01*
X171761335Y-90945000D01*
X172038574Y-90889853D01*
X172299727Y-90781680D01*
X172534759Y-90624637D01*
X172734637Y-90424759D01*
X172873000Y-90217684D01*
X172873000Y-113998000D01*
X98302722Y-113998000D01*
X98521276Y-113700881D01*
X96000000Y-111179605D01*
X93478724Y-113700881D01*
X93697278Y-113998000D01*
X93127000Y-113998000D01*
X93127000Y-113394669D01*
X93299119Y-113521276D01*
X95820395Y-111000000D01*
X96179605Y-111000000D01*
X98700881Y-113521276D01*
X99190548Y-113161088D01*
X99550849Y-112497118D01*
X99774694Y-111775615D01*
X99825647Y-111289721D01*
X156430000Y-111289721D01*
X156430000Y-111710279D01*
X156512047Y-112122756D01*
X156672988Y-112511302D01*
X156906637Y-112860983D01*
X157204017Y-113158363D01*
X157553698Y-113392012D01*
X157942244Y-113552953D01*
X158354721Y-113635000D01*
X158775279Y-113635000D01*
X159187756Y-113552953D01*
X159576302Y-113392012D01*
X159925983Y-113158363D01*
X160223363Y-112860983D01*
X160457012Y-112511302D01*
X160617953Y-112122756D01*
X160700000Y-111710279D01*
X160700000Y-111289721D01*
X160617953Y-110877244D01*
X160457012Y-110488698D01*
X160223363Y-110139017D01*
X159925983Y-109841637D01*
X159576302Y-109607988D01*
X159187756Y-109447047D01*
X158775279Y-109365000D01*
X158354721Y-109365000D01*
X157942244Y-109447047D01*
X157553698Y-109607988D01*
X157204017Y-109841637D01*
X156906637Y-110139017D01*
X156672988Y-110488698D01*
X156512047Y-110877244D01*
X156430000Y-111289721D01*
X99825647Y-111289721D01*
X99853480Y-111024305D01*
X99784178Y-110272062D01*
X99569452Y-109547792D01*
X99217555Y-108879330D01*
X99190548Y-108838912D01*
X98700881Y-108478724D01*
X96179605Y-111000000D01*
X95820395Y-111000000D01*
X93299119Y-108478724D01*
X93127000Y-108605331D01*
X93127000Y-108299119D01*
X93478724Y-108299119D01*
X96000000Y-110820395D01*
X98465674Y-108354721D01*
X110365000Y-108354721D01*
X110365000Y-108775279D01*
X110447047Y-109187756D01*
X110607988Y-109576302D01*
X110841637Y-109925983D01*
X111139017Y-110223363D01*
X111488698Y-110457012D01*
X111877244Y-110617953D01*
X112289721Y-110700000D01*
X112710279Y-110700000D01*
X113122756Y-110617953D01*
X113511302Y-110457012D01*
X113860983Y-110223363D01*
X114158363Y-109925983D01*
X114392012Y-109576302D01*
X114552953Y-109187756D01*
X114635000Y-108775279D01*
X114635000Y-108354721D01*
X125365000Y-108354721D01*
X125365000Y-108775279D01*
X125447047Y-109187756D01*
X125607988Y-109576302D01*
X125841637Y-109925983D01*
X126139017Y-110223363D01*
X126488698Y-110457012D01*
X126877244Y-110617953D01*
X127289721Y-110700000D01*
X127710279Y-110700000D01*
X128122756Y-110617953D01*
X128511302Y-110457012D01*
X128860983Y-110223363D01*
X129158363Y-109925983D01*
X129387735Y-109582702D01*
X152921903Y-109582702D01*
X152993486Y-109826671D01*
X153248996Y-109947571D01*
X153523184Y-110016300D01*
X153805512Y-110030217D01*
X154085130Y-109988787D01*
X154351292Y-109893603D01*
X154476514Y-109826671D01*
X154548097Y-109582702D01*
X153735000Y-108769605D01*
X152921903Y-109582702D01*
X129387735Y-109582702D01*
X129392012Y-109576302D01*
X129552953Y-109187756D01*
X129635000Y-108775279D01*
X129635000Y-108660512D01*
X152294783Y-108660512D01*
X152336213Y-108940130D01*
X152431397Y-109206292D01*
X152498329Y-109331514D01*
X152742298Y-109403097D01*
X153555395Y-108590000D01*
X152742298Y-107776903D01*
X152498329Y-107848486D01*
X152377429Y-108103996D01*
X152308700Y-108378184D01*
X152294783Y-108660512D01*
X129635000Y-108660512D01*
X129635000Y-108354721D01*
X129552953Y-107942244D01*
X129392012Y-107553698D01*
X129384665Y-107542702D01*
X152921903Y-107542702D01*
X152929913Y-107570000D01*
X152921903Y-107597298D01*
X152944574Y-107619969D01*
X152993486Y-107786671D01*
X153217069Y-107892464D01*
X153735000Y-108410395D01*
X154258668Y-107886727D01*
X154351292Y-107853603D01*
X154476514Y-107786671D01*
X154525426Y-107619969D01*
X154548097Y-107597298D01*
X154540087Y-107570000D01*
X154548097Y-107542702D01*
X154525426Y-107520031D01*
X154476514Y-107353329D01*
X154252931Y-107247536D01*
X153735000Y-106729605D01*
X153211332Y-107253273D01*
X153118708Y-107286397D01*
X152993486Y-107353329D01*
X152944574Y-107520031D01*
X152921903Y-107542702D01*
X129384665Y-107542702D01*
X129158363Y-107204017D01*
X128860983Y-106906637D01*
X128511302Y-106672988D01*
X128384614Y-106620512D01*
X152294783Y-106620512D01*
X152336213Y-106900130D01*
X152431397Y-107166292D01*
X152498329Y-107291514D01*
X152742298Y-107363097D01*
X153555395Y-106550000D01*
X152742298Y-105736903D01*
X152498329Y-105808486D01*
X152377429Y-106063996D01*
X152308700Y-106338184D01*
X152294783Y-106620512D01*
X128384614Y-106620512D01*
X128122756Y-106512047D01*
X127710279Y-106430000D01*
X127289721Y-106430000D01*
X126877244Y-106512047D01*
X126488698Y-106672988D01*
X126139017Y-106906637D01*
X125841637Y-107204017D01*
X125607988Y-107553698D01*
X125447047Y-107942244D01*
X125365000Y-108354721D01*
X114635000Y-108354721D01*
X114552953Y-107942244D01*
X114392012Y-107553698D01*
X114158363Y-107204017D01*
X113860983Y-106906637D01*
X113511302Y-106672988D01*
X113122756Y-106512047D01*
X112710279Y-106430000D01*
X112289721Y-106430000D01*
X111877244Y-106512047D01*
X111488698Y-106672988D01*
X111139017Y-106906637D01*
X110841637Y-107204017D01*
X110607988Y-107553698D01*
X110447047Y-107942244D01*
X110365000Y-108354721D01*
X98465674Y-108354721D01*
X98521276Y-108299119D01*
X98161088Y-107809452D01*
X97497118Y-107449151D01*
X96775615Y-107225306D01*
X96024305Y-107146520D01*
X95272062Y-107215822D01*
X94547792Y-107430548D01*
X93879330Y-107782445D01*
X93838912Y-107809452D01*
X93478724Y-108299119D01*
X93127000Y-108299119D01*
X93127000Y-104515098D01*
X96615000Y-104515098D01*
X96615000Y-104984902D01*
X96706654Y-105445679D01*
X96886440Y-105879721D01*
X97147450Y-106270349D01*
X97479651Y-106602550D01*
X97870279Y-106863560D01*
X98304321Y-107043346D01*
X98765098Y-107135000D01*
X99234902Y-107135000D01*
X99695679Y-107043346D01*
X100129721Y-106863560D01*
X100520349Y-106602550D01*
X100852550Y-106270349D01*
X101113560Y-105879721D01*
X101293346Y-105445679D01*
X101385000Y-104984902D01*
X101385000Y-104727702D01*
X114596903Y-104727702D01*
X114668486Y-104971671D01*
X114923996Y-105092571D01*
X115198184Y-105161300D01*
X115480512Y-105175217D01*
X115492105Y-105173499D01*
X115315363Y-105350241D01*
X115158320Y-105585273D01*
X115050147Y-105846426D01*
X114995000Y-106123665D01*
X114995000Y-106406335D01*
X115050147Y-106683574D01*
X115158320Y-106944727D01*
X115315363Y-107179759D01*
X115515241Y-107379637D01*
X115750273Y-107536680D01*
X116011426Y-107644853D01*
X116288665Y-107700000D01*
X116571335Y-107700000D01*
X116848574Y-107644853D01*
X117109727Y-107536680D01*
X117344759Y-107379637D01*
X117450000Y-107274396D01*
X117555241Y-107379637D01*
X117790273Y-107536680D01*
X118051426Y-107644853D01*
X118328665Y-107700000D01*
X118611335Y-107700000D01*
X118888574Y-107644853D01*
X119149727Y-107536680D01*
X119384759Y-107379637D01*
X119490000Y-107274396D01*
X119595241Y-107379637D01*
X119830273Y-107536680D01*
X120091426Y-107644853D01*
X120368665Y-107700000D01*
X120651335Y-107700000D01*
X120928574Y-107644853D01*
X121189727Y-107536680D01*
X121424759Y-107379637D01*
X121530000Y-107274396D01*
X121635241Y-107379637D01*
X121870273Y-107536680D01*
X122131426Y-107644853D01*
X122408665Y-107700000D01*
X122691335Y-107700000D01*
X122968574Y-107644853D01*
X123229727Y-107536680D01*
X123464759Y-107379637D01*
X123664637Y-107179759D01*
X123821680Y-106944727D01*
X123929853Y-106683574D01*
X123985000Y-106406335D01*
X123985000Y-106123665D01*
X123948688Y-105941114D01*
X124387100Y-105502702D01*
X152921903Y-105502702D01*
X152929913Y-105530000D01*
X152921903Y-105557298D01*
X152944574Y-105579969D01*
X152993486Y-105746671D01*
X153217069Y-105852464D01*
X153735000Y-106370395D01*
X154258668Y-105846727D01*
X154351292Y-105813603D01*
X154476514Y-105746671D01*
X154525426Y-105579969D01*
X154548097Y-105557298D01*
X154540087Y-105530000D01*
X154548097Y-105502702D01*
X154525426Y-105480031D01*
X154476514Y-105313329D01*
X154252931Y-105207536D01*
X153735000Y-104689605D01*
X153211332Y-105213273D01*
X153118708Y-105246397D01*
X152993486Y-105313329D01*
X152944574Y-105480031D01*
X152921903Y-105502702D01*
X124387100Y-105502702D01*
X125309290Y-104580512D01*
X152294783Y-104580512D01*
X152336213Y-104860130D01*
X152431397Y-105126292D01*
X152498329Y-105251514D01*
X152742298Y-105323097D01*
X153555395Y-104510000D01*
X152742298Y-103696903D01*
X152498329Y-103768486D01*
X152377429Y-104023996D01*
X152308700Y-104298184D01*
X152294783Y-104580512D01*
X125309290Y-104580512D01*
X125636003Y-104253799D01*
X125665001Y-104230001D01*
X125722556Y-104159870D01*
X125759974Y-104114277D01*
X125830546Y-103982247D01*
X125874003Y-103838986D01*
X125885000Y-103727333D01*
X125885000Y-103727323D01*
X125888676Y-103690000D01*
X125885000Y-103652677D01*
X125885000Y-103462702D01*
X152921903Y-103462702D01*
X152929913Y-103490000D01*
X152921903Y-103517298D01*
X152944574Y-103539969D01*
X152993486Y-103706671D01*
X153217069Y-103812464D01*
X153735000Y-104330395D01*
X154258668Y-103806727D01*
X154351292Y-103773603D01*
X154476514Y-103706671D01*
X154525426Y-103539969D01*
X154548097Y-103517298D01*
X154540087Y-103490000D01*
X154548097Y-103462702D01*
X154525426Y-103440031D01*
X154476514Y-103273329D01*
X154252931Y-103167536D01*
X153735000Y-102649605D01*
X153211332Y-103173273D01*
X153118708Y-103206397D01*
X152993486Y-103273329D01*
X152944574Y-103440031D01*
X152921903Y-103462702D01*
X125885000Y-103462702D01*
X125885000Y-102540512D01*
X152294783Y-102540512D01*
X152336213Y-102820130D01*
X152431397Y-103086292D01*
X152498329Y-103211514D01*
X152742298Y-103283097D01*
X153555395Y-102470000D01*
X152742298Y-101656903D01*
X152498329Y-101728486D01*
X152377429Y-101983996D01*
X152308700Y-102258184D01*
X152294783Y-102540512D01*
X125885000Y-102540512D01*
X125885000Y-101270881D01*
X136598724Y-101270881D01*
X136958912Y-101760548D01*
X137622882Y-102120849D01*
X138344385Y-102344694D01*
X139095695Y-102423480D01*
X139847938Y-102354178D01*
X140572208Y-102139452D01*
X141240670Y-101787555D01*
X141281088Y-101760548D01*
X141489440Y-101477298D01*
X152921903Y-101477298D01*
X153735000Y-102290395D01*
X154548097Y-101477298D01*
X154476514Y-101233329D01*
X154221004Y-101112429D01*
X153946816Y-101043700D01*
X153664488Y-101029783D01*
X153384870Y-101071213D01*
X153118708Y-101166397D01*
X152993486Y-101233329D01*
X152921903Y-101477298D01*
X141489440Y-101477298D01*
X141641276Y-101270881D01*
X139120000Y-98749605D01*
X136598724Y-101270881D01*
X125885000Y-101270881D01*
X125885000Y-98545695D01*
X135266520Y-98545695D01*
X135335822Y-99297938D01*
X135550548Y-100022208D01*
X135902445Y-100690670D01*
X135929452Y-100731088D01*
X136419119Y-101091276D01*
X138940395Y-98570000D01*
X139299605Y-98570000D01*
X141820881Y-101091276D01*
X142310548Y-100731088D01*
X142670849Y-100067118D01*
X142894694Y-99345615D01*
X142973480Y-98594305D01*
X142904178Y-97842062D01*
X142689452Y-97117792D01*
X142337555Y-96449330D01*
X142310548Y-96408912D01*
X141820881Y-96048724D01*
X139299605Y-98570000D01*
X138940395Y-98570000D01*
X136419119Y-96048724D01*
X135929452Y-96408912D01*
X135569151Y-97072882D01*
X135345306Y-97794385D01*
X135266520Y-98545695D01*
X125885000Y-98545695D01*
X125885000Y-97097964D01*
X125898942Y-97090512D01*
X126000000Y-97007575D01*
X126101058Y-97090512D01*
X126252433Y-97171423D01*
X126416684Y-97221248D01*
X126587500Y-97238072D01*
X127162500Y-97238072D01*
X127333316Y-97221248D01*
X127497567Y-97171423D01*
X127648942Y-97090512D01*
X127781623Y-96981623D01*
X127890512Y-96848942D01*
X127971423Y-96697567D01*
X128021248Y-96533316D01*
X128038072Y-96362500D01*
X128038072Y-95887500D01*
X128036262Y-95869119D01*
X136598724Y-95869119D01*
X139120000Y-98390395D01*
X141641276Y-95869119D01*
X141281088Y-95379452D01*
X140617118Y-95019151D01*
X139895615Y-94795306D01*
X139144305Y-94716520D01*
X138392062Y-94785822D01*
X137667792Y-95000548D01*
X136999330Y-95352445D01*
X136958912Y-95379452D01*
X136598724Y-95869119D01*
X128036262Y-95869119D01*
X128021248Y-95716684D01*
X127971423Y-95552433D01*
X127890512Y-95401058D01*
X127781623Y-95268377D01*
X127648942Y-95159488D01*
X127635000Y-95152036D01*
X127635000Y-92814801D01*
X130511008Y-89938795D01*
X130540001Y-89915001D01*
X130563795Y-89886008D01*
X130563799Y-89886004D01*
X130634973Y-89799277D01*
X130634974Y-89799276D01*
X130705546Y-89667247D01*
X130749003Y-89523986D01*
X130760000Y-89412333D01*
X130760000Y-89412324D01*
X130763676Y-89375001D01*
X130760000Y-89337678D01*
X130760000Y-85078711D01*
X130803937Y-85034774D01*
X130917205Y-84865256D01*
X130995226Y-84676898D01*
X131035000Y-84476939D01*
X131035000Y-84273061D01*
X130995226Y-84073102D01*
X130943977Y-83949377D01*
X131123063Y-83984999D01*
X131185201Y-83984999D01*
X143961204Y-96761003D01*
X143985002Y-96790001D01*
X144100727Y-96884974D01*
X144232756Y-96955546D01*
X144376017Y-96999003D01*
X144487670Y-97010000D01*
X144487678Y-97010000D01*
X144525003Y-97013676D01*
X144562328Y-97010000D01*
X147027036Y-97010000D01*
X147034488Y-97023942D01*
X147117425Y-97125000D01*
X147034488Y-97226058D01*
X146953577Y-97377433D01*
X146903752Y-97541684D01*
X146886928Y-97712500D01*
X146886928Y-98287500D01*
X146903752Y-98458316D01*
X146953577Y-98622567D01*
X147034488Y-98773942D01*
X147143377Y-98906623D01*
X147276058Y-99015512D01*
X147427433Y-99096423D01*
X147591684Y-99146248D01*
X147762500Y-99163072D01*
X148237500Y-99163072D01*
X148408316Y-99146248D01*
X148572567Y-99096423D01*
X148723942Y-99015512D01*
X148856623Y-98906623D01*
X148965512Y-98773942D01*
X148972964Y-98760000D01*
X152500199Y-98760000D01*
X154866312Y-101126114D01*
X154830000Y-101308665D01*
X154830000Y-101591335D01*
X154850191Y-101692843D01*
X154727702Y-101656903D01*
X153914605Y-102470000D01*
X154727702Y-103283097D01*
X154850191Y-103247157D01*
X154830000Y-103348665D01*
X154830000Y-103631335D01*
X154850191Y-103732843D01*
X154727702Y-103696903D01*
X153914605Y-104510000D01*
X154727702Y-105323097D01*
X154850191Y-105287157D01*
X154830000Y-105388665D01*
X154830000Y-105671335D01*
X154850191Y-105772843D01*
X154727702Y-105736903D01*
X153914605Y-106550000D01*
X154727702Y-107363097D01*
X154850191Y-107327157D01*
X154830000Y-107428665D01*
X154830000Y-107711335D01*
X154850191Y-107812843D01*
X154727702Y-107776903D01*
X153914605Y-108590000D01*
X154727702Y-109403097D01*
X154971671Y-109331514D01*
X155092571Y-109076004D01*
X155161300Y-108801816D01*
X155175217Y-108519488D01*
X155173499Y-108507895D01*
X155350241Y-108684637D01*
X155585273Y-108841680D01*
X155846426Y-108949853D01*
X156123665Y-109005000D01*
X156406335Y-109005000D01*
X156683574Y-108949853D01*
X156944727Y-108841680D01*
X157179759Y-108684637D01*
X157379637Y-108484759D01*
X157536680Y-108249727D01*
X157644853Y-107988574D01*
X157700000Y-107711335D01*
X157700000Y-107428665D01*
X157644853Y-107151426D01*
X157536680Y-106890273D01*
X157379637Y-106655241D01*
X157274396Y-106550000D01*
X157379637Y-106444759D01*
X157536680Y-106209727D01*
X157644853Y-105948574D01*
X157700000Y-105671335D01*
X157700000Y-105388665D01*
X157644853Y-105111426D01*
X157536680Y-104850273D01*
X157379637Y-104615241D01*
X157274396Y-104510000D01*
X157379637Y-104404759D01*
X157536680Y-104169727D01*
X157644853Y-103908574D01*
X157700000Y-103631335D01*
X157700000Y-103348665D01*
X157644853Y-103071426D01*
X157536680Y-102810273D01*
X157379637Y-102575241D01*
X157274396Y-102470000D01*
X157379637Y-102364759D01*
X157536680Y-102129727D01*
X157644853Y-101868574D01*
X157700000Y-101591335D01*
X157700000Y-101308665D01*
X157644853Y-101031426D01*
X157536680Y-100770273D01*
X157379637Y-100535241D01*
X157179759Y-100335363D01*
X156944727Y-100178320D01*
X156683574Y-100070147D01*
X156406335Y-100015000D01*
X156123665Y-100015000D01*
X155941114Y-100051312D01*
X153378804Y-97489003D01*
X153355001Y-97459999D01*
X153239276Y-97365026D01*
X153107247Y-97294454D01*
X152963986Y-97250997D01*
X152852333Y-97240000D01*
X152852322Y-97240000D01*
X152815000Y-97236324D01*
X152777678Y-97240000D01*
X148972964Y-97240000D01*
X148965512Y-97226058D01*
X148882575Y-97125000D01*
X148965512Y-97023942D01*
X149046423Y-96872567D01*
X149096248Y-96708316D01*
X149113072Y-96537500D01*
X149113072Y-96289721D01*
X156430000Y-96289721D01*
X156430000Y-96710279D01*
X156512047Y-97122756D01*
X156672988Y-97511302D01*
X156906637Y-97860983D01*
X157204017Y-98158363D01*
X157553698Y-98392012D01*
X157942244Y-98552953D01*
X158354721Y-98635000D01*
X158775279Y-98635000D01*
X159187756Y-98552953D01*
X159576302Y-98392012D01*
X159925983Y-98158363D01*
X160223363Y-97860983D01*
X160457012Y-97511302D01*
X160617953Y-97122756D01*
X160700000Y-96710279D01*
X160700000Y-96289721D01*
X160617953Y-95877244D01*
X160457012Y-95488698D01*
X160223363Y-95139017D01*
X159925983Y-94841637D01*
X159576302Y-94607988D01*
X159187756Y-94447047D01*
X158775279Y-94365000D01*
X158354721Y-94365000D01*
X157942244Y-94447047D01*
X157553698Y-94607988D01*
X157204017Y-94841637D01*
X156906637Y-95139017D01*
X156672988Y-95488698D01*
X156512047Y-95877244D01*
X156430000Y-96289721D01*
X149113072Y-96289721D01*
X149113072Y-95962500D01*
X149096248Y-95791684D01*
X149046423Y-95627433D01*
X148965512Y-95476058D01*
X148856623Y-95343377D01*
X148723942Y-95234488D01*
X148572567Y-95153577D01*
X148408316Y-95103752D01*
X148237500Y-95086928D01*
X147762500Y-95086928D01*
X147591684Y-95103752D01*
X147427433Y-95153577D01*
X147276058Y-95234488D01*
X147143377Y-95343377D01*
X147034488Y-95476058D01*
X147027036Y-95490000D01*
X144839805Y-95490000D01*
X132260002Y-82910198D01*
X132260002Y-82848060D01*
X132220228Y-82648101D01*
X132142207Y-82459743D01*
X132028939Y-82290225D01*
X131884776Y-82146062D01*
X131715258Y-82032794D01*
X131526900Y-81954773D01*
X131326941Y-81914999D01*
X131123063Y-81914999D01*
X130923104Y-81954773D01*
X130734746Y-82032794D01*
X130565228Y-82146062D01*
X130421065Y-82290225D01*
X130307797Y-82459743D01*
X130229776Y-82648101D01*
X130190002Y-82848060D01*
X130190002Y-83051938D01*
X130229776Y-83251897D01*
X130281025Y-83375622D01*
X130101939Y-83340000D01*
X129898061Y-83340000D01*
X129698102Y-83379774D01*
X129509744Y-83457795D01*
X129340226Y-83571063D01*
X129196063Y-83715226D01*
X129082795Y-83884744D01*
X129004774Y-84073102D01*
X128965000Y-84273061D01*
X128965000Y-84476939D01*
X129004774Y-84676898D01*
X129082795Y-84865256D01*
X129196063Y-85034774D01*
X129240000Y-85078711D01*
X129240001Y-89060196D01*
X126364003Y-91936196D01*
X126334999Y-91959999D01*
X126279871Y-92027174D01*
X126240026Y-92075724D01*
X126192306Y-92165001D01*
X126169454Y-92207754D01*
X126125997Y-92351015D01*
X126115000Y-92462668D01*
X126115000Y-92462678D01*
X126111324Y-92500000D01*
X126115000Y-92537323D01*
X126115001Y-95152036D01*
X126101058Y-95159488D01*
X126000000Y-95242425D01*
X125898942Y-95159488D01*
X125747567Y-95078577D01*
X125583316Y-95028752D01*
X125412500Y-95011928D01*
X124837500Y-95011928D01*
X124666684Y-95028752D01*
X124502433Y-95078577D01*
X124351058Y-95159488D01*
X124218377Y-95268377D01*
X124109488Y-95401058D01*
X124028577Y-95552433D01*
X123978752Y-95716684D01*
X123961928Y-95887500D01*
X123961928Y-96362500D01*
X123978752Y-96533316D01*
X124028577Y-96697567D01*
X124109488Y-96848942D01*
X124218377Y-96981623D01*
X124351058Y-97090512D01*
X124365000Y-97097964D01*
X124365001Y-103375197D01*
X122873886Y-104866312D01*
X122691335Y-104830000D01*
X122408665Y-104830000D01*
X122307157Y-104850191D01*
X122343097Y-104727702D01*
X121530000Y-103914605D01*
X120716903Y-104727702D01*
X120752843Y-104850191D01*
X120651335Y-104830000D01*
X120368665Y-104830000D01*
X120267157Y-104850191D01*
X120303097Y-104727702D01*
X119490000Y-103914605D01*
X118676903Y-104727702D01*
X118712843Y-104850191D01*
X118611335Y-104830000D01*
X118328665Y-104830000D01*
X118227157Y-104850191D01*
X118263097Y-104727702D01*
X117450000Y-103914605D01*
X116636903Y-104727702D01*
X116672843Y-104850191D01*
X116571335Y-104830000D01*
X116288665Y-104830000D01*
X116187157Y-104850191D01*
X116223097Y-104727702D01*
X115410000Y-103914605D01*
X114596903Y-104727702D01*
X101385000Y-104727702D01*
X101385000Y-104515098D01*
X101293346Y-104054321D01*
X101190286Y-103805512D01*
X113969783Y-103805512D01*
X114011213Y-104085130D01*
X114106397Y-104351292D01*
X114173329Y-104476514D01*
X114417298Y-104548097D01*
X115230395Y-103735000D01*
X115589605Y-103735000D01*
X116113273Y-104258668D01*
X116146397Y-104351292D01*
X116213329Y-104476514D01*
X116380031Y-104525426D01*
X116402702Y-104548097D01*
X116430000Y-104540087D01*
X116457298Y-104548097D01*
X116479969Y-104525426D01*
X116646671Y-104476514D01*
X116752464Y-104252931D01*
X117270395Y-103735000D01*
X117629605Y-103735000D01*
X118153273Y-104258668D01*
X118186397Y-104351292D01*
X118253329Y-104476514D01*
X118420031Y-104525426D01*
X118442702Y-104548097D01*
X118470000Y-104540087D01*
X118497298Y-104548097D01*
X118519969Y-104525426D01*
X118686671Y-104476514D01*
X118792464Y-104252931D01*
X119310395Y-103735000D01*
X119669605Y-103735000D01*
X120193273Y-104258668D01*
X120226397Y-104351292D01*
X120293329Y-104476514D01*
X120460031Y-104525426D01*
X120482702Y-104548097D01*
X120510000Y-104540087D01*
X120537298Y-104548097D01*
X120559969Y-104525426D01*
X120726671Y-104476514D01*
X120832464Y-104252931D01*
X121350395Y-103735000D01*
X121709605Y-103735000D01*
X122522702Y-104548097D01*
X122766671Y-104476514D01*
X122887571Y-104221004D01*
X122956300Y-103946816D01*
X122970217Y-103664488D01*
X122928787Y-103384870D01*
X122833603Y-103118708D01*
X122766671Y-102993486D01*
X122522702Y-102921903D01*
X121709605Y-103735000D01*
X121350395Y-103735000D01*
X120826727Y-103211332D01*
X120793603Y-103118708D01*
X120726671Y-102993486D01*
X120559969Y-102944574D01*
X120537298Y-102921903D01*
X120510000Y-102929913D01*
X120482702Y-102921903D01*
X120460031Y-102944574D01*
X120293329Y-102993486D01*
X120187536Y-103217069D01*
X119669605Y-103735000D01*
X119310395Y-103735000D01*
X118786727Y-103211332D01*
X118753603Y-103118708D01*
X118686671Y-102993486D01*
X118519969Y-102944574D01*
X118497298Y-102921903D01*
X118470000Y-102929913D01*
X118442702Y-102921903D01*
X118420031Y-102944574D01*
X118253329Y-102993486D01*
X118147536Y-103217069D01*
X117629605Y-103735000D01*
X117270395Y-103735000D01*
X116746727Y-103211332D01*
X116713603Y-103118708D01*
X116646671Y-102993486D01*
X116479969Y-102944574D01*
X116457298Y-102921903D01*
X116430000Y-102929913D01*
X116402702Y-102921903D01*
X116380031Y-102944574D01*
X116213329Y-102993486D01*
X116107536Y-103217069D01*
X115589605Y-103735000D01*
X115230395Y-103735000D01*
X114417298Y-102921903D01*
X114173329Y-102993486D01*
X114052429Y-103248996D01*
X113983700Y-103523184D01*
X113969783Y-103805512D01*
X101190286Y-103805512D01*
X101113560Y-103620279D01*
X100852550Y-103229651D01*
X100520349Y-102897450D01*
X100129721Y-102636440D01*
X99879537Y-102532810D01*
X100036898Y-102545759D01*
X100484070Y-102494449D01*
X100912639Y-102356885D01*
X101244777Y-102179354D01*
X101418830Y-101848435D01*
X100000000Y-100429605D01*
X98581170Y-101848435D01*
X98755223Y-102179354D01*
X99116388Y-102365000D01*
X98765098Y-102365000D01*
X98304321Y-102456654D01*
X97870279Y-102636440D01*
X97479651Y-102897450D01*
X97147450Y-103229651D01*
X96886440Y-103620279D01*
X96706654Y-104054321D01*
X96615000Y-104515098D01*
X93127000Y-104515098D01*
X93127000Y-100108665D01*
X95565000Y-100108665D01*
X95565000Y-100391335D01*
X95620147Y-100668574D01*
X95728320Y-100929727D01*
X95885363Y-101164759D01*
X96085241Y-101364637D01*
X96320273Y-101521680D01*
X96581426Y-101629853D01*
X96858665Y-101685000D01*
X97141335Y-101685000D01*
X97418574Y-101629853D01*
X97679727Y-101521680D01*
X97914759Y-101364637D01*
X97971015Y-101308381D01*
X98070646Y-101494777D01*
X98401565Y-101668830D01*
X99820395Y-100250000D01*
X100179605Y-100250000D01*
X101598435Y-101668830D01*
X101929354Y-101494777D01*
X102135125Y-101094460D01*
X102258846Y-100661692D01*
X102295759Y-100213102D01*
X102244449Y-99765930D01*
X102106885Y-99337361D01*
X101929354Y-99005223D01*
X101598435Y-98831170D01*
X100179605Y-100250000D01*
X99820395Y-100250000D01*
X98401565Y-98831170D01*
X98070646Y-99005223D01*
X97973538Y-99194142D01*
X97914759Y-99135363D01*
X97679727Y-98978320D01*
X97418574Y-98870147D01*
X97141335Y-98815000D01*
X96858665Y-98815000D01*
X96581426Y-98870147D01*
X96320273Y-98978320D01*
X96085241Y-99135363D01*
X95885363Y-99335241D01*
X95728320Y-99570273D01*
X95620147Y-99831426D01*
X95565000Y-100108665D01*
X93127000Y-100108665D01*
X93127000Y-95515098D01*
X96615000Y-95515098D01*
X96615000Y-95984902D01*
X96706654Y-96445679D01*
X96886440Y-96879721D01*
X97147450Y-97270349D01*
X97479651Y-97602550D01*
X97870279Y-97863560D01*
X98304321Y-98043346D01*
X98765098Y-98135000D01*
X99112643Y-98135000D01*
X99087361Y-98143115D01*
X98755223Y-98320646D01*
X98581170Y-98651565D01*
X100000000Y-100070395D01*
X101418830Y-98651565D01*
X101244777Y-98320646D01*
X100844460Y-98114875D01*
X100411692Y-97991154D01*
X99963102Y-97954241D01*
X99890757Y-97962542D01*
X100129721Y-97863560D01*
X100520349Y-97602550D01*
X100852550Y-97270349D01*
X101113560Y-96879721D01*
X101293346Y-96445679D01*
X101385000Y-95984902D01*
X101385000Y-95515098D01*
X101293346Y-95054321D01*
X101113560Y-94620279D01*
X100852550Y-94229651D01*
X100520349Y-93897450D01*
X100129721Y-93636440D01*
X99695679Y-93456654D01*
X99234902Y-93365000D01*
X98765098Y-93365000D01*
X98304321Y-93456654D01*
X97870279Y-93636440D01*
X97479651Y-93897450D01*
X97147450Y-94229651D01*
X96886440Y-94620279D01*
X96706654Y-95054321D01*
X96615000Y-95515098D01*
X93127000Y-95515098D01*
X93127000Y-85289721D01*
X96300000Y-85289721D01*
X96300000Y-85710279D01*
X96382047Y-86122756D01*
X96542988Y-86511302D01*
X96776637Y-86860983D01*
X97074017Y-87158363D01*
X97423698Y-87392012D01*
X97812244Y-87552953D01*
X98224721Y-87635000D01*
X98645279Y-87635000D01*
X99057756Y-87552953D01*
X99446302Y-87392012D01*
X99795983Y-87158363D01*
X100093363Y-86860983D01*
X100327012Y-86511302D01*
X100487953Y-86122756D01*
X100570000Y-85710279D01*
X100570000Y-85289721D01*
X100487953Y-84877244D01*
X100327012Y-84488698D01*
X100093363Y-84139017D01*
X99795983Y-83841637D01*
X99446302Y-83607988D01*
X99057756Y-83447047D01*
X98645279Y-83365000D01*
X98224721Y-83365000D01*
X97812244Y-83447047D01*
X97423698Y-83607988D01*
X97074017Y-83841637D01*
X96776637Y-84139017D01*
X96542988Y-84488698D01*
X96382047Y-84877244D01*
X96300000Y-85289721D01*
X93127000Y-85289721D01*
X93127000Y-74288665D01*
X99300000Y-74288665D01*
X99300000Y-74571335D01*
X99355147Y-74848574D01*
X99463320Y-75109727D01*
X99620363Y-75344759D01*
X99725604Y-75450000D01*
X99620363Y-75555241D01*
X99463320Y-75790273D01*
X99355147Y-76051426D01*
X99300000Y-76328665D01*
X99300000Y-76611335D01*
X99355147Y-76888574D01*
X99463320Y-77149727D01*
X99620363Y-77384759D01*
X99725604Y-77490000D01*
X99620363Y-77595241D01*
X99463320Y-77830273D01*
X99355147Y-78091426D01*
X99300000Y-78368665D01*
X99300000Y-78651335D01*
X99355147Y-78928574D01*
X99463320Y-79189727D01*
X99620363Y-79424759D01*
X99725604Y-79530000D01*
X99620363Y-79635241D01*
X99463320Y-79870273D01*
X99355147Y-80131426D01*
X99300000Y-80408665D01*
X99300000Y-80691335D01*
X99355147Y-80968574D01*
X99463320Y-81229727D01*
X99620363Y-81464759D01*
X99820241Y-81664637D01*
X100055273Y-81821680D01*
X100316426Y-81929853D01*
X100593665Y-81985000D01*
X100876335Y-81985000D01*
X101058886Y-81948688D01*
X101446200Y-82336002D01*
X101469998Y-82365000D01*
X101498996Y-82388798D01*
X101585722Y-82459973D01*
X101708731Y-82525723D01*
X101717752Y-82530545D01*
X101861013Y-82574002D01*
X101972666Y-82584999D01*
X101972676Y-82584999D01*
X102009999Y-82588675D01*
X102047322Y-82584999D01*
X108002038Y-82584999D01*
X108009490Y-82598941D01*
X108118379Y-82731622D01*
X108251060Y-82840511D01*
X108402435Y-82921422D01*
X108566686Y-82971247D01*
X108737502Y-82988071D01*
X109212502Y-82988071D01*
X109383318Y-82971247D01*
X109547569Y-82921422D01*
X109698944Y-82840511D01*
X109831625Y-82731622D01*
X109940514Y-82598941D01*
X110021425Y-82447566D01*
X110071250Y-82283315D01*
X110088074Y-82112499D01*
X110088074Y-81537499D01*
X110071250Y-81366683D01*
X110021425Y-81202432D01*
X109940514Y-81051057D01*
X109857577Y-80949999D01*
X109940514Y-80848941D01*
X109947966Y-80834999D01*
X112062680Y-80834999D01*
X112100002Y-80838675D01*
X112137324Y-80834999D01*
X112137335Y-80834999D01*
X112248988Y-80824002D01*
X112392249Y-80780545D01*
X112524278Y-80709973D01*
X112640003Y-80615000D01*
X112663806Y-80585996D01*
X119039804Y-74209999D01*
X122006445Y-74209999D01*
X121840226Y-74321063D01*
X121696063Y-74465226D01*
X121582795Y-74634744D01*
X121504774Y-74823102D01*
X121465000Y-75023061D01*
X121465000Y-75085198D01*
X105488998Y-91061201D01*
X105460000Y-91084999D01*
X105436202Y-91113997D01*
X105436201Y-91113998D01*
X105365026Y-91200724D01*
X105294454Y-91332754D01*
X105250998Y-91476015D01*
X105236324Y-91625000D01*
X105240001Y-91662332D01*
X105240000Y-97611928D01*
X104000000Y-97611928D01*
X103875518Y-97624188D01*
X103755820Y-97660498D01*
X103645506Y-97719463D01*
X103548815Y-97798815D01*
X103469463Y-97895506D01*
X103410498Y-98005820D01*
X103374188Y-98125518D01*
X103361928Y-98250000D01*
X103361928Y-102250000D01*
X103374188Y-102374482D01*
X103410498Y-102494180D01*
X103469463Y-102604494D01*
X103548815Y-102701185D01*
X103645506Y-102780537D01*
X103755820Y-102839502D01*
X103875518Y-102875812D01*
X104000000Y-102888072D01*
X108000000Y-102888072D01*
X108124482Y-102875812D01*
X108244180Y-102839502D01*
X108354494Y-102780537D01*
X108401088Y-102742298D01*
X114596903Y-102742298D01*
X115410000Y-103555395D01*
X116223097Y-102742298D01*
X116636903Y-102742298D01*
X117450000Y-103555395D01*
X118263097Y-102742298D01*
X118676903Y-102742298D01*
X119490000Y-103555395D01*
X120303097Y-102742298D01*
X120716903Y-102742298D01*
X121530000Y-103555395D01*
X122343097Y-102742298D01*
X122271514Y-102498329D01*
X122016004Y-102377429D01*
X121741816Y-102308700D01*
X121459488Y-102294783D01*
X121179870Y-102336213D01*
X120913708Y-102431397D01*
X120788486Y-102498329D01*
X120716903Y-102742298D01*
X120303097Y-102742298D01*
X120231514Y-102498329D01*
X119976004Y-102377429D01*
X119701816Y-102308700D01*
X119419488Y-102294783D01*
X119139870Y-102336213D01*
X118873708Y-102431397D01*
X118748486Y-102498329D01*
X118676903Y-102742298D01*
X118263097Y-102742298D01*
X118191514Y-102498329D01*
X117936004Y-102377429D01*
X117661816Y-102308700D01*
X117379488Y-102294783D01*
X117099870Y-102336213D01*
X116833708Y-102431397D01*
X116708486Y-102498329D01*
X116636903Y-102742298D01*
X116223097Y-102742298D01*
X116151514Y-102498329D01*
X115896004Y-102377429D01*
X115621816Y-102308700D01*
X115339488Y-102294783D01*
X115059870Y-102336213D01*
X114793708Y-102431397D01*
X114668486Y-102498329D01*
X114596903Y-102742298D01*
X108401088Y-102742298D01*
X108451185Y-102701185D01*
X108530537Y-102604494D01*
X108589502Y-102494180D01*
X108625812Y-102374482D01*
X108638072Y-102250000D01*
X108638072Y-98250000D01*
X108625812Y-98125518D01*
X108589502Y-98005820D01*
X108530537Y-97895506D01*
X108451185Y-97798815D01*
X108354494Y-97719463D01*
X108244180Y-97660498D01*
X108124482Y-97624188D01*
X108000000Y-97611928D01*
X106760000Y-97611928D01*
X106760000Y-91939801D01*
X122539802Y-76160000D01*
X122601939Y-76160000D01*
X122801898Y-76120226D01*
X122990256Y-76042205D01*
X123159774Y-75928937D01*
X123303937Y-75784774D01*
X123417205Y-75615256D01*
X123495226Y-75426898D01*
X123535000Y-75226939D01*
X123535000Y-75023061D01*
X123495226Y-74823102D01*
X123417205Y-74634744D01*
X123303937Y-74465226D01*
X123159774Y-74321063D01*
X122993555Y-74209999D01*
X127521291Y-74209999D01*
X127565228Y-74253936D01*
X127734746Y-74367204D01*
X127923104Y-74445225D01*
X128123063Y-74484999D01*
X128326941Y-74484999D01*
X128526900Y-74445225D01*
X128715258Y-74367204D01*
X128884776Y-74253936D01*
X129028939Y-74109773D01*
X129142207Y-73940255D01*
X129220228Y-73751897D01*
X129260002Y-73551938D01*
X129260002Y-73348060D01*
X129220228Y-73148101D01*
X129142207Y-72959743D01*
X129106493Y-72906293D01*
X129161207Y-72961007D01*
X129185001Y-72990000D01*
X129213994Y-73013794D01*
X129213998Y-73013798D01*
X129258290Y-73050147D01*
X129300726Y-73084973D01*
X129432755Y-73155545D01*
X129576016Y-73199002D01*
X129687669Y-73209999D01*
X129687678Y-73209999D01*
X129725001Y-73213675D01*
X129762324Y-73209999D01*
X130021291Y-73209999D01*
X130065228Y-73253936D01*
X130234746Y-73367204D01*
X130423104Y-73445225D01*
X130623063Y-73484999D01*
X130826941Y-73484999D01*
X131026900Y-73445225D01*
X131096281Y-73416486D01*
X131090001Y-73448059D01*
X131090001Y-73651937D01*
X131129775Y-73851896D01*
X131207796Y-74040254D01*
X131321064Y-74209772D01*
X131465227Y-74353935D01*
X131634745Y-74467203D01*
X131823103Y-74545224D01*
X132023062Y-74584998D01*
X132226940Y-74584998D01*
X132426899Y-74545224D01*
X132615257Y-74467203D01*
X132784775Y-74353935D01*
X132928938Y-74209772D01*
X133042206Y-74040254D01*
X133120227Y-73851896D01*
X133160001Y-73651937D01*
X133160001Y-73589800D01*
X133486006Y-73263795D01*
X133515003Y-73239998D01*
X133549319Y-73198184D01*
X133609976Y-73124274D01*
X133680548Y-72992244D01*
X133701250Y-72923996D01*
X133724005Y-72848983D01*
X133735002Y-72737330D01*
X133735002Y-72737320D01*
X133738678Y-72699997D01*
X133735002Y-72662674D01*
X133735002Y-71810919D01*
X133831625Y-71731622D01*
X133940514Y-71598941D01*
X134021425Y-71447566D01*
X134071250Y-71283315D01*
X134088074Y-71112499D01*
X134088074Y-70537499D01*
X134071250Y-70366683D01*
X134021425Y-70202432D01*
X133940514Y-70051057D01*
X133857577Y-69949999D01*
X133940514Y-69848941D01*
X134021425Y-69697566D01*
X134071250Y-69533315D01*
X134088074Y-69362499D01*
X134088074Y-68787499D01*
X134071250Y-68616683D01*
X134021425Y-68452432D01*
X133940514Y-68301057D01*
X133831625Y-68168376D01*
X133735002Y-68089079D01*
X133735002Y-64257702D01*
X135656903Y-64257702D01*
X135728486Y-64501671D01*
X135983996Y-64622571D01*
X136258184Y-64691300D01*
X136540512Y-64705217D01*
X136820130Y-64663787D01*
X137086292Y-64568603D01*
X137211514Y-64501671D01*
X137283097Y-64257702D01*
X137696903Y-64257702D01*
X137768486Y-64501671D01*
X138023996Y-64622571D01*
X138298184Y-64691300D01*
X138580512Y-64705217D01*
X138860130Y-64663787D01*
X139126292Y-64568603D01*
X139251514Y-64501671D01*
X139323097Y-64257702D01*
X139736903Y-64257702D01*
X139808486Y-64501671D01*
X140063996Y-64622571D01*
X140338184Y-64691300D01*
X140620512Y-64705217D01*
X140900130Y-64663787D01*
X141166292Y-64568603D01*
X141291514Y-64501671D01*
X141363097Y-64257702D01*
X141776903Y-64257702D01*
X141848486Y-64501671D01*
X142103996Y-64622571D01*
X142378184Y-64691300D01*
X142660512Y-64705217D01*
X142940130Y-64663787D01*
X143206292Y-64568603D01*
X143331514Y-64501671D01*
X143403097Y-64257702D01*
X142590000Y-63444605D01*
X141776903Y-64257702D01*
X141363097Y-64257702D01*
X140550000Y-63444605D01*
X139736903Y-64257702D01*
X139323097Y-64257702D01*
X138510000Y-63444605D01*
X137696903Y-64257702D01*
X137283097Y-64257702D01*
X136470000Y-63444605D01*
X135656903Y-64257702D01*
X133735002Y-64257702D01*
X133735002Y-63524799D01*
X133924289Y-63335512D01*
X135029783Y-63335512D01*
X135071213Y-63615130D01*
X135166397Y-63881292D01*
X135233329Y-64006514D01*
X135477298Y-64078097D01*
X136290395Y-63265000D01*
X136649605Y-63265000D01*
X137173273Y-63788668D01*
X137206397Y-63881292D01*
X137273329Y-64006514D01*
X137440031Y-64055426D01*
X137462702Y-64078097D01*
X137490000Y-64070087D01*
X137517298Y-64078097D01*
X137539969Y-64055426D01*
X137706671Y-64006514D01*
X137812464Y-63782931D01*
X138330395Y-63265000D01*
X138689605Y-63265000D01*
X139213273Y-63788668D01*
X139246397Y-63881292D01*
X139313329Y-64006514D01*
X139480031Y-64055426D01*
X139502702Y-64078097D01*
X139530000Y-64070087D01*
X139557298Y-64078097D01*
X139579969Y-64055426D01*
X139746671Y-64006514D01*
X139852464Y-63782931D01*
X140370395Y-63265000D01*
X140729605Y-63265000D01*
X141253273Y-63788668D01*
X141286397Y-63881292D01*
X141353329Y-64006514D01*
X141520031Y-64055426D01*
X141542702Y-64078097D01*
X141570000Y-64070087D01*
X141597298Y-64078097D01*
X141619969Y-64055426D01*
X141786671Y-64006514D01*
X141892464Y-63782931D01*
X142410395Y-63265000D01*
X142769605Y-63265000D01*
X143582702Y-64078097D01*
X143826671Y-64006514D01*
X143947571Y-63751004D01*
X144016300Y-63476816D01*
X144030217Y-63194488D01*
X143988787Y-62914870D01*
X143893603Y-62648708D01*
X143826671Y-62523486D01*
X143582702Y-62451903D01*
X142769605Y-63265000D01*
X142410395Y-63265000D01*
X141886727Y-62741332D01*
X141853603Y-62648708D01*
X141786671Y-62523486D01*
X141619969Y-62474574D01*
X141597298Y-62451903D01*
X141570000Y-62459913D01*
X141542702Y-62451903D01*
X141520031Y-62474574D01*
X141353329Y-62523486D01*
X141247536Y-62747069D01*
X140729605Y-63265000D01*
X140370395Y-63265000D01*
X139846727Y-62741332D01*
X139813603Y-62648708D01*
X139746671Y-62523486D01*
X139579969Y-62474574D01*
X139557298Y-62451903D01*
X139530000Y-62459913D01*
X139502702Y-62451903D01*
X139480031Y-62474574D01*
X139313329Y-62523486D01*
X139207536Y-62747069D01*
X138689605Y-63265000D01*
X138330395Y-63265000D01*
X137806727Y-62741332D01*
X137773603Y-62648708D01*
X137706671Y-62523486D01*
X137539969Y-62474574D01*
X137517298Y-62451903D01*
X137490000Y-62459913D01*
X137462702Y-62451903D01*
X137440031Y-62474574D01*
X137273329Y-62523486D01*
X137167536Y-62747069D01*
X136649605Y-63265000D01*
X136290395Y-63265000D01*
X135477298Y-62451903D01*
X135233329Y-62523486D01*
X135112429Y-62778996D01*
X135043700Y-63053184D01*
X135029783Y-63335512D01*
X133924289Y-63335512D01*
X135126114Y-62133688D01*
X135308665Y-62170000D01*
X135591335Y-62170000D01*
X135692843Y-62149809D01*
X135656903Y-62272298D01*
X136470000Y-63085395D01*
X137283097Y-62272298D01*
X137247157Y-62149809D01*
X137348665Y-62170000D01*
X137631335Y-62170000D01*
X137732843Y-62149809D01*
X137696903Y-62272298D01*
X138510000Y-63085395D01*
X139323097Y-62272298D01*
X139287157Y-62149809D01*
X139388665Y-62170000D01*
X139671335Y-62170000D01*
X139772843Y-62149809D01*
X139736903Y-62272298D01*
X140550000Y-63085395D01*
X141363097Y-62272298D01*
X141327157Y-62149809D01*
X141428665Y-62170000D01*
X141711335Y-62170000D01*
X141812843Y-62149809D01*
X141776903Y-62272298D01*
X142590000Y-63085395D01*
X143403097Y-62272298D01*
X143331514Y-62028329D01*
X143076004Y-61907429D01*
X142801816Y-61838700D01*
X142519488Y-61824783D01*
X142507895Y-61826501D01*
X142684637Y-61649759D01*
X142841680Y-61414727D01*
X142949853Y-61153574D01*
X143005000Y-60876335D01*
X143005000Y-60593665D01*
X142949853Y-60316426D01*
X142841680Y-60055273D01*
X142684637Y-59820241D01*
X142484759Y-59620363D01*
X142249727Y-59463320D01*
X141988574Y-59355147D01*
X141711335Y-59300000D01*
X141428665Y-59300000D01*
X141151426Y-59355147D01*
X140890273Y-59463320D01*
X140655241Y-59620363D01*
X140550000Y-59725604D01*
X140444759Y-59620363D01*
X140209727Y-59463320D01*
X139948574Y-59355147D01*
X139671335Y-59300000D01*
X139388665Y-59300000D01*
X139111426Y-59355147D01*
X138850273Y-59463320D01*
X138615241Y-59620363D01*
X138510000Y-59725604D01*
X138404759Y-59620363D01*
X138169727Y-59463320D01*
X137908574Y-59355147D01*
X137631335Y-59300000D01*
X137348665Y-59300000D01*
X137071426Y-59355147D01*
X136810273Y-59463320D01*
X136575241Y-59620363D01*
X136470000Y-59725604D01*
X136364759Y-59620363D01*
X136129727Y-59463320D01*
X135868574Y-59355147D01*
X135591335Y-59300000D01*
X135308665Y-59300000D01*
X135031426Y-59355147D01*
X134770273Y-59463320D01*
X134535241Y-59620363D01*
X134335363Y-59820241D01*
X134178320Y-60055273D01*
X134070147Y-60316426D01*
X134015000Y-60593665D01*
X134015000Y-60876335D01*
X134051312Y-61058886D01*
X132464000Y-62646199D01*
X132435002Y-62669997D01*
X132411204Y-62698995D01*
X132411203Y-62698996D01*
X132340028Y-62785722D01*
X132269456Y-62917752D01*
X132259719Y-62949853D01*
X132226000Y-63061012D01*
X132215003Y-63172665D01*
X132211326Y-63209998D01*
X132215003Y-63247330D01*
X132215002Y-68089079D01*
X132118379Y-68168376D01*
X132009490Y-68301057D01*
X131928579Y-68452432D01*
X131878754Y-68616683D01*
X131861930Y-68787499D01*
X131861930Y-69362499D01*
X131878754Y-69533315D01*
X131928579Y-69697566D01*
X132009490Y-69848941D01*
X132092427Y-69949999D01*
X132009490Y-70051057D01*
X131928579Y-70202432D01*
X131878754Y-70366683D01*
X131861930Y-70537499D01*
X131861930Y-71112499D01*
X131878754Y-71283315D01*
X131928579Y-71447566D01*
X132009490Y-71598941D01*
X132118379Y-71731622D01*
X132215002Y-71810919D01*
X132215002Y-72385195D01*
X132085199Y-72514998D01*
X132023062Y-72514998D01*
X131823103Y-72554772D01*
X131753722Y-72583511D01*
X131760002Y-72551938D01*
X131760002Y-72348060D01*
X131720228Y-72148101D01*
X131642207Y-71959743D01*
X131528939Y-71790225D01*
X131384776Y-71646062D01*
X131215258Y-71532794D01*
X131026900Y-71454773D01*
X131010002Y-71451412D01*
X131010002Y-71348060D01*
X130970228Y-71148101D01*
X130892207Y-70959743D01*
X130778939Y-70790225D01*
X130727750Y-70739036D01*
X130724005Y-70701016D01*
X130680548Y-70557755D01*
X130609976Y-70425726D01*
X130561521Y-70366683D01*
X130538801Y-70338998D01*
X130538797Y-70338994D01*
X130515003Y-70310001D01*
X130486010Y-70286207D01*
X129785000Y-69585198D01*
X129785000Y-69523061D01*
X129745226Y-69323102D01*
X129667205Y-69134744D01*
X129553937Y-68965226D01*
X129409774Y-68821063D01*
X129240256Y-68707795D01*
X129051898Y-68629774D01*
X128851939Y-68590000D01*
X128648061Y-68590000D01*
X128448102Y-68629774D01*
X128259744Y-68707795D01*
X128090226Y-68821063D01*
X127946063Y-68965226D01*
X127832795Y-69134744D01*
X127754774Y-69323102D01*
X127741191Y-69391387D01*
X126788806Y-68439002D01*
X126765003Y-68409998D01*
X126649278Y-68315025D01*
X126517249Y-68244453D01*
X126373988Y-68200996D01*
X126262335Y-68189999D01*
X126262324Y-68189999D01*
X126225002Y-68186323D01*
X126187680Y-68189999D01*
X116860920Y-68189999D01*
X116781623Y-68093376D01*
X116648942Y-67984487D01*
X116497567Y-67903576D01*
X116333316Y-67853751D01*
X116162500Y-67836927D01*
X115587500Y-67836927D01*
X115416684Y-67853751D01*
X115252433Y-67903576D01*
X115101058Y-67984487D01*
X115000000Y-68067424D01*
X114898942Y-67984487D01*
X114885000Y-67977035D01*
X114885000Y-64257702D01*
X115656903Y-64257702D01*
X115728486Y-64501671D01*
X115983996Y-64622571D01*
X116258184Y-64691300D01*
X116540512Y-64705217D01*
X116820130Y-64663787D01*
X117086292Y-64568603D01*
X117211514Y-64501671D01*
X117283097Y-64257702D01*
X117696903Y-64257702D01*
X117768486Y-64501671D01*
X118023996Y-64622571D01*
X118298184Y-64691300D01*
X118580512Y-64705217D01*
X118860130Y-64663787D01*
X119126292Y-64568603D01*
X119251514Y-64501671D01*
X119323097Y-64257702D01*
X119736903Y-64257702D01*
X119808486Y-64501671D01*
X120063996Y-64622571D01*
X120338184Y-64691300D01*
X120620512Y-64705217D01*
X120900130Y-64663787D01*
X121166292Y-64568603D01*
X121291514Y-64501671D01*
X121363097Y-64257702D01*
X121776903Y-64257702D01*
X121848486Y-64501671D01*
X122103996Y-64622571D01*
X122378184Y-64691300D01*
X122660512Y-64705217D01*
X122940130Y-64663787D01*
X123206292Y-64568603D01*
X123331514Y-64501671D01*
X123403097Y-64257702D01*
X122590000Y-63444605D01*
X121776903Y-64257702D01*
X121363097Y-64257702D01*
X120550000Y-63444605D01*
X119736903Y-64257702D01*
X119323097Y-64257702D01*
X118510000Y-63444605D01*
X117696903Y-64257702D01*
X117283097Y-64257702D01*
X116470000Y-63444605D01*
X115656903Y-64257702D01*
X114885000Y-64257702D01*
X114885000Y-63335512D01*
X115029783Y-63335512D01*
X115071213Y-63615130D01*
X115166397Y-63881292D01*
X115233329Y-64006514D01*
X115477298Y-64078097D01*
X116290395Y-63265000D01*
X116649605Y-63265000D01*
X117173273Y-63788668D01*
X117206397Y-63881292D01*
X117273329Y-64006514D01*
X117440031Y-64055426D01*
X117462702Y-64078097D01*
X117490000Y-64070087D01*
X117517298Y-64078097D01*
X117539969Y-64055426D01*
X117706671Y-64006514D01*
X117812464Y-63782931D01*
X118330395Y-63265000D01*
X118689605Y-63265000D01*
X119213273Y-63788668D01*
X119246397Y-63881292D01*
X119313329Y-64006514D01*
X119480031Y-64055426D01*
X119502702Y-64078097D01*
X119530000Y-64070087D01*
X119557298Y-64078097D01*
X119579969Y-64055426D01*
X119746671Y-64006514D01*
X119852464Y-63782931D01*
X120370395Y-63265000D01*
X120729605Y-63265000D01*
X121253273Y-63788668D01*
X121286397Y-63881292D01*
X121353329Y-64006514D01*
X121520031Y-64055426D01*
X121542702Y-64078097D01*
X121570000Y-64070087D01*
X121597298Y-64078097D01*
X121619969Y-64055426D01*
X121786671Y-64006514D01*
X121892464Y-63782931D01*
X122410395Y-63265000D01*
X122769605Y-63265000D01*
X123582702Y-64078097D01*
X123826671Y-64006514D01*
X123947571Y-63751004D01*
X124016300Y-63476816D01*
X124030217Y-63194488D01*
X123988787Y-62914870D01*
X123893603Y-62648708D01*
X123826671Y-62523486D01*
X123582702Y-62451903D01*
X122769605Y-63265000D01*
X122410395Y-63265000D01*
X121886727Y-62741332D01*
X121853603Y-62648708D01*
X121786671Y-62523486D01*
X121619969Y-62474574D01*
X121597298Y-62451903D01*
X121570000Y-62459913D01*
X121542702Y-62451903D01*
X121520031Y-62474574D01*
X121353329Y-62523486D01*
X121247536Y-62747069D01*
X120729605Y-63265000D01*
X120370395Y-63265000D01*
X119846727Y-62741332D01*
X119813603Y-62648708D01*
X119746671Y-62523486D01*
X119579969Y-62474574D01*
X119557298Y-62451903D01*
X119530000Y-62459913D01*
X119502702Y-62451903D01*
X119480031Y-62474574D01*
X119313329Y-62523486D01*
X119207536Y-62747069D01*
X118689605Y-63265000D01*
X118330395Y-63265000D01*
X117806727Y-62741332D01*
X117773603Y-62648708D01*
X117706671Y-62523486D01*
X117539969Y-62474574D01*
X117517298Y-62451903D01*
X117490000Y-62459913D01*
X117462702Y-62451903D01*
X117440031Y-62474574D01*
X117273329Y-62523486D01*
X117167536Y-62747069D01*
X116649605Y-63265000D01*
X116290395Y-63265000D01*
X115477298Y-62451903D01*
X115233329Y-62523486D01*
X115112429Y-62778996D01*
X115043700Y-63053184D01*
X115029783Y-63335512D01*
X114885000Y-63335512D01*
X114885000Y-62374801D01*
X115126114Y-62133688D01*
X115308665Y-62170000D01*
X115591335Y-62170000D01*
X115692843Y-62149809D01*
X115656903Y-62272298D01*
X116470000Y-63085395D01*
X117283097Y-62272298D01*
X117247157Y-62149809D01*
X117348665Y-62170000D01*
X117631335Y-62170000D01*
X117732843Y-62149809D01*
X117696903Y-62272298D01*
X118510000Y-63085395D01*
X119323097Y-62272298D01*
X119287157Y-62149809D01*
X119388665Y-62170000D01*
X119671335Y-62170000D01*
X119772843Y-62149809D01*
X119736903Y-62272298D01*
X120550000Y-63085395D01*
X121363097Y-62272298D01*
X121327157Y-62149809D01*
X121428665Y-62170000D01*
X121711335Y-62170000D01*
X121812843Y-62149809D01*
X121776903Y-62272298D01*
X122590000Y-63085395D01*
X123403097Y-62272298D01*
X123331514Y-62028329D01*
X123076004Y-61907429D01*
X122801816Y-61838700D01*
X122519488Y-61824783D01*
X122507895Y-61826501D01*
X122684637Y-61649759D01*
X122841680Y-61414727D01*
X122949853Y-61153574D01*
X123005000Y-60876335D01*
X123005000Y-60593665D01*
X122949853Y-60316426D01*
X122841680Y-60055273D01*
X122684637Y-59820241D01*
X122484759Y-59620363D01*
X122249727Y-59463320D01*
X121988574Y-59355147D01*
X121711335Y-59300000D01*
X121428665Y-59300000D01*
X121151426Y-59355147D01*
X120890273Y-59463320D01*
X120655241Y-59620363D01*
X120550000Y-59725604D01*
X120444759Y-59620363D01*
X120209727Y-59463320D01*
X119948574Y-59355147D01*
X119671335Y-59300000D01*
X119388665Y-59300000D01*
X119111426Y-59355147D01*
X118850273Y-59463320D01*
X118615241Y-59620363D01*
X118510000Y-59725604D01*
X118404759Y-59620363D01*
X118169727Y-59463320D01*
X117908574Y-59355147D01*
X117631335Y-59300000D01*
X117348665Y-59300000D01*
X117071426Y-59355147D01*
X116810273Y-59463320D01*
X116575241Y-59620363D01*
X116470000Y-59725604D01*
X116364759Y-59620363D01*
X116129727Y-59463320D01*
X115868574Y-59355147D01*
X115591335Y-59300000D01*
X115308665Y-59300000D01*
X115031426Y-59355147D01*
X114770273Y-59463320D01*
X114535241Y-59620363D01*
X114335363Y-59820241D01*
X114178320Y-60055273D01*
X114070147Y-60316426D01*
X114015000Y-60593665D01*
X114015000Y-60876335D01*
X114051312Y-61058886D01*
X113613998Y-61496201D01*
X113585000Y-61519999D01*
X113561202Y-61548997D01*
X113561201Y-61548998D01*
X113490026Y-61635724D01*
X113419454Y-61767754D01*
X113407398Y-61807500D01*
X113377086Y-61907429D01*
X113375998Y-61911015D01*
X113361324Y-62060000D01*
X113365001Y-62097332D01*
X113365000Y-67977035D01*
X113351058Y-67984487D01*
X113218377Y-68093376D01*
X113109488Y-68226057D01*
X113028577Y-68377432D01*
X112978752Y-68541683D01*
X112961928Y-68712499D01*
X112961928Y-69187499D01*
X112978752Y-69358315D01*
X113028577Y-69522566D01*
X113109488Y-69673941D01*
X113218377Y-69806622D01*
X113351058Y-69915511D01*
X113502433Y-69996422D01*
X113666684Y-70046247D01*
X113837500Y-70063071D01*
X114412500Y-70063071D01*
X114583316Y-70046247D01*
X114747567Y-69996422D01*
X114898942Y-69915511D01*
X115000000Y-69832574D01*
X115101058Y-69915511D01*
X115252433Y-69996422D01*
X115416684Y-70046247D01*
X115587500Y-70063071D01*
X116162500Y-70063071D01*
X116333316Y-70046247D01*
X116497567Y-69996422D01*
X116648942Y-69915511D01*
X116781623Y-69806622D01*
X116860920Y-69709999D01*
X125910201Y-69709999D01*
X128768709Y-72568509D01*
X128715258Y-72532794D01*
X128526900Y-72454773D01*
X128326941Y-72414999D01*
X128123063Y-72414999D01*
X127923104Y-72454773D01*
X127734746Y-72532794D01*
X127565228Y-72646062D01*
X127521291Y-72689999D01*
X118762325Y-72689999D01*
X118725002Y-72686323D01*
X118687679Y-72689999D01*
X118687669Y-72689999D01*
X118576016Y-72700996D01*
X118432755Y-72744453D01*
X118300726Y-72815025D01*
X118185001Y-72909998D01*
X118161203Y-72938996D01*
X111785201Y-79314999D01*
X109947966Y-79314999D01*
X109940514Y-79301057D01*
X109831625Y-79168376D01*
X109698944Y-79059487D01*
X109547569Y-78978576D01*
X109383318Y-78928751D01*
X109212502Y-78911927D01*
X108737502Y-78911927D01*
X108566686Y-78928751D01*
X108402435Y-78978576D01*
X108251060Y-79059487D01*
X108118379Y-79168376D01*
X108009490Y-79301057D01*
X107928579Y-79452432D01*
X107878754Y-79616683D01*
X107861930Y-79787499D01*
X107861930Y-80362499D01*
X107878754Y-80533315D01*
X107928579Y-80697566D01*
X108009490Y-80848941D01*
X108092427Y-80949999D01*
X108009490Y-81051057D01*
X108002038Y-81064999D01*
X102324801Y-81064999D01*
X102133688Y-80873886D01*
X102170000Y-80691335D01*
X102170000Y-80522702D01*
X102451903Y-80522702D01*
X102523486Y-80766671D01*
X102778996Y-80887571D01*
X103053184Y-80956300D01*
X103335512Y-80970217D01*
X103615130Y-80928787D01*
X103881292Y-80833603D01*
X104006514Y-80766671D01*
X104078097Y-80522702D01*
X103265000Y-79709605D01*
X102451903Y-80522702D01*
X102170000Y-80522702D01*
X102170000Y-80408665D01*
X102149809Y-80307157D01*
X102272298Y-80343097D01*
X103085395Y-79530000D01*
X103444605Y-79530000D01*
X104257702Y-80343097D01*
X104501671Y-80271514D01*
X104622571Y-80016004D01*
X104691300Y-79741816D01*
X104705217Y-79459488D01*
X104663787Y-79179870D01*
X104568603Y-78913708D01*
X104501671Y-78788486D01*
X104257702Y-78716903D01*
X103444605Y-79530000D01*
X103085395Y-79530000D01*
X102272298Y-78716903D01*
X102149809Y-78752843D01*
X102170000Y-78651335D01*
X102170000Y-78482702D01*
X102451903Y-78482702D01*
X102459913Y-78510000D01*
X102451903Y-78537298D01*
X102474574Y-78559969D01*
X102523486Y-78726671D01*
X102747069Y-78832464D01*
X103265000Y-79350395D01*
X103788668Y-78826727D01*
X103881292Y-78793603D01*
X104006514Y-78726671D01*
X104055426Y-78559969D01*
X104078097Y-78537298D01*
X104070087Y-78510000D01*
X104078097Y-78482702D01*
X104055426Y-78460031D01*
X104006514Y-78293329D01*
X103782931Y-78187536D01*
X103265000Y-77669605D01*
X102741332Y-78193273D01*
X102648708Y-78226397D01*
X102523486Y-78293329D01*
X102474574Y-78460031D01*
X102451903Y-78482702D01*
X102170000Y-78482702D01*
X102170000Y-78368665D01*
X102149809Y-78267157D01*
X102272298Y-78303097D01*
X103085395Y-77490000D01*
X103444605Y-77490000D01*
X104257702Y-78303097D01*
X104501671Y-78231514D01*
X104622571Y-77976004D01*
X104691300Y-77701816D01*
X104705217Y-77419488D01*
X104663787Y-77139870D01*
X104568603Y-76873708D01*
X104501671Y-76748486D01*
X104257702Y-76676903D01*
X103444605Y-77490000D01*
X103085395Y-77490000D01*
X102272298Y-76676903D01*
X102149809Y-76712843D01*
X102170000Y-76611335D01*
X102170000Y-76442702D01*
X102451903Y-76442702D01*
X102459913Y-76470000D01*
X102451903Y-76497298D01*
X102474574Y-76519969D01*
X102523486Y-76686671D01*
X102747069Y-76792464D01*
X103265000Y-77310395D01*
X103788668Y-76786727D01*
X103881292Y-76753603D01*
X104006514Y-76686671D01*
X104055426Y-76519969D01*
X104078097Y-76497298D01*
X104070087Y-76470000D01*
X104078097Y-76442702D01*
X104055426Y-76420031D01*
X104006514Y-76253329D01*
X103782931Y-76147536D01*
X103265000Y-75629605D01*
X102741332Y-76153273D01*
X102648708Y-76186397D01*
X102523486Y-76253329D01*
X102474574Y-76420031D01*
X102451903Y-76442702D01*
X102170000Y-76442702D01*
X102170000Y-76328665D01*
X102149809Y-76227157D01*
X102272298Y-76263097D01*
X103085395Y-75450000D01*
X103444605Y-75450000D01*
X104257702Y-76263097D01*
X104501671Y-76191514D01*
X104622571Y-75936004D01*
X104691300Y-75661816D01*
X104705217Y-75379488D01*
X104663787Y-75099870D01*
X104568603Y-74833708D01*
X104501671Y-74708486D01*
X104257702Y-74636903D01*
X103444605Y-75450000D01*
X103085395Y-75450000D01*
X102272298Y-74636903D01*
X102149809Y-74672843D01*
X102170000Y-74571335D01*
X102170000Y-74402702D01*
X102451903Y-74402702D01*
X102459913Y-74430000D01*
X102451903Y-74457298D01*
X102474574Y-74479969D01*
X102523486Y-74646671D01*
X102747069Y-74752464D01*
X103265000Y-75270395D01*
X103788668Y-74746727D01*
X103881292Y-74713603D01*
X104006514Y-74646671D01*
X104055426Y-74479969D01*
X104078097Y-74457298D01*
X104070087Y-74430000D01*
X104078097Y-74402702D01*
X104055426Y-74380031D01*
X104006514Y-74213329D01*
X103782931Y-74107536D01*
X103265000Y-73589605D01*
X102741332Y-74113273D01*
X102648708Y-74146397D01*
X102523486Y-74213329D01*
X102474574Y-74380031D01*
X102451903Y-74402702D01*
X102170000Y-74402702D01*
X102170000Y-74288665D01*
X102149809Y-74187157D01*
X102272298Y-74223097D01*
X103085395Y-73410000D01*
X103444605Y-73410000D01*
X104257702Y-74223097D01*
X104501671Y-74151514D01*
X104622571Y-73896004D01*
X104691300Y-73621816D01*
X104705217Y-73339488D01*
X104663787Y-73059870D01*
X104568603Y-72793708D01*
X104501671Y-72668486D01*
X104257702Y-72596903D01*
X103444605Y-73410000D01*
X103085395Y-73410000D01*
X102272298Y-72596903D01*
X102028329Y-72668486D01*
X101907429Y-72923996D01*
X101838700Y-73198184D01*
X101824783Y-73480512D01*
X101826501Y-73492105D01*
X101649759Y-73315363D01*
X101414727Y-73158320D01*
X101153574Y-73050147D01*
X100876335Y-72995000D01*
X100593665Y-72995000D01*
X100316426Y-73050147D01*
X100055273Y-73158320D01*
X99820241Y-73315363D01*
X99620363Y-73515241D01*
X99463320Y-73750273D01*
X99355147Y-74011426D01*
X99300000Y-74288665D01*
X93127000Y-74288665D01*
X93127000Y-70289721D01*
X96300000Y-70289721D01*
X96300000Y-70710279D01*
X96382047Y-71122756D01*
X96542988Y-71511302D01*
X96776637Y-71860983D01*
X97074017Y-72158363D01*
X97423698Y-72392012D01*
X97812244Y-72552953D01*
X98224721Y-72635000D01*
X98645279Y-72635000D01*
X99057756Y-72552953D01*
X99385256Y-72417298D01*
X102451903Y-72417298D01*
X103265000Y-73230395D01*
X104078097Y-72417298D01*
X104006514Y-72173329D01*
X103751004Y-72052429D01*
X103476816Y-71983700D01*
X103194488Y-71969783D01*
X102914870Y-72011213D01*
X102648708Y-72106397D01*
X102523486Y-72173329D01*
X102451903Y-72417298D01*
X99385256Y-72417298D01*
X99446302Y-72392012D01*
X99795983Y-72158363D01*
X100093363Y-71860983D01*
X100327012Y-71511302D01*
X100487953Y-71122756D01*
X100570000Y-70710279D01*
X100570000Y-70289721D01*
X100487953Y-69877244D01*
X100327012Y-69488698D01*
X100093363Y-69139017D01*
X99795983Y-68841637D01*
X99446302Y-68607988D01*
X99057756Y-68447047D01*
X98645279Y-68365000D01*
X98224721Y-68365000D01*
X97812244Y-68447047D01*
X97423698Y-68607988D01*
X97074017Y-68841637D01*
X96776637Y-69139017D01*
X96542988Y-69488698D01*
X96382047Y-69877244D01*
X96300000Y-70289721D01*
X93127000Y-70289721D01*
X93127000Y-58700881D01*
X93478724Y-58700881D01*
X93838912Y-59190548D01*
X94502882Y-59550849D01*
X95224385Y-59774694D01*
X95975695Y-59853480D01*
X96727938Y-59784178D01*
X97452208Y-59569452D01*
X98120670Y-59217555D01*
X98161088Y-59190548D01*
X98521276Y-58700881D01*
X96000000Y-56179605D01*
X93478724Y-58700881D01*
X93127000Y-58700881D01*
X93127000Y-58394669D01*
X93299119Y-58521276D01*
X95820395Y-56000000D01*
X96179605Y-56000000D01*
X98700881Y-58521276D01*
X99104040Y-58224721D01*
X108365000Y-58224721D01*
X108365000Y-58645279D01*
X108447047Y-59057756D01*
X108607988Y-59446302D01*
X108841637Y-59795983D01*
X109139017Y-60093363D01*
X109488698Y-60327012D01*
X109877244Y-60487953D01*
X110289721Y-60570000D01*
X110710279Y-60570000D01*
X111122756Y-60487953D01*
X111511302Y-60327012D01*
X111860983Y-60093363D01*
X112158363Y-59795983D01*
X112392012Y-59446302D01*
X112552953Y-59057756D01*
X112635000Y-58645279D01*
X112635000Y-58224721D01*
X123365000Y-58224721D01*
X123365000Y-58645279D01*
X123447047Y-59057756D01*
X123607988Y-59446302D01*
X123841637Y-59795983D01*
X124139017Y-60093363D01*
X124488698Y-60327012D01*
X124877244Y-60487953D01*
X125289721Y-60570000D01*
X125710279Y-60570000D01*
X126122756Y-60487953D01*
X126511302Y-60327012D01*
X126860983Y-60093363D01*
X127158363Y-59795983D01*
X127392012Y-59446302D01*
X127552953Y-59057756D01*
X127635000Y-58645279D01*
X127635000Y-58224721D01*
X128365000Y-58224721D01*
X128365000Y-58645279D01*
X128447047Y-59057756D01*
X128607988Y-59446302D01*
X128841637Y-59795983D01*
X129139017Y-60093363D01*
X129488698Y-60327012D01*
X129877244Y-60487953D01*
X130289721Y-60570000D01*
X130710279Y-60570000D01*
X131122756Y-60487953D01*
X131511302Y-60327012D01*
X131860983Y-60093363D01*
X132158363Y-59795983D01*
X132392012Y-59446302D01*
X132552953Y-59057756D01*
X132635000Y-58645279D01*
X132635000Y-58224721D01*
X143365000Y-58224721D01*
X143365000Y-58645279D01*
X143447047Y-59057756D01*
X143607988Y-59446302D01*
X143841637Y-59795983D01*
X144139017Y-60093363D01*
X144488698Y-60327012D01*
X144877244Y-60487953D01*
X145289721Y-60570000D01*
X145710279Y-60570000D01*
X146122756Y-60487953D01*
X146511302Y-60327012D01*
X146860983Y-60093363D01*
X147158363Y-59795983D01*
X147392012Y-59446302D01*
X147552953Y-59057756D01*
X147635000Y-58645279D01*
X147635000Y-58224721D01*
X147552953Y-57812244D01*
X147392012Y-57423698D01*
X147302678Y-57290000D01*
X154941928Y-57290000D01*
X154954188Y-57414482D01*
X154990498Y-57534180D01*
X155049463Y-57644494D01*
X155128815Y-57741185D01*
X155225506Y-57820537D01*
X155335820Y-57879502D01*
X155455518Y-57915812D01*
X155463961Y-57916643D01*
X155265363Y-58115241D01*
X155108320Y-58350273D01*
X155000147Y-58611426D01*
X154945000Y-58888665D01*
X154945000Y-59171335D01*
X155000147Y-59448574D01*
X155108320Y-59709727D01*
X155265363Y-59944759D01*
X155465241Y-60144637D01*
X155697759Y-60300000D01*
X155465241Y-60455363D01*
X155265363Y-60655241D01*
X155108320Y-60890273D01*
X155000147Y-61151426D01*
X154945000Y-61428665D01*
X154945000Y-61711335D01*
X155000147Y-61988574D01*
X155108320Y-62249727D01*
X155265363Y-62484759D01*
X155465241Y-62684637D01*
X155697759Y-62840000D01*
X155465241Y-62995363D01*
X155265363Y-63195241D01*
X155108320Y-63430273D01*
X155000147Y-63691426D01*
X154945000Y-63968665D01*
X154945000Y-64251335D01*
X155000147Y-64528574D01*
X155108320Y-64789727D01*
X155265363Y-65024759D01*
X155465241Y-65224637D01*
X155697759Y-65380000D01*
X155465241Y-65535363D01*
X155265363Y-65735241D01*
X155108320Y-65970273D01*
X155000147Y-66231426D01*
X154945000Y-66508665D01*
X154945000Y-66791335D01*
X155000147Y-67068574D01*
X155108320Y-67329727D01*
X155265363Y-67564759D01*
X155465241Y-67764637D01*
X155697759Y-67920000D01*
X155465241Y-68075363D01*
X155265363Y-68275241D01*
X155108320Y-68510273D01*
X155000147Y-68771426D01*
X154945000Y-69048665D01*
X154945000Y-69331335D01*
X155000147Y-69608574D01*
X155108320Y-69869727D01*
X155265363Y-70104759D01*
X155465241Y-70304637D01*
X155697759Y-70460000D01*
X155465241Y-70615363D01*
X155265363Y-70815241D01*
X155108320Y-71050273D01*
X155000147Y-71311426D01*
X154945000Y-71588665D01*
X154945000Y-71871335D01*
X155000147Y-72148574D01*
X155108320Y-72409727D01*
X155265363Y-72644759D01*
X155465241Y-72844637D01*
X155697759Y-73000000D01*
X155465241Y-73155363D01*
X155265363Y-73355241D01*
X155108320Y-73590273D01*
X155000147Y-73851426D01*
X154945000Y-74128665D01*
X154945000Y-74411335D01*
X155000147Y-74688574D01*
X155108320Y-74949727D01*
X155265363Y-75184759D01*
X155465241Y-75384637D01*
X155697759Y-75540000D01*
X155465241Y-75695363D01*
X155265363Y-75895241D01*
X155108320Y-76130273D01*
X155000147Y-76391426D01*
X154945000Y-76668665D01*
X154945000Y-76951335D01*
X155000147Y-77228574D01*
X155108320Y-77489727D01*
X155265363Y-77724759D01*
X155465241Y-77924637D01*
X155697759Y-78080000D01*
X155465241Y-78235363D01*
X155265363Y-78435241D01*
X155108320Y-78670273D01*
X155000147Y-78931426D01*
X154945000Y-79208665D01*
X154945000Y-79491335D01*
X155000147Y-79768574D01*
X155108320Y-80029727D01*
X155265363Y-80264759D01*
X155465241Y-80464637D01*
X155697759Y-80620000D01*
X155465241Y-80775363D01*
X155265363Y-80975241D01*
X155108320Y-81210273D01*
X155000147Y-81471426D01*
X154945000Y-81748665D01*
X154945000Y-82031335D01*
X155000147Y-82308574D01*
X155108320Y-82569727D01*
X155265363Y-82804759D01*
X155465241Y-83004637D01*
X155697759Y-83160000D01*
X155465241Y-83315363D01*
X155265363Y-83515241D01*
X155108320Y-83750273D01*
X155000147Y-84011426D01*
X154945000Y-84288665D01*
X154945000Y-84571335D01*
X155000147Y-84848574D01*
X155108320Y-85109727D01*
X155265363Y-85344759D01*
X155465241Y-85544637D01*
X155697759Y-85700000D01*
X155465241Y-85855363D01*
X155265363Y-86055241D01*
X155108320Y-86290273D01*
X155000147Y-86551426D01*
X154945000Y-86828665D01*
X154945000Y-87111335D01*
X155000147Y-87388574D01*
X155108320Y-87649727D01*
X155265363Y-87884759D01*
X155465241Y-88084637D01*
X155697759Y-88240000D01*
X155465241Y-88395363D01*
X155265363Y-88595241D01*
X155108320Y-88830273D01*
X155000147Y-89091426D01*
X154945000Y-89368665D01*
X154945000Y-89651335D01*
X155000147Y-89928574D01*
X155108320Y-90189727D01*
X155265363Y-90424759D01*
X155465241Y-90624637D01*
X155700273Y-90781680D01*
X155961426Y-90889853D01*
X156238665Y-90945000D01*
X156521335Y-90945000D01*
X156798574Y-90889853D01*
X157059727Y-90781680D01*
X157294759Y-90624637D01*
X157494637Y-90424759D01*
X157651680Y-90189727D01*
X157759853Y-89928574D01*
X157815000Y-89651335D01*
X157815000Y-89368665D01*
X157759853Y-89091426D01*
X157651680Y-88830273D01*
X157494637Y-88595241D01*
X157294759Y-88395363D01*
X157062241Y-88240000D01*
X157294759Y-88084637D01*
X157494637Y-87884759D01*
X157651680Y-87649727D01*
X157759853Y-87388574D01*
X157815000Y-87111335D01*
X157815000Y-86828665D01*
X157759853Y-86551426D01*
X157651680Y-86290273D01*
X157494637Y-86055241D01*
X157294759Y-85855363D01*
X157062241Y-85700000D01*
X157294759Y-85544637D01*
X157494637Y-85344759D01*
X157651680Y-85109727D01*
X157759853Y-84848574D01*
X157815000Y-84571335D01*
X157815000Y-84288665D01*
X157759853Y-84011426D01*
X157651680Y-83750273D01*
X157494637Y-83515241D01*
X157294759Y-83315363D01*
X157062241Y-83160000D01*
X157294759Y-83004637D01*
X157494637Y-82804759D01*
X157651680Y-82569727D01*
X157759853Y-82308574D01*
X157815000Y-82031335D01*
X157815000Y-81748665D01*
X157759853Y-81471426D01*
X157651680Y-81210273D01*
X157494637Y-80975241D01*
X157294759Y-80775363D01*
X157062241Y-80620000D01*
X157294759Y-80464637D01*
X157494637Y-80264759D01*
X157651680Y-80029727D01*
X157759853Y-79768574D01*
X157815000Y-79491335D01*
X157815000Y-79208665D01*
X157759853Y-78931426D01*
X157651680Y-78670273D01*
X157494637Y-78435241D01*
X157294759Y-78235363D01*
X157062241Y-78080000D01*
X157294759Y-77924637D01*
X157494637Y-77724759D01*
X157651680Y-77489727D01*
X157759853Y-77228574D01*
X157815000Y-76951335D01*
X157815000Y-76668665D01*
X157759853Y-76391426D01*
X157651680Y-76130273D01*
X157494637Y-75895241D01*
X157294759Y-75695363D01*
X157062241Y-75540000D01*
X157294759Y-75384637D01*
X157494637Y-75184759D01*
X157651680Y-74949727D01*
X157759853Y-74688574D01*
X157815000Y-74411335D01*
X157815000Y-74128665D01*
X157759853Y-73851426D01*
X157651680Y-73590273D01*
X157494637Y-73355241D01*
X157294759Y-73155363D01*
X157062241Y-73000000D01*
X157294759Y-72844637D01*
X157494637Y-72644759D01*
X157651680Y-72409727D01*
X157759853Y-72148574D01*
X157815000Y-71871335D01*
X157815000Y-71588665D01*
X157759853Y-71311426D01*
X157651680Y-71050273D01*
X157494637Y-70815241D01*
X157294759Y-70615363D01*
X157062241Y-70460000D01*
X157294759Y-70304637D01*
X157494637Y-70104759D01*
X157651680Y-69869727D01*
X157759853Y-69608574D01*
X157815000Y-69331335D01*
X157815000Y-69048665D01*
X157759853Y-68771426D01*
X157651680Y-68510273D01*
X157494637Y-68275241D01*
X157294759Y-68075363D01*
X157062241Y-67920000D01*
X157294759Y-67764637D01*
X157494637Y-67564759D01*
X157651680Y-67329727D01*
X157759853Y-67068574D01*
X157815000Y-66791335D01*
X157815000Y-66508665D01*
X157759853Y-66231426D01*
X157651680Y-65970273D01*
X157494637Y-65735241D01*
X157294759Y-65535363D01*
X157062241Y-65380000D01*
X157294759Y-65224637D01*
X157494637Y-65024759D01*
X157651680Y-64789727D01*
X157759853Y-64528574D01*
X157815000Y-64251335D01*
X157815000Y-63968665D01*
X157759853Y-63691426D01*
X157651680Y-63430273D01*
X157494637Y-63195241D01*
X157294759Y-62995363D01*
X157062241Y-62840000D01*
X157294759Y-62684637D01*
X157494637Y-62484759D01*
X157651680Y-62249727D01*
X157736480Y-62045000D01*
X165581928Y-62045000D01*
X165594188Y-62169482D01*
X165630498Y-62289180D01*
X165689463Y-62399494D01*
X165768815Y-62496185D01*
X165865506Y-62575537D01*
X165975820Y-62634502D01*
X166095518Y-62670812D01*
X166220000Y-62683072D01*
X166459250Y-62680000D01*
X166618000Y-62521250D01*
X166618000Y-61697000D01*
X165743750Y-61697000D01*
X165585000Y-61855750D01*
X165581928Y-62045000D01*
X157736480Y-62045000D01*
X157759853Y-61988574D01*
X157815000Y-61711335D01*
X157815000Y-61428665D01*
X157759853Y-61151426D01*
X157736481Y-61095000D01*
X165581928Y-61095000D01*
X165585000Y-61284250D01*
X165743750Y-61443000D01*
X166618000Y-61443000D01*
X166618000Y-60618750D01*
X166459250Y-60460000D01*
X166220000Y-60456928D01*
X166095518Y-60469188D01*
X165975820Y-60505498D01*
X165865506Y-60564463D01*
X165768815Y-60643815D01*
X165689463Y-60740506D01*
X165630498Y-60850820D01*
X165594188Y-60970518D01*
X165581928Y-61095000D01*
X157736481Y-61095000D01*
X157651680Y-60890273D01*
X157494637Y-60655241D01*
X157294759Y-60455363D01*
X157062241Y-60300000D01*
X157294759Y-60144637D01*
X157494637Y-59944759D01*
X157651680Y-59709727D01*
X157759853Y-59448574D01*
X157815000Y-59171335D01*
X157815000Y-59100512D01*
X170179783Y-59100512D01*
X170221213Y-59380130D01*
X170316397Y-59646292D01*
X170383329Y-59771514D01*
X170627298Y-59843097D01*
X171440395Y-59030000D01*
X170627298Y-58216903D01*
X170383329Y-58288486D01*
X170262429Y-58543996D01*
X170193700Y-58818184D01*
X170179783Y-59100512D01*
X157815000Y-59100512D01*
X157815000Y-58888665D01*
X157759853Y-58611426D01*
X157651680Y-58350273D01*
X157494637Y-58115241D01*
X157296039Y-57916643D01*
X157304482Y-57915812D01*
X157424180Y-57879502D01*
X157534494Y-57820537D01*
X157631185Y-57741185D01*
X157710537Y-57644494D01*
X157769502Y-57534180D01*
X157805812Y-57414482D01*
X157818072Y-57290000D01*
X157815000Y-56775750D01*
X157656250Y-56617000D01*
X156507000Y-56617000D01*
X156507000Y-56637000D01*
X156253000Y-56637000D01*
X156253000Y-56617000D01*
X155103750Y-56617000D01*
X154945000Y-56775750D01*
X154941928Y-57290000D01*
X147302678Y-57290000D01*
X147158363Y-57074017D01*
X146860983Y-56776637D01*
X146511302Y-56542988D01*
X146122756Y-56382047D01*
X145710279Y-56300000D01*
X145289721Y-56300000D01*
X144877244Y-56382047D01*
X144488698Y-56542988D01*
X144139017Y-56776637D01*
X143841637Y-57074017D01*
X143607988Y-57423698D01*
X143447047Y-57812244D01*
X143365000Y-58224721D01*
X132635000Y-58224721D01*
X132552953Y-57812244D01*
X132392012Y-57423698D01*
X132158363Y-57074017D01*
X131860983Y-56776637D01*
X131511302Y-56542988D01*
X131122756Y-56382047D01*
X130710279Y-56300000D01*
X130289721Y-56300000D01*
X129877244Y-56382047D01*
X129488698Y-56542988D01*
X129139017Y-56776637D01*
X128841637Y-57074017D01*
X128607988Y-57423698D01*
X128447047Y-57812244D01*
X128365000Y-58224721D01*
X127635000Y-58224721D01*
X127552953Y-57812244D01*
X127392012Y-57423698D01*
X127158363Y-57074017D01*
X126860983Y-56776637D01*
X126511302Y-56542988D01*
X126122756Y-56382047D01*
X125710279Y-56300000D01*
X125289721Y-56300000D01*
X124877244Y-56382047D01*
X124488698Y-56542988D01*
X124139017Y-56776637D01*
X123841637Y-57074017D01*
X123607988Y-57423698D01*
X123447047Y-57812244D01*
X123365000Y-58224721D01*
X112635000Y-58224721D01*
X112552953Y-57812244D01*
X112392012Y-57423698D01*
X112158363Y-57074017D01*
X111860983Y-56776637D01*
X111511302Y-56542988D01*
X111122756Y-56382047D01*
X110710279Y-56300000D01*
X110289721Y-56300000D01*
X109877244Y-56382047D01*
X109488698Y-56542988D01*
X109139017Y-56776637D01*
X108841637Y-57074017D01*
X108607988Y-57423698D01*
X108447047Y-57812244D01*
X108365000Y-58224721D01*
X99104040Y-58224721D01*
X99190548Y-58161088D01*
X99550849Y-57497118D01*
X99774694Y-56775615D01*
X99853480Y-56024305D01*
X99822682Y-55690000D01*
X154941928Y-55690000D01*
X154945000Y-56204250D01*
X155103750Y-56363000D01*
X156253000Y-56363000D01*
X156253000Y-55213750D01*
X156507000Y-55213750D01*
X156507000Y-56363000D01*
X157656250Y-56363000D01*
X157815000Y-56204250D01*
X157818072Y-55690000D01*
X157805812Y-55565518D01*
X157769502Y-55445820D01*
X157710537Y-55335506D01*
X157631185Y-55238815D01*
X157534494Y-55159463D01*
X157424180Y-55100498D01*
X157304482Y-55064188D01*
X157180000Y-55051928D01*
X156665750Y-55055000D01*
X156507000Y-55213750D01*
X156253000Y-55213750D01*
X156094250Y-55055000D01*
X155580000Y-55051928D01*
X155455518Y-55064188D01*
X155335820Y-55100498D01*
X155225506Y-55159463D01*
X155128815Y-55238815D01*
X155049463Y-55335506D01*
X154990498Y-55445820D01*
X154954188Y-55565518D01*
X154941928Y-55690000D01*
X99822682Y-55690000D01*
X99784178Y-55272062D01*
X99569452Y-54547792D01*
X99217555Y-53879330D01*
X99190548Y-53838912D01*
X98700881Y-53478724D01*
X96179605Y-56000000D01*
X95820395Y-56000000D01*
X93299119Y-53478724D01*
X93127000Y-53605331D01*
X93127000Y-53127000D01*
X93605331Y-53127000D01*
X93478724Y-53299119D01*
M02*
