G04 #@! TF.GenerationSoftware,KiCad,Pcbnew,5.1.6-c6e7f7d~87~ubuntu19.10.1*
G04 #@! TF.CreationDate,2023-03-13T14:52:07-06:00*
G04 #@! TF.ProjectId,twm,74776d2e-6b69-4636-9164-5f7063625858,rev?*
G04 #@! TF.SameCoordinates,Original*
G04 #@! TF.FileFunction,Legend,Top*
G04 #@! TF.FilePolarity,Positive*
%FSLAX46Y46*%
G04 Gerber Fmt 4.6, Leading zero omitted, Abs format (unit mm)*
G04 Created by KiCad (PCBNEW 5.1.6-c6e7f7d~87~ubuntu19.10.1) date 2023-03-13 14:52:07*
%MOMM*%
%LPD*%
G01*
G04 APERTURE LIST*
%ADD10C,0.150000*%
%ADD11C,0.010000*%
%ADD12C,0.120000*%
%ADD13C,0.100000*%
%ADD14C,6.500000*%
%ADD15C,1.700000*%
%ADD16C,3.100000*%
%ADD17R,1.700000X1.700000*%
%ADD18O,0.549999X1.500000*%
%ADD19C,3.600000*%
%ADD20C,3.400000*%
%ADD21R,4.100000X4.100000*%
G04 APERTURE END LIST*
D10*
X111642857Y-87285714D02*
X112023809Y-87285714D01*
X111785714Y-86952380D02*
X111785714Y-87809523D01*
X111833333Y-87904761D01*
X111928571Y-87952380D01*
X112023809Y-87952380D01*
X112261904Y-87285714D02*
X112452380Y-87952380D01*
X112642857Y-87476190D01*
X112833333Y-87952380D01*
X113023809Y-87285714D01*
X113404761Y-87952380D02*
X113404761Y-87285714D01*
X113404761Y-87380952D02*
X113452380Y-87333333D01*
X113547619Y-87285714D01*
X113690476Y-87285714D01*
X113785714Y-87333333D01*
X113833333Y-87428571D01*
X113833333Y-87952380D01*
X113833333Y-87428571D02*
X113880952Y-87333333D01*
X113976190Y-87285714D01*
X114119047Y-87285714D01*
X114214285Y-87333333D01*
X114261904Y-87428571D01*
X114261904Y-87952380D01*
X115166666Y-87952380D02*
X115166666Y-86952380D01*
X115166666Y-87904761D02*
X115071428Y-87952380D01*
X114880952Y-87952380D01*
X114785714Y-87904761D01*
X114738095Y-87857142D01*
X114690476Y-87761904D01*
X114690476Y-87476190D01*
X114738095Y-87380952D01*
X114785714Y-87333333D01*
X114880952Y-87285714D01*
X115071428Y-87285714D01*
X115166666Y-87333333D01*
X115642857Y-87952380D02*
X115642857Y-87285714D01*
X115642857Y-87476190D02*
X115690476Y-87380952D01*
X115738095Y-87333333D01*
X115833333Y-87285714D01*
X115928571Y-87285714D01*
X116166666Y-87285714D02*
X116404761Y-87952380D01*
X116642857Y-87285714D01*
X117785714Y-87952380D02*
X117785714Y-87285714D01*
X117785714Y-87476190D02*
X117833333Y-87380952D01*
X117880952Y-87333333D01*
X117976190Y-87285714D01*
X118071428Y-87285714D01*
X118785714Y-87904761D02*
X118690476Y-87952380D01*
X118500000Y-87952380D01*
X118404761Y-87904761D01*
X118357142Y-87809523D01*
X118357142Y-87428571D01*
X118404761Y-87333333D01*
X118500000Y-87285714D01*
X118690476Y-87285714D01*
X118785714Y-87333333D01*
X118833333Y-87428571D01*
X118833333Y-87523809D01*
X118357142Y-87619047D01*
X119166666Y-87285714D02*
X119404761Y-87952380D01*
X119642857Y-87285714D01*
X120976190Y-86952380D02*
X121071428Y-86952380D01*
X121166666Y-87000000D01*
X121214285Y-87047619D01*
X121261904Y-87142857D01*
X121309523Y-87333333D01*
X121309523Y-87571428D01*
X121261904Y-87761904D01*
X121214285Y-87857142D01*
X121166666Y-87904761D01*
X121071428Y-87952380D01*
X120976190Y-87952380D01*
X120880952Y-87904761D01*
X120833333Y-87857142D01*
X120785714Y-87761904D01*
X120738095Y-87571428D01*
X120738095Y-87333333D01*
X120785714Y-87142857D01*
X120833333Y-87047619D01*
X120880952Y-87000000D01*
X120976190Y-86952380D01*
X121928571Y-86952380D02*
X122023809Y-86952380D01*
X122119047Y-87000000D01*
X122166666Y-87047619D01*
X122214285Y-87142857D01*
X122261904Y-87333333D01*
X122261904Y-87571428D01*
X122214285Y-87761904D01*
X122166666Y-87857142D01*
X122119047Y-87904761D01*
X122023809Y-87952380D01*
X121928571Y-87952380D01*
X121833333Y-87904761D01*
X121785714Y-87857142D01*
X121738095Y-87761904D01*
X121690476Y-87571428D01*
X121690476Y-87333333D01*
X121738095Y-87142857D01*
X121785714Y-87047619D01*
X121833333Y-87000000D01*
X121928571Y-86952380D01*
D11*
G36*
X119757409Y-89483624D02*
G01*
X119777880Y-89630573D01*
X119801741Y-89858902D01*
X119824332Y-90123245D01*
X119827546Y-90166250D01*
X119850656Y-90457038D01*
X119876440Y-90743075D01*
X119899552Y-90965294D01*
X119900834Y-90976122D01*
X119936985Y-91277995D01*
X120645367Y-91763914D01*
X120909883Y-91946035D01*
X121137506Y-92104024D01*
X121307224Y-92223204D01*
X121398027Y-92288896D01*
X121405653Y-92294995D01*
X121382263Y-92353904D01*
X121303149Y-92509568D01*
X121175837Y-92748613D01*
X121007852Y-93057664D01*
X120806720Y-93423347D01*
X120579966Y-93832286D01*
X120335116Y-94271109D01*
X120079695Y-94726439D01*
X119821228Y-95184902D01*
X119567241Y-95633124D01*
X119325259Y-96057731D01*
X119102808Y-96445347D01*
X118907412Y-96782598D01*
X118746598Y-97056110D01*
X118627891Y-97252507D01*
X118558816Y-97358417D01*
X118551268Y-97367969D01*
X118489159Y-97351368D01*
X118332800Y-97288361D01*
X118102360Y-97187650D01*
X117818011Y-97057937D01*
X117645272Y-96977068D01*
X116762067Y-96559947D01*
X115896994Y-96966723D01*
X115592198Y-97108627D01*
X115328222Y-97228848D01*
X115126247Y-97317948D01*
X115007453Y-97366490D01*
X114986085Y-97372612D01*
X114940104Y-97320199D01*
X114843549Y-97176270D01*
X114708427Y-96959819D01*
X114546745Y-96689841D01*
X114454213Y-96531237D01*
X113978758Y-95708655D01*
X113670876Y-95175326D01*
X114083000Y-95175326D01*
X114116697Y-95292353D01*
X114206054Y-95482829D01*
X114333464Y-95716464D01*
X114481322Y-95962970D01*
X114632024Y-96192057D01*
X114767965Y-96373436D01*
X114802508Y-96413221D01*
X115004857Y-96577044D01*
X115248646Y-96694638D01*
X115452599Y-96736014D01*
X115585663Y-96719758D01*
X115786159Y-96675350D01*
X115928849Y-96636245D01*
X116173585Y-96554344D01*
X116409621Y-96460591D01*
X116506850Y-96415267D01*
X116638901Y-96352421D01*
X116740465Y-96331015D01*
X116855905Y-96354097D01*
X117029580Y-96424718D01*
X117100683Y-96456077D01*
X117516115Y-96617519D01*
X117867176Y-96696794D01*
X118169974Y-96687320D01*
X118440616Y-96582513D01*
X118695209Y-96375791D01*
X118949860Y-96060572D01*
X119220677Y-95630273D01*
X119251249Y-95577198D01*
X119345766Y-95382348D01*
X119399889Y-95211754D01*
X119405223Y-95138737D01*
X119363849Y-95067348D01*
X119250498Y-94966715D01*
X119054953Y-94829690D01*
X118766998Y-94649121D01*
X118376419Y-94417860D01*
X118369250Y-94413691D01*
X118045231Y-94226614D01*
X117758725Y-94063634D01*
X117527833Y-93934850D01*
X117370660Y-93850363D01*
X117305625Y-93820277D01*
X117286764Y-93878415D01*
X117271435Y-94038434D01*
X117261301Y-94275225D01*
X117258000Y-94537908D01*
X117261187Y-94893577D01*
X117282321Y-95142970D01*
X117338760Y-95306808D01*
X117447860Y-95405814D01*
X117626980Y-95460710D01*
X117893476Y-95492217D01*
X118068884Y-95505976D01*
X118346774Y-95529860D01*
X118520966Y-95554839D01*
X118614652Y-95587327D01*
X118651023Y-95633741D01*
X118655000Y-95668110D01*
X118649259Y-95702422D01*
X118622920Y-95729351D01*
X118562306Y-95749789D01*
X118453744Y-95764627D01*
X118283556Y-95774755D01*
X118038068Y-95781065D01*
X117703604Y-95784447D01*
X117266488Y-95785792D01*
X116845250Y-95786000D01*
X116318499Y-95785622D01*
X115905074Y-95783899D01*
X115591301Y-95779939D01*
X115363508Y-95772856D01*
X115208020Y-95761759D01*
X115111164Y-95745761D01*
X115059267Y-95723972D01*
X115038655Y-95695504D01*
X115035500Y-95668367D01*
X115050844Y-95609705D01*
X115112817Y-95569671D01*
X115245328Y-95541272D01*
X115472287Y-95517514D01*
X115580933Y-95508810D01*
X115898139Y-95481014D01*
X116126129Y-95441299D01*
X116278960Y-95370661D01*
X116370690Y-95250095D01*
X116415377Y-95060598D01*
X116427077Y-94783164D01*
X116419850Y-94398789D01*
X116419220Y-94375542D01*
X116400750Y-93695334D01*
X115241875Y-94365198D01*
X114844249Y-94597184D01*
X114545470Y-94777351D01*
X114332831Y-94914582D01*
X114193624Y-95017761D01*
X114115144Y-95095771D01*
X114084681Y-95157494D01*
X114083000Y-95175326D01*
X113670876Y-95175326D01*
X113564135Y-94990425D01*
X113207266Y-94371147D01*
X112905075Y-93845422D01*
X112654486Y-93407853D01*
X112452424Y-93053039D01*
X112295811Y-92775584D01*
X112235227Y-92666602D01*
X112779911Y-92666602D01*
X112790020Y-92810277D01*
X112853465Y-93036436D01*
X112959022Y-93298937D01*
X113092171Y-93572216D01*
X113238394Y-93830708D01*
X113383170Y-94048849D01*
X113511981Y-94201075D01*
X113610305Y-94261821D01*
X113614545Y-94262000D01*
X113700452Y-94231369D01*
X113876927Y-94146063D01*
X114125169Y-94015958D01*
X114426377Y-93850930D01*
X114761747Y-93660856D01*
X114790694Y-93644168D01*
X115120600Y-93452081D01*
X115409133Y-93280928D01*
X115639551Y-93140902D01*
X115795114Y-93042195D01*
X115859081Y-92994998D01*
X115859807Y-92993293D01*
X115806625Y-92943037D01*
X115667360Y-92851716D01*
X115469769Y-92734568D01*
X115241609Y-92606831D01*
X115010636Y-92483740D01*
X114804607Y-92380532D01*
X114651278Y-92312445D01*
X114585007Y-92293500D01*
X114456071Y-92337495D01*
X114305131Y-92475615D01*
X114123615Y-92717063D01*
X113978703Y-92944375D01*
X113850542Y-93148745D01*
X113763606Y-93260635D01*
X113695610Y-93297542D01*
X113624271Y-93276964D01*
X113585009Y-93253529D01*
X113569078Y-93208721D01*
X113595029Y-93110835D01*
X113668518Y-92948159D01*
X113795202Y-92708981D01*
X113980737Y-92381587D01*
X114128853Y-92127377D01*
X114346412Y-91754901D01*
X114562487Y-91381940D01*
X114760790Y-91036826D01*
X114925033Y-90747890D01*
X115028104Y-90563237D01*
X115160931Y-90328056D01*
X115253367Y-90188081D01*
X115322183Y-90125110D01*
X115384147Y-90120939D01*
X115420888Y-90136848D01*
X115476758Y-90175137D01*
X115494849Y-90228878D01*
X115469111Y-90323177D01*
X115393492Y-90483138D01*
X115289502Y-90681884D01*
X115138037Y-90989982D01*
X115058592Y-91215680D01*
X115047875Y-91378840D01*
X115102596Y-91499323D01*
X115146624Y-91543992D01*
X115238025Y-91608748D01*
X115403292Y-91714127D01*
X115615001Y-91843863D01*
X115845726Y-91981691D01*
X116068040Y-92111346D01*
X116254518Y-92216563D01*
X116377734Y-92281076D01*
X116410420Y-92293500D01*
X116418443Y-92233177D01*
X116423712Y-92064867D01*
X116426078Y-91807556D01*
X116425393Y-91480228D01*
X116421509Y-91101870D01*
X116420326Y-91021083D01*
X116419326Y-90967775D01*
X117258000Y-90967775D01*
X117260014Y-91342197D01*
X117265621Y-91668832D01*
X117274167Y-91928113D01*
X117284997Y-92100475D01*
X117297457Y-92166352D01*
X117298089Y-92166500D01*
X117366704Y-92136822D01*
X117519936Y-92056756D01*
X117732609Y-91939749D01*
X117901339Y-91844227D01*
X118182483Y-91676245D01*
X118362997Y-91536316D01*
X118450113Y-91397290D01*
X118451064Y-91232016D01*
X118373084Y-91013343D01*
X118223406Y-90714119D01*
X118209470Y-90687631D01*
X118088169Y-90453089D01*
X118021657Y-90305089D01*
X118003806Y-90218736D01*
X118028484Y-90169138D01*
X118074471Y-90139332D01*
X118124285Y-90125712D01*
X118178834Y-90148787D01*
X118248608Y-90222661D01*
X118344097Y-90361440D01*
X118475794Y-90579229D01*
X118654187Y-90890135D01*
X118721764Y-91009671D01*
X118934043Y-91383310D01*
X119160375Y-91777260D01*
X119378416Y-92152907D01*
X119565825Y-92471636D01*
X119626951Y-92574115D01*
X119787767Y-92844962D01*
X119889571Y-93028626D01*
X119939962Y-93146056D01*
X119946538Y-93218198D01*
X119916896Y-93266000D01*
X119886746Y-93290357D01*
X119805521Y-93333281D01*
X119740762Y-93302901D01*
X119660366Y-93180201D01*
X119640434Y-93144447D01*
X119491233Y-92899022D01*
X119323512Y-92661442D01*
X119162448Y-92464605D01*
X119033217Y-92341405D01*
X119018051Y-92331258D01*
X118909735Y-92317948D01*
X118729016Y-92371868D01*
X118468448Y-92496378D01*
X118120587Y-92694835D01*
X117867971Y-92850114D01*
X117620692Y-93005149D01*
X118121971Y-93292773D01*
X118411900Y-93460213D01*
X118752303Y-93658423D01*
X119084525Y-93853206D01*
X119194750Y-93918223D01*
X119442541Y-94059404D01*
X119657590Y-94172241D01*
X119811951Y-94242605D01*
X119868936Y-94259024D01*
X119963505Y-94211579D01*
X120082251Y-94088428D01*
X120131300Y-94020711D01*
X120352037Y-93651315D01*
X120538396Y-93270918D01*
X120668145Y-92926201D01*
X120690083Y-92847309D01*
X120728728Y-92641733D01*
X120714063Y-92484051D01*
X120652846Y-92329153D01*
X120558465Y-92184129D01*
X120406777Y-92005512D01*
X120224606Y-91818990D01*
X120038777Y-91650252D01*
X119876114Y-91524985D01*
X119763443Y-91468875D01*
X119753574Y-91468000D01*
X119674535Y-91438455D01*
X119666678Y-91420375D01*
X119660883Y-91336237D01*
X119650111Y-91164730D01*
X119638532Y-90973578D01*
X119576413Y-90559313D01*
X119449009Y-90207573D01*
X119266190Y-89938680D01*
X119060594Y-89783415D01*
X118884285Y-89726208D01*
X118633007Y-89680173D01*
X118338758Y-89647046D01*
X118033535Y-89628564D01*
X117749336Y-89626464D01*
X117518159Y-89642481D01*
X117372002Y-89678352D01*
X117352381Y-89690720D01*
X117318351Y-89739722D01*
X117293278Y-89833200D01*
X117275934Y-89987763D01*
X117265091Y-90220017D01*
X117259522Y-90546569D01*
X117258000Y-90967775D01*
X116419326Y-90967775D01*
X116411929Y-90573871D01*
X116401465Y-90237836D01*
X116387575Y-89997155D01*
X116368901Y-89836007D01*
X116344083Y-89738571D01*
X116311763Y-89689023D01*
X116305500Y-89684276D01*
X116184001Y-89650351D01*
X115969704Y-89634196D01*
X115695298Y-89634027D01*
X115393471Y-89648062D01*
X115096910Y-89674518D01*
X114838304Y-89711613D01*
X114650341Y-89757563D01*
X114604066Y-89777064D01*
X114410463Y-89917140D01*
X114257827Y-90121419D01*
X114138879Y-90406308D01*
X114046338Y-90788210D01*
X113987494Y-91166375D01*
X113953860Y-91352826D01*
X113905054Y-91443080D01*
X113823583Y-91467915D01*
X113816080Y-91468000D01*
X113704108Y-91507630D01*
X113534891Y-91611797D01*
X113344055Y-91758416D01*
X113334490Y-91766546D01*
X113038115Y-92069160D01*
X112851326Y-92372877D01*
X112779911Y-92666602D01*
X112235227Y-92666602D01*
X112181572Y-92570087D01*
X112106632Y-92431151D01*
X112067913Y-92353376D01*
X112061150Y-92331347D01*
X112117935Y-92291469D01*
X112260866Y-92191588D01*
X112471892Y-92044307D01*
X112732959Y-91862226D01*
X112915711Y-91734824D01*
X113748673Y-91154236D01*
X113787205Y-90787243D01*
X113810811Y-90543454D01*
X113838109Y-90233309D01*
X113863826Y-89917134D01*
X113867851Y-89864624D01*
X113909964Y-89308999D01*
X119724409Y-89308999D01*
X119757409Y-89483624D01*
G37*
X119757409Y-89483624D02*
X119777880Y-89630573D01*
X119801741Y-89858902D01*
X119824332Y-90123245D01*
X119827546Y-90166250D01*
X119850656Y-90457038D01*
X119876440Y-90743075D01*
X119899552Y-90965294D01*
X119900834Y-90976122D01*
X119936985Y-91277995D01*
X120645367Y-91763914D01*
X120909883Y-91946035D01*
X121137506Y-92104024D01*
X121307224Y-92223204D01*
X121398027Y-92288896D01*
X121405653Y-92294995D01*
X121382263Y-92353904D01*
X121303149Y-92509568D01*
X121175837Y-92748613D01*
X121007852Y-93057664D01*
X120806720Y-93423347D01*
X120579966Y-93832286D01*
X120335116Y-94271109D01*
X120079695Y-94726439D01*
X119821228Y-95184902D01*
X119567241Y-95633124D01*
X119325259Y-96057731D01*
X119102808Y-96445347D01*
X118907412Y-96782598D01*
X118746598Y-97056110D01*
X118627891Y-97252507D01*
X118558816Y-97358417D01*
X118551268Y-97367969D01*
X118489159Y-97351368D01*
X118332800Y-97288361D01*
X118102360Y-97187650D01*
X117818011Y-97057937D01*
X117645272Y-96977068D01*
X116762067Y-96559947D01*
X115896994Y-96966723D01*
X115592198Y-97108627D01*
X115328222Y-97228848D01*
X115126247Y-97317948D01*
X115007453Y-97366490D01*
X114986085Y-97372612D01*
X114940104Y-97320199D01*
X114843549Y-97176270D01*
X114708427Y-96959819D01*
X114546745Y-96689841D01*
X114454213Y-96531237D01*
X113978758Y-95708655D01*
X113670876Y-95175326D01*
X114083000Y-95175326D01*
X114116697Y-95292353D01*
X114206054Y-95482829D01*
X114333464Y-95716464D01*
X114481322Y-95962970D01*
X114632024Y-96192057D01*
X114767965Y-96373436D01*
X114802508Y-96413221D01*
X115004857Y-96577044D01*
X115248646Y-96694638D01*
X115452599Y-96736014D01*
X115585663Y-96719758D01*
X115786159Y-96675350D01*
X115928849Y-96636245D01*
X116173585Y-96554344D01*
X116409621Y-96460591D01*
X116506850Y-96415267D01*
X116638901Y-96352421D01*
X116740465Y-96331015D01*
X116855905Y-96354097D01*
X117029580Y-96424718D01*
X117100683Y-96456077D01*
X117516115Y-96617519D01*
X117867176Y-96696794D01*
X118169974Y-96687320D01*
X118440616Y-96582513D01*
X118695209Y-96375791D01*
X118949860Y-96060572D01*
X119220677Y-95630273D01*
X119251249Y-95577198D01*
X119345766Y-95382348D01*
X119399889Y-95211754D01*
X119405223Y-95138737D01*
X119363849Y-95067348D01*
X119250498Y-94966715D01*
X119054953Y-94829690D01*
X118766998Y-94649121D01*
X118376419Y-94417860D01*
X118369250Y-94413691D01*
X118045231Y-94226614D01*
X117758725Y-94063634D01*
X117527833Y-93934850D01*
X117370660Y-93850363D01*
X117305625Y-93820277D01*
X117286764Y-93878415D01*
X117271435Y-94038434D01*
X117261301Y-94275225D01*
X117258000Y-94537908D01*
X117261187Y-94893577D01*
X117282321Y-95142970D01*
X117338760Y-95306808D01*
X117447860Y-95405814D01*
X117626980Y-95460710D01*
X117893476Y-95492217D01*
X118068884Y-95505976D01*
X118346774Y-95529860D01*
X118520966Y-95554839D01*
X118614652Y-95587327D01*
X118651023Y-95633741D01*
X118655000Y-95668110D01*
X118649259Y-95702422D01*
X118622920Y-95729351D01*
X118562306Y-95749789D01*
X118453744Y-95764627D01*
X118283556Y-95774755D01*
X118038068Y-95781065D01*
X117703604Y-95784447D01*
X117266488Y-95785792D01*
X116845250Y-95786000D01*
X116318499Y-95785622D01*
X115905074Y-95783899D01*
X115591301Y-95779939D01*
X115363508Y-95772856D01*
X115208020Y-95761759D01*
X115111164Y-95745761D01*
X115059267Y-95723972D01*
X115038655Y-95695504D01*
X115035500Y-95668367D01*
X115050844Y-95609705D01*
X115112817Y-95569671D01*
X115245328Y-95541272D01*
X115472287Y-95517514D01*
X115580933Y-95508810D01*
X115898139Y-95481014D01*
X116126129Y-95441299D01*
X116278960Y-95370661D01*
X116370690Y-95250095D01*
X116415377Y-95060598D01*
X116427077Y-94783164D01*
X116419850Y-94398789D01*
X116419220Y-94375542D01*
X116400750Y-93695334D01*
X115241875Y-94365198D01*
X114844249Y-94597184D01*
X114545470Y-94777351D01*
X114332831Y-94914582D01*
X114193624Y-95017761D01*
X114115144Y-95095771D01*
X114084681Y-95157494D01*
X114083000Y-95175326D01*
X113670876Y-95175326D01*
X113564135Y-94990425D01*
X113207266Y-94371147D01*
X112905075Y-93845422D01*
X112654486Y-93407853D01*
X112452424Y-93053039D01*
X112295811Y-92775584D01*
X112235227Y-92666602D01*
X112779911Y-92666602D01*
X112790020Y-92810277D01*
X112853465Y-93036436D01*
X112959022Y-93298937D01*
X113092171Y-93572216D01*
X113238394Y-93830708D01*
X113383170Y-94048849D01*
X113511981Y-94201075D01*
X113610305Y-94261821D01*
X113614545Y-94262000D01*
X113700452Y-94231369D01*
X113876927Y-94146063D01*
X114125169Y-94015958D01*
X114426377Y-93850930D01*
X114761747Y-93660856D01*
X114790694Y-93644168D01*
X115120600Y-93452081D01*
X115409133Y-93280928D01*
X115639551Y-93140902D01*
X115795114Y-93042195D01*
X115859081Y-92994998D01*
X115859807Y-92993293D01*
X115806625Y-92943037D01*
X115667360Y-92851716D01*
X115469769Y-92734568D01*
X115241609Y-92606831D01*
X115010636Y-92483740D01*
X114804607Y-92380532D01*
X114651278Y-92312445D01*
X114585007Y-92293500D01*
X114456071Y-92337495D01*
X114305131Y-92475615D01*
X114123615Y-92717063D01*
X113978703Y-92944375D01*
X113850542Y-93148745D01*
X113763606Y-93260635D01*
X113695610Y-93297542D01*
X113624271Y-93276964D01*
X113585009Y-93253529D01*
X113569078Y-93208721D01*
X113595029Y-93110835D01*
X113668518Y-92948159D01*
X113795202Y-92708981D01*
X113980737Y-92381587D01*
X114128853Y-92127377D01*
X114346412Y-91754901D01*
X114562487Y-91381940D01*
X114760790Y-91036826D01*
X114925033Y-90747890D01*
X115028104Y-90563237D01*
X115160931Y-90328056D01*
X115253367Y-90188081D01*
X115322183Y-90125110D01*
X115384147Y-90120939D01*
X115420888Y-90136848D01*
X115476758Y-90175137D01*
X115494849Y-90228878D01*
X115469111Y-90323177D01*
X115393492Y-90483138D01*
X115289502Y-90681884D01*
X115138037Y-90989982D01*
X115058592Y-91215680D01*
X115047875Y-91378840D01*
X115102596Y-91499323D01*
X115146624Y-91543992D01*
X115238025Y-91608748D01*
X115403292Y-91714127D01*
X115615001Y-91843863D01*
X115845726Y-91981691D01*
X116068040Y-92111346D01*
X116254518Y-92216563D01*
X116377734Y-92281076D01*
X116410420Y-92293500D01*
X116418443Y-92233177D01*
X116423712Y-92064867D01*
X116426078Y-91807556D01*
X116425393Y-91480228D01*
X116421509Y-91101870D01*
X116420326Y-91021083D01*
X116419326Y-90967775D01*
X117258000Y-90967775D01*
X117260014Y-91342197D01*
X117265621Y-91668832D01*
X117274167Y-91928113D01*
X117284997Y-92100475D01*
X117297457Y-92166352D01*
X117298089Y-92166500D01*
X117366704Y-92136822D01*
X117519936Y-92056756D01*
X117732609Y-91939749D01*
X117901339Y-91844227D01*
X118182483Y-91676245D01*
X118362997Y-91536316D01*
X118450113Y-91397290D01*
X118451064Y-91232016D01*
X118373084Y-91013343D01*
X118223406Y-90714119D01*
X118209470Y-90687631D01*
X118088169Y-90453089D01*
X118021657Y-90305089D01*
X118003806Y-90218736D01*
X118028484Y-90169138D01*
X118074471Y-90139332D01*
X118124285Y-90125712D01*
X118178834Y-90148787D01*
X118248608Y-90222661D01*
X118344097Y-90361440D01*
X118475794Y-90579229D01*
X118654187Y-90890135D01*
X118721764Y-91009671D01*
X118934043Y-91383310D01*
X119160375Y-91777260D01*
X119378416Y-92152907D01*
X119565825Y-92471636D01*
X119626951Y-92574115D01*
X119787767Y-92844962D01*
X119889571Y-93028626D01*
X119939962Y-93146056D01*
X119946538Y-93218198D01*
X119916896Y-93266000D01*
X119886746Y-93290357D01*
X119805521Y-93333281D01*
X119740762Y-93302901D01*
X119660366Y-93180201D01*
X119640434Y-93144447D01*
X119491233Y-92899022D01*
X119323512Y-92661442D01*
X119162448Y-92464605D01*
X119033217Y-92341405D01*
X119018051Y-92331258D01*
X118909735Y-92317948D01*
X118729016Y-92371868D01*
X118468448Y-92496378D01*
X118120587Y-92694835D01*
X117867971Y-92850114D01*
X117620692Y-93005149D01*
X118121971Y-93292773D01*
X118411900Y-93460213D01*
X118752303Y-93658423D01*
X119084525Y-93853206D01*
X119194750Y-93918223D01*
X119442541Y-94059404D01*
X119657590Y-94172241D01*
X119811951Y-94242605D01*
X119868936Y-94259024D01*
X119963505Y-94211579D01*
X120082251Y-94088428D01*
X120131300Y-94020711D01*
X120352037Y-93651315D01*
X120538396Y-93270918D01*
X120668145Y-92926201D01*
X120690083Y-92847309D01*
X120728728Y-92641733D01*
X120714063Y-92484051D01*
X120652846Y-92329153D01*
X120558465Y-92184129D01*
X120406777Y-92005512D01*
X120224606Y-91818990D01*
X120038777Y-91650252D01*
X119876114Y-91524985D01*
X119763443Y-91468875D01*
X119753574Y-91468000D01*
X119674535Y-91438455D01*
X119666678Y-91420375D01*
X119660883Y-91336237D01*
X119650111Y-91164730D01*
X119638532Y-90973578D01*
X119576413Y-90559313D01*
X119449009Y-90207573D01*
X119266190Y-89938680D01*
X119060594Y-89783415D01*
X118884285Y-89726208D01*
X118633007Y-89680173D01*
X118338758Y-89647046D01*
X118033535Y-89628564D01*
X117749336Y-89626464D01*
X117518159Y-89642481D01*
X117372002Y-89678352D01*
X117352381Y-89690720D01*
X117318351Y-89739722D01*
X117293278Y-89833200D01*
X117275934Y-89987763D01*
X117265091Y-90220017D01*
X117259522Y-90546569D01*
X117258000Y-90967775D01*
X116419326Y-90967775D01*
X116411929Y-90573871D01*
X116401465Y-90237836D01*
X116387575Y-89997155D01*
X116368901Y-89836007D01*
X116344083Y-89738571D01*
X116311763Y-89689023D01*
X116305500Y-89684276D01*
X116184001Y-89650351D01*
X115969704Y-89634196D01*
X115695298Y-89634027D01*
X115393471Y-89648062D01*
X115096910Y-89674518D01*
X114838304Y-89711613D01*
X114650341Y-89757563D01*
X114604066Y-89777064D01*
X114410463Y-89917140D01*
X114257827Y-90121419D01*
X114138879Y-90406308D01*
X114046338Y-90788210D01*
X113987494Y-91166375D01*
X113953860Y-91352826D01*
X113905054Y-91443080D01*
X113823583Y-91467915D01*
X113816080Y-91468000D01*
X113704108Y-91507630D01*
X113534891Y-91611797D01*
X113344055Y-91758416D01*
X113334490Y-91766546D01*
X113038115Y-92069160D01*
X112851326Y-92372877D01*
X112779911Y-92666602D01*
X112235227Y-92666602D01*
X112181572Y-92570087D01*
X112106632Y-92431151D01*
X112067913Y-92353376D01*
X112061150Y-92331347D01*
X112117935Y-92291469D01*
X112260866Y-92191588D01*
X112471892Y-92044307D01*
X112732959Y-91862226D01*
X112915711Y-91734824D01*
X113748673Y-91154236D01*
X113787205Y-90787243D01*
X113810811Y-90543454D01*
X113838109Y-90233309D01*
X113863826Y-89917134D01*
X113867851Y-89864624D01*
X113909964Y-89308999D01*
X119724409Y-89308999D01*
X119757409Y-89483624D01*
D12*
X103261252Y-109960000D02*
X102738748Y-109960000D01*
X103261252Y-108540000D02*
X102738748Y-108540000D01*
X107710000Y-61738748D02*
X107710000Y-62261252D01*
X106290000Y-61738748D02*
X106290000Y-62261252D01*
X149710000Y-61738748D02*
X149710000Y-62261252D01*
X148290000Y-61738748D02*
X148290000Y-62261252D01*
X147290000Y-109876252D02*
X147290000Y-109353748D01*
X148710000Y-109876252D02*
X148710000Y-109353748D01*
X101738748Y-66290000D02*
X102261252Y-66290000D01*
X101738748Y-67710000D02*
X102261252Y-67710000D01*
X130290000Y-105261252D02*
X130290000Y-104738748D01*
X131710000Y-105261252D02*
X131710000Y-104738748D01*
D13*
G36*
X163873000Y-69063000D02*
G01*
X164127000Y-69317000D01*
X163746000Y-69571000D01*
X163492000Y-69317000D01*
X163873000Y-69063000D01*
G37*
X163873000Y-69063000D02*
X164127000Y-69317000D01*
X163746000Y-69571000D01*
X163492000Y-69317000D01*
X163873000Y-69063000D01*
G36*
X164254000Y-69444000D02*
G01*
X164508000Y-69698000D01*
X164127000Y-69952000D01*
X163873000Y-69698000D01*
X164254000Y-69444000D01*
G37*
X164254000Y-69444000D02*
X164508000Y-69698000D01*
X164127000Y-69952000D01*
X163873000Y-69698000D01*
X164254000Y-69444000D01*
G36*
X163492000Y-71349000D02*
G01*
X163746000Y-71603000D01*
X163365000Y-71857000D01*
X163111000Y-71603000D01*
X163492000Y-71349000D01*
G37*
X163492000Y-71349000D02*
X163746000Y-71603000D01*
X163365000Y-71857000D01*
X163111000Y-71603000D01*
X163492000Y-71349000D01*
G36*
X164000000Y-70968000D02*
G01*
X164254000Y-71222000D01*
X163873000Y-71476000D01*
X163619000Y-71222000D01*
X164000000Y-70968000D01*
G37*
X164000000Y-70968000D02*
X164254000Y-71222000D01*
X163873000Y-71476000D01*
X163619000Y-71222000D01*
X164000000Y-70968000D01*
G36*
X164508000Y-70587000D02*
G01*
X164762000Y-70841000D01*
X164381000Y-71095000D01*
X164127000Y-70841000D01*
X164508000Y-70587000D01*
G37*
X164508000Y-70587000D02*
X164762000Y-70841000D01*
X164381000Y-71095000D01*
X164127000Y-70841000D01*
X164508000Y-70587000D01*
G36*
X163619000Y-70587000D02*
G01*
X163873000Y-70841000D01*
X163492000Y-71095000D01*
X163238000Y-70841000D01*
X163619000Y-70587000D01*
G37*
X163619000Y-70587000D02*
X163873000Y-70841000D01*
X163492000Y-71095000D01*
X163238000Y-70841000D01*
X163619000Y-70587000D01*
G36*
X164127000Y-70206000D02*
G01*
X164381000Y-70460000D01*
X164000000Y-70714000D01*
X163746000Y-70460000D01*
X164127000Y-70206000D01*
G37*
X164127000Y-70206000D02*
X164381000Y-70460000D01*
X164000000Y-70714000D01*
X163746000Y-70460000D01*
X164127000Y-70206000D01*
G36*
X164635000Y-69825000D02*
G01*
X164889000Y-70079000D01*
X164508000Y-70333000D01*
X164254000Y-70079000D01*
X164635000Y-69825000D01*
G37*
X164635000Y-69825000D02*
X164889000Y-70079000D01*
X164508000Y-70333000D01*
X164254000Y-70079000D01*
X164635000Y-69825000D01*
D10*
X165905000Y-78715000D02*
X169080000Y-78715000D01*
X165905000Y-81255000D02*
X165905000Y-78715000D01*
X169080000Y-81255000D02*
X165905000Y-81255000D01*
X169080000Y-78715000D02*
X169080000Y-81255000D01*
X155110000Y-55220000D02*
X172890000Y-55220000D01*
X155110000Y-90780000D02*
X155110000Y-55220000D01*
X172890000Y-90780000D02*
X155110000Y-90780000D01*
X172890000Y-55220000D02*
X172890000Y-90780000D01*
X158920000Y-77318000D02*
X158920000Y-67539000D01*
X169080000Y-77318000D02*
X169080000Y-67539000D01*
X169080000Y-67539000D02*
X158920000Y-67539000D01*
X158920000Y-77318000D02*
X169080000Y-77318000D01*
X165778000Y-83668000D02*
X165778000Y-87732000D01*
X162222000Y-83668000D02*
X165778000Y-83668000D01*
X162222000Y-87732000D02*
X162222000Y-83668000D01*
X165778000Y-87732000D02*
X162222000Y-87732000D01*
X160190000Y-59792000D02*
X160190000Y-55220000D01*
X167810000Y-59792000D02*
X167810000Y-55220000D01*
X160190000Y-59792000D02*
X167810000Y-59792000D01*
X167810000Y-53950000D02*
X167810000Y-55220000D01*
X160190000Y-53950000D02*
X167810000Y-53950000D01*
X160190000Y-55220000D02*
X160190000Y-53950000D01*
D12*
X127250000Y-81500001D02*
X127250000Y-76150001D01*
X132549997Y-79849999D02*
X132549997Y-76150001D01*
X126171267Y-85885000D02*
X125828733Y-85885000D01*
X126171267Y-84865000D02*
X125828733Y-84865000D01*
X142828733Y-83810000D02*
X143171267Y-83810000D01*
X142828733Y-84830000D02*
X143171267Y-84830000D01*
X142828733Y-79560000D02*
X143171267Y-79560000D01*
X142828733Y-80580000D02*
X143171267Y-80580000D01*
X142828733Y-75490000D02*
X143171267Y-75490000D01*
X142828733Y-76510000D02*
X143171267Y-76510000D01*
X142828733Y-72490000D02*
X143171267Y-72490000D01*
X142828733Y-73510000D02*
X143171267Y-73510000D01*
X142828733Y-69490000D02*
X143171267Y-69490000D01*
X142828733Y-70510000D02*
X143171267Y-70510000D01*
X126171267Y-73510000D02*
X125828733Y-73510000D01*
X126171267Y-72490000D02*
X125828733Y-72490000D01*
X126171267Y-71510000D02*
X125828733Y-71510000D01*
X126171267Y-70490000D02*
X125828733Y-70490000D01*
X126171267Y-83635000D02*
X125828733Y-83635000D01*
X126171267Y-82615000D02*
X125828733Y-82615000D01*
X101050000Y-95140000D02*
X107110000Y-95140000D01*
X107110000Y-95140000D02*
X107110000Y-97950000D01*
X107110000Y-102550000D02*
X107110000Y-105360000D01*
X107110000Y-105360000D02*
X101050000Y-105360000D01*
X96950000Y-105360000D02*
X93890000Y-105360000D01*
X93890000Y-105360000D02*
X93890000Y-95140000D01*
X93890000Y-95140000D02*
X96950000Y-95140000D01*
X108300000Y-99250000D02*
X108300000Y-101250000D01*
X125510000Y-75828733D02*
X125510000Y-76171267D01*
X124490000Y-75828733D02*
X124490000Y-76171267D01*
X124490000Y-80171267D02*
X124490000Y-79828733D01*
X125510000Y-80171267D02*
X125510000Y-79828733D01*
D10*
X102833333Y-111257142D02*
X102785714Y-111304761D01*
X102642857Y-111352380D01*
X102547619Y-111352380D01*
X102404761Y-111304761D01*
X102309523Y-111209523D01*
X102261904Y-111114285D01*
X102214285Y-110923809D01*
X102214285Y-110780952D01*
X102261904Y-110590476D01*
X102309523Y-110495238D01*
X102404761Y-110400000D01*
X102547619Y-110352380D01*
X102642857Y-110352380D01*
X102785714Y-110400000D01*
X102833333Y-110447619D01*
X103404761Y-110780952D02*
X103309523Y-110733333D01*
X103261904Y-110685714D01*
X103214285Y-110590476D01*
X103214285Y-110542857D01*
X103261904Y-110447619D01*
X103309523Y-110400000D01*
X103404761Y-110352380D01*
X103595238Y-110352380D01*
X103690476Y-110400000D01*
X103738095Y-110447619D01*
X103785714Y-110542857D01*
X103785714Y-110590476D01*
X103738095Y-110685714D01*
X103690476Y-110733333D01*
X103595238Y-110780952D01*
X103404761Y-110780952D01*
X103309523Y-110828571D01*
X103261904Y-110876190D01*
X103214285Y-110971428D01*
X103214285Y-111161904D01*
X103261904Y-111257142D01*
X103309523Y-111304761D01*
X103404761Y-111352380D01*
X103595238Y-111352380D01*
X103690476Y-111304761D01*
X103738095Y-111257142D01*
X103785714Y-111161904D01*
X103785714Y-110971428D01*
X103738095Y-110876190D01*
X103690476Y-110828571D01*
X103595238Y-110780952D01*
X109007142Y-62166666D02*
X109054761Y-62214285D01*
X109102380Y-62357142D01*
X109102380Y-62452380D01*
X109054761Y-62595238D01*
X108959523Y-62690476D01*
X108864285Y-62738095D01*
X108673809Y-62785714D01*
X108530952Y-62785714D01*
X108340476Y-62738095D01*
X108245238Y-62690476D01*
X108150000Y-62595238D01*
X108102380Y-62452380D01*
X108102380Y-62357142D01*
X108150000Y-62214285D01*
X108197619Y-62166666D01*
X108102380Y-61261904D02*
X108102380Y-61738095D01*
X108578571Y-61785714D01*
X108530952Y-61738095D01*
X108483333Y-61642857D01*
X108483333Y-61404761D01*
X108530952Y-61309523D01*
X108578571Y-61261904D01*
X108673809Y-61214285D01*
X108911904Y-61214285D01*
X109007142Y-61261904D01*
X109054761Y-61309523D01*
X109102380Y-61404761D01*
X109102380Y-61642857D01*
X109054761Y-61738095D01*
X109007142Y-61785714D01*
X151007142Y-62166666D02*
X151054761Y-62214285D01*
X151102380Y-62357142D01*
X151102380Y-62452380D01*
X151054761Y-62595238D01*
X150959523Y-62690476D01*
X150864285Y-62738095D01*
X150673809Y-62785714D01*
X150530952Y-62785714D01*
X150340476Y-62738095D01*
X150245238Y-62690476D01*
X150150000Y-62595238D01*
X150102380Y-62452380D01*
X150102380Y-62357142D01*
X150150000Y-62214285D01*
X150197619Y-62166666D01*
X150435714Y-61309523D02*
X151102380Y-61309523D01*
X150054761Y-61547619D02*
X150769047Y-61785714D01*
X150769047Y-61166666D01*
X146707142Y-109781666D02*
X146754761Y-109829285D01*
X146802380Y-109972142D01*
X146802380Y-110067380D01*
X146754761Y-110210238D01*
X146659523Y-110305476D01*
X146564285Y-110353095D01*
X146373809Y-110400714D01*
X146230952Y-110400714D01*
X146040476Y-110353095D01*
X145945238Y-110305476D01*
X145850000Y-110210238D01*
X145802380Y-110067380D01*
X145802380Y-109972142D01*
X145850000Y-109829285D01*
X145897619Y-109781666D01*
X145802380Y-109448333D02*
X145802380Y-108829285D01*
X146183333Y-109162619D01*
X146183333Y-109019761D01*
X146230952Y-108924523D01*
X146278571Y-108876904D01*
X146373809Y-108829285D01*
X146611904Y-108829285D01*
X146707142Y-108876904D01*
X146754761Y-108924523D01*
X146802380Y-109019761D01*
X146802380Y-109305476D01*
X146754761Y-109400714D01*
X146707142Y-109448333D01*
X101833333Y-65707142D02*
X101785714Y-65754761D01*
X101642857Y-65802380D01*
X101547619Y-65802380D01*
X101404761Y-65754761D01*
X101309523Y-65659523D01*
X101261904Y-65564285D01*
X101214285Y-65373809D01*
X101214285Y-65230952D01*
X101261904Y-65040476D01*
X101309523Y-64945238D01*
X101404761Y-64850000D01*
X101547619Y-64802380D01*
X101642857Y-64802380D01*
X101785714Y-64850000D01*
X101833333Y-64897619D01*
X102214285Y-64897619D02*
X102261904Y-64850000D01*
X102357142Y-64802380D01*
X102595238Y-64802380D01*
X102690476Y-64850000D01*
X102738095Y-64897619D01*
X102785714Y-64992857D01*
X102785714Y-65088095D01*
X102738095Y-65230952D01*
X102166666Y-65802380D01*
X102785714Y-65802380D01*
X133607142Y-105166666D02*
X133654761Y-105214285D01*
X133702380Y-105357142D01*
X133702380Y-105452380D01*
X133654761Y-105595238D01*
X133559523Y-105690476D01*
X133464285Y-105738095D01*
X133273809Y-105785714D01*
X133130952Y-105785714D01*
X132940476Y-105738095D01*
X132845238Y-105690476D01*
X132750000Y-105595238D01*
X132702380Y-105452380D01*
X132702380Y-105357142D01*
X132750000Y-105214285D01*
X132797619Y-105166666D01*
X133702380Y-104214285D02*
X133702380Y-104785714D01*
X133702380Y-104500000D02*
X132702380Y-104500000D01*
X132845238Y-104595238D01*
X132940476Y-104690476D01*
X132988095Y-104785714D01*
X117666666Y-65702380D02*
X117666666Y-66416666D01*
X117619047Y-66559523D01*
X117523809Y-66654761D01*
X117380952Y-66702380D01*
X117285714Y-66702380D01*
X118619047Y-65702380D02*
X118142857Y-65702380D01*
X118095238Y-66178571D01*
X118142857Y-66130952D01*
X118238095Y-66083333D01*
X118476190Y-66083333D01*
X118571428Y-66130952D01*
X118619047Y-66178571D01*
X118666666Y-66273809D01*
X118666666Y-66511904D01*
X118619047Y-66607142D01*
X118571428Y-66654761D01*
X118476190Y-66702380D01*
X118238095Y-66702380D01*
X118142857Y-66654761D01*
X118095238Y-66607142D01*
X137916666Y-65702380D02*
X137916666Y-66416666D01*
X137869047Y-66559523D01*
X137773809Y-66654761D01*
X137630952Y-66702380D01*
X137535714Y-66702380D01*
X138821428Y-66035714D02*
X138821428Y-66702380D01*
X138583333Y-65654761D02*
X138345238Y-66369047D01*
X138964285Y-66369047D01*
X150202380Y-104333333D02*
X150916666Y-104333333D01*
X151059523Y-104380952D01*
X151154761Y-104476190D01*
X151202380Y-104619047D01*
X151202380Y-104714285D01*
X150202380Y-103952380D02*
X150202380Y-103333333D01*
X150583333Y-103666666D01*
X150583333Y-103523809D01*
X150630952Y-103428571D01*
X150678571Y-103380952D01*
X150773809Y-103333333D01*
X151011904Y-103333333D01*
X151107142Y-103380952D01*
X151154761Y-103428571D01*
X151202380Y-103523809D01*
X151202380Y-103809523D01*
X151154761Y-103904761D01*
X151107142Y-103952380D01*
X118916666Y-99952380D02*
X118916666Y-100666666D01*
X118869047Y-100809523D01*
X118773809Y-100904761D01*
X118630952Y-100952380D01*
X118535714Y-100952380D01*
X119345238Y-100047619D02*
X119392857Y-100000000D01*
X119488095Y-99952380D01*
X119726190Y-99952380D01*
X119821428Y-100000000D01*
X119869047Y-100047619D01*
X119916666Y-100142857D01*
X119916666Y-100238095D01*
X119869047Y-100380952D01*
X119297619Y-100952380D01*
X119916666Y-100952380D01*
X105952380Y-77833333D02*
X106666666Y-77833333D01*
X106809523Y-77880952D01*
X106904761Y-77976190D01*
X106952380Y-78119047D01*
X106952380Y-78214285D01*
X106952380Y-76833333D02*
X106952380Y-77404761D01*
X106952380Y-77119047D02*
X105952380Y-77119047D01*
X106095238Y-77214285D01*
X106190476Y-77309523D01*
X106238095Y-77404761D01*
X152952380Y-57261904D02*
X153761904Y-57261904D01*
X153857142Y-57214285D01*
X153904761Y-57166666D01*
X153952380Y-57071428D01*
X153952380Y-56880952D01*
X153904761Y-56785714D01*
X153857142Y-56738095D01*
X153761904Y-56690476D01*
X152952380Y-56690476D01*
X153047619Y-56261904D02*
X153000000Y-56214285D01*
X152952380Y-56119047D01*
X152952380Y-55880952D01*
X153000000Y-55785714D01*
X153047619Y-55738095D01*
X153142857Y-55690476D01*
X153238095Y-55690476D01*
X153380952Y-55738095D01*
X153952380Y-56309523D01*
X153952380Y-55690476D01*
X160916666Y-73570666D02*
X160916666Y-72870666D01*
X161150000Y-73370666D01*
X161383333Y-72870666D01*
X161383333Y-73570666D01*
X161716666Y-73570666D02*
X161716666Y-72870666D01*
X162050000Y-73570666D02*
X162050000Y-72870666D01*
X162283333Y-73370666D01*
X162516666Y-72870666D01*
X162516666Y-73570666D01*
X162783333Y-72870666D02*
X163250000Y-73570666D01*
X163250000Y-72870666D02*
X162783333Y-73570666D01*
X163916666Y-73570666D02*
X163683333Y-73237333D01*
X163516666Y-73570666D02*
X163516666Y-72870666D01*
X163783333Y-72870666D01*
X163850000Y-72904000D01*
X163883333Y-72937333D01*
X163916666Y-73004000D01*
X163916666Y-73104000D01*
X163883333Y-73170666D01*
X163850000Y-73204000D01*
X163783333Y-73237333D01*
X163516666Y-73237333D01*
X164116666Y-72870666D02*
X164516666Y-72870666D01*
X164316666Y-73570666D02*
X164316666Y-72870666D01*
X165116666Y-73570666D02*
X164716666Y-73570666D01*
X164916666Y-73570666D02*
X164916666Y-72870666D01*
X164850000Y-72970666D01*
X164783333Y-73037333D01*
X164716666Y-73070666D01*
X165550000Y-72870666D02*
X165616666Y-72870666D01*
X165683333Y-72904000D01*
X165716666Y-72937333D01*
X165750000Y-73004000D01*
X165783333Y-73137333D01*
X165783333Y-73304000D01*
X165750000Y-73437333D01*
X165716666Y-73504000D01*
X165683333Y-73537333D01*
X165616666Y-73570666D01*
X165550000Y-73570666D01*
X165483333Y-73537333D01*
X165450000Y-73504000D01*
X165416666Y-73437333D01*
X165383333Y-73304000D01*
X165383333Y-73137333D01*
X165416666Y-73004000D01*
X165450000Y-72937333D01*
X165483333Y-72904000D01*
X165550000Y-72870666D01*
X166383333Y-72870666D02*
X166250000Y-72870666D01*
X166183333Y-72904000D01*
X166150000Y-72937333D01*
X166083333Y-73037333D01*
X166050000Y-73170666D01*
X166050000Y-73437333D01*
X166083333Y-73504000D01*
X166116666Y-73537333D01*
X166183333Y-73570666D01*
X166316666Y-73570666D01*
X166383333Y-73537333D01*
X166416666Y-73504000D01*
X166450000Y-73437333D01*
X166450000Y-73270666D01*
X166416666Y-73204000D01*
X166383333Y-73170666D01*
X166316666Y-73137333D01*
X166183333Y-73137333D01*
X166116666Y-73170666D01*
X166083333Y-73204000D01*
X166050000Y-73270666D01*
X166716666Y-72937333D02*
X166750000Y-72904000D01*
X166816666Y-72870666D01*
X166983333Y-72870666D01*
X167050000Y-72904000D01*
X167083333Y-72937333D01*
X167116666Y-73004000D01*
X167116666Y-73070666D01*
X167083333Y-73170666D01*
X166683333Y-73570666D01*
X167116666Y-73570666D01*
X162600000Y-75094666D02*
X162600000Y-74394666D01*
X162766666Y-74394666D01*
X162866666Y-74428000D01*
X162933333Y-74494666D01*
X162966666Y-74561333D01*
X163000000Y-74694666D01*
X163000000Y-74794666D01*
X162966666Y-74928000D01*
X162933333Y-74994666D01*
X162866666Y-75061333D01*
X162766666Y-75094666D01*
X162600000Y-75094666D01*
X163200000Y-74394666D02*
X163433333Y-75094666D01*
X163666666Y-74394666D01*
X164233333Y-75094666D02*
X163900000Y-75094666D01*
X163900000Y-74394666D01*
X164766666Y-74394666D02*
X164633333Y-74394666D01*
X164566666Y-74428000D01*
X164533333Y-74461333D01*
X164466666Y-74561333D01*
X164433333Y-74694666D01*
X164433333Y-74961333D01*
X164466666Y-75028000D01*
X164500000Y-75061333D01*
X164566666Y-75094666D01*
X164700000Y-75094666D01*
X164766666Y-75061333D01*
X164800000Y-75028000D01*
X164833333Y-74961333D01*
X164833333Y-74794666D01*
X164800000Y-74728000D01*
X164766666Y-74694666D01*
X164700000Y-74661333D01*
X164566666Y-74661333D01*
X164500000Y-74694666D01*
X164466666Y-74728000D01*
X164433333Y-74794666D01*
X165100000Y-74894666D02*
X165433333Y-74894666D01*
X165033333Y-75094666D02*
X165266666Y-74394666D01*
X165500000Y-75094666D01*
X134202380Y-78511904D02*
X135011904Y-78511904D01*
X135107142Y-78464285D01*
X135154761Y-78416666D01*
X135202380Y-78321428D01*
X135202380Y-78130952D01*
X135154761Y-78035714D01*
X135107142Y-77988095D01*
X135011904Y-77940476D01*
X134202380Y-77940476D01*
X135202380Y-76940476D02*
X135202380Y-77511904D01*
X135202380Y-77226190D02*
X134202380Y-77226190D01*
X134345238Y-77321428D01*
X134440476Y-77416666D01*
X134488095Y-77511904D01*
X129452380Y-78000000D02*
X129690476Y-78000000D01*
X129595238Y-78238095D02*
X129690476Y-78000000D01*
X129595238Y-77761904D01*
X129880952Y-78142857D02*
X129690476Y-78000000D01*
X129880952Y-77857142D01*
X125357142Y-87452380D02*
X125023809Y-86976190D01*
X124785714Y-87452380D02*
X124785714Y-86452380D01*
X125166666Y-86452380D01*
X125261904Y-86500000D01*
X125309523Y-86547619D01*
X125357142Y-86642857D01*
X125357142Y-86785714D01*
X125309523Y-86880952D01*
X125261904Y-86928571D01*
X125166666Y-86976190D01*
X124785714Y-86976190D01*
X126309523Y-87452380D02*
X125738095Y-87452380D01*
X126023809Y-87452380D02*
X126023809Y-86452380D01*
X125928571Y-86595238D01*
X125833333Y-86690476D01*
X125738095Y-86738095D01*
X127166666Y-86785714D02*
X127166666Y-87452380D01*
X126928571Y-86404761D02*
X126690476Y-87119047D01*
X127309523Y-87119047D01*
X142357142Y-83342380D02*
X142023809Y-82866190D01*
X141785714Y-83342380D02*
X141785714Y-82342380D01*
X142166666Y-82342380D01*
X142261904Y-82390000D01*
X142309523Y-82437619D01*
X142357142Y-82532857D01*
X142357142Y-82675714D01*
X142309523Y-82770952D01*
X142261904Y-82818571D01*
X142166666Y-82866190D01*
X141785714Y-82866190D01*
X143309523Y-83342380D02*
X142738095Y-83342380D01*
X143023809Y-83342380D02*
X143023809Y-82342380D01*
X142928571Y-82485238D01*
X142833333Y-82580476D01*
X142738095Y-82628095D01*
X143642857Y-82342380D02*
X144261904Y-82342380D01*
X143928571Y-82723333D01*
X144071428Y-82723333D01*
X144166666Y-82770952D01*
X144214285Y-82818571D01*
X144261904Y-82913809D01*
X144261904Y-83151904D01*
X144214285Y-83247142D01*
X144166666Y-83294761D01*
X144071428Y-83342380D01*
X143785714Y-83342380D01*
X143690476Y-83294761D01*
X143642857Y-83247142D01*
X142357142Y-79092380D02*
X142023809Y-78616190D01*
X141785714Y-79092380D02*
X141785714Y-78092380D01*
X142166666Y-78092380D01*
X142261904Y-78140000D01*
X142309523Y-78187619D01*
X142357142Y-78282857D01*
X142357142Y-78425714D01*
X142309523Y-78520952D01*
X142261904Y-78568571D01*
X142166666Y-78616190D01*
X141785714Y-78616190D01*
X143309523Y-79092380D02*
X142738095Y-79092380D01*
X143023809Y-79092380D02*
X143023809Y-78092380D01*
X142928571Y-78235238D01*
X142833333Y-78330476D01*
X142738095Y-78378095D01*
X143690476Y-78187619D02*
X143738095Y-78140000D01*
X143833333Y-78092380D01*
X144071428Y-78092380D01*
X144166666Y-78140000D01*
X144214285Y-78187619D01*
X144261904Y-78282857D01*
X144261904Y-78378095D01*
X144214285Y-78520952D01*
X143642857Y-79092380D01*
X144261904Y-79092380D01*
X142357142Y-75022380D02*
X142023809Y-74546190D01*
X141785714Y-75022380D02*
X141785714Y-74022380D01*
X142166666Y-74022380D01*
X142261904Y-74070000D01*
X142309523Y-74117619D01*
X142357142Y-74212857D01*
X142357142Y-74355714D01*
X142309523Y-74450952D01*
X142261904Y-74498571D01*
X142166666Y-74546190D01*
X141785714Y-74546190D01*
X143309523Y-75022380D02*
X142738095Y-75022380D01*
X143023809Y-75022380D02*
X143023809Y-74022380D01*
X142928571Y-74165238D01*
X142833333Y-74260476D01*
X142738095Y-74308095D01*
X144261904Y-75022380D02*
X143690476Y-75022380D01*
X143976190Y-75022380D02*
X143976190Y-74022380D01*
X143880952Y-74165238D01*
X143785714Y-74260476D01*
X143690476Y-74308095D01*
X142357142Y-72022380D02*
X142023809Y-71546190D01*
X141785714Y-72022380D02*
X141785714Y-71022380D01*
X142166666Y-71022380D01*
X142261904Y-71070000D01*
X142309523Y-71117619D01*
X142357142Y-71212857D01*
X142357142Y-71355714D01*
X142309523Y-71450952D01*
X142261904Y-71498571D01*
X142166666Y-71546190D01*
X141785714Y-71546190D01*
X143309523Y-72022380D02*
X142738095Y-72022380D01*
X143023809Y-72022380D02*
X143023809Y-71022380D01*
X142928571Y-71165238D01*
X142833333Y-71260476D01*
X142738095Y-71308095D01*
X143928571Y-71022380D02*
X144023809Y-71022380D01*
X144119047Y-71070000D01*
X144166666Y-71117619D01*
X144214285Y-71212857D01*
X144261904Y-71403333D01*
X144261904Y-71641428D01*
X144214285Y-71831904D01*
X144166666Y-71927142D01*
X144119047Y-71974761D01*
X144023809Y-72022380D01*
X143928571Y-72022380D01*
X143833333Y-71974761D01*
X143785714Y-71927142D01*
X143738095Y-71831904D01*
X143690476Y-71641428D01*
X143690476Y-71403333D01*
X143738095Y-71212857D01*
X143785714Y-71117619D01*
X143833333Y-71070000D01*
X143928571Y-71022380D01*
X142833333Y-69022380D02*
X142500000Y-68546190D01*
X142261904Y-69022380D02*
X142261904Y-68022380D01*
X142642857Y-68022380D01*
X142738095Y-68070000D01*
X142785714Y-68117619D01*
X142833333Y-68212857D01*
X142833333Y-68355714D01*
X142785714Y-68450952D01*
X142738095Y-68498571D01*
X142642857Y-68546190D01*
X142261904Y-68546190D01*
X143309523Y-69022380D02*
X143500000Y-69022380D01*
X143595238Y-68974761D01*
X143642857Y-68927142D01*
X143738095Y-68784285D01*
X143785714Y-68593809D01*
X143785714Y-68212857D01*
X143738095Y-68117619D01*
X143690476Y-68070000D01*
X143595238Y-68022380D01*
X143404761Y-68022380D01*
X143309523Y-68070000D01*
X143261904Y-68117619D01*
X143214285Y-68212857D01*
X143214285Y-68450952D01*
X143261904Y-68546190D01*
X143309523Y-68593809D01*
X143404761Y-68641428D01*
X143595238Y-68641428D01*
X143690476Y-68593809D01*
X143738095Y-68546190D01*
X143785714Y-68450952D01*
X122833333Y-73702380D02*
X122500000Y-73226190D01*
X122261904Y-73702380D02*
X122261904Y-72702380D01*
X122642857Y-72702380D01*
X122738095Y-72750000D01*
X122785714Y-72797619D01*
X122833333Y-72892857D01*
X122833333Y-73035714D01*
X122785714Y-73130952D01*
X122738095Y-73178571D01*
X122642857Y-73226190D01*
X122261904Y-73226190D01*
X123404761Y-73130952D02*
X123309523Y-73083333D01*
X123261904Y-73035714D01*
X123214285Y-72940476D01*
X123214285Y-72892857D01*
X123261904Y-72797619D01*
X123309523Y-72750000D01*
X123404761Y-72702380D01*
X123595238Y-72702380D01*
X123690476Y-72750000D01*
X123738095Y-72797619D01*
X123785714Y-72892857D01*
X123785714Y-72940476D01*
X123738095Y-73035714D01*
X123690476Y-73083333D01*
X123595238Y-73130952D01*
X123404761Y-73130952D01*
X123309523Y-73178571D01*
X123261904Y-73226190D01*
X123214285Y-73321428D01*
X123214285Y-73511904D01*
X123261904Y-73607142D01*
X123309523Y-73654761D01*
X123404761Y-73702380D01*
X123595238Y-73702380D01*
X123690476Y-73654761D01*
X123738095Y-73607142D01*
X123785714Y-73511904D01*
X123785714Y-73321428D01*
X123738095Y-73226190D01*
X123690476Y-73178571D01*
X123595238Y-73130952D01*
X125833333Y-69702380D02*
X125500000Y-69226190D01*
X125261904Y-69702380D02*
X125261904Y-68702380D01*
X125642857Y-68702380D01*
X125738095Y-68750000D01*
X125785714Y-68797619D01*
X125833333Y-68892857D01*
X125833333Y-69035714D01*
X125785714Y-69130952D01*
X125738095Y-69178571D01*
X125642857Y-69226190D01*
X125261904Y-69226190D01*
X126166666Y-68702380D02*
X126833333Y-68702380D01*
X126404761Y-69702380D01*
X122833333Y-83702380D02*
X122500000Y-83226190D01*
X122261904Y-83702380D02*
X122261904Y-82702380D01*
X122642857Y-82702380D01*
X122738095Y-82750000D01*
X122785714Y-82797619D01*
X122833333Y-82892857D01*
X122833333Y-83035714D01*
X122785714Y-83130952D01*
X122738095Y-83178571D01*
X122642857Y-83226190D01*
X122261904Y-83226190D01*
X123690476Y-82702380D02*
X123500000Y-82702380D01*
X123404761Y-82750000D01*
X123357142Y-82797619D01*
X123261904Y-82940476D01*
X123214285Y-83130952D01*
X123214285Y-83511904D01*
X123261904Y-83607142D01*
X123309523Y-83654761D01*
X123404761Y-83702380D01*
X123595238Y-83702380D01*
X123690476Y-83654761D01*
X123738095Y-83607142D01*
X123785714Y-83511904D01*
X123785714Y-83273809D01*
X123738095Y-83178571D01*
X123690476Y-83130952D01*
X123595238Y-83083333D01*
X123404761Y-83083333D01*
X123309523Y-83130952D01*
X123261904Y-83178571D01*
X123214285Y-83273809D01*
X108752380Y-100583333D02*
X109466666Y-100583333D01*
X109609523Y-100630952D01*
X109704761Y-100726190D01*
X109752380Y-100869047D01*
X109752380Y-100964285D01*
X108752380Y-99678571D02*
X108752380Y-99869047D01*
X108800000Y-99964285D01*
X108847619Y-100011904D01*
X108990476Y-100107142D01*
X109180952Y-100154761D01*
X109561904Y-100154761D01*
X109657142Y-100107142D01*
X109704761Y-100059523D01*
X109752380Y-99964285D01*
X109752380Y-99773809D01*
X109704761Y-99678571D01*
X109657142Y-99630952D01*
X109561904Y-99583333D01*
X109323809Y-99583333D01*
X109228571Y-99630952D01*
X109180952Y-99678571D01*
X109133333Y-99773809D01*
X109133333Y-99964285D01*
X109180952Y-100059523D01*
X109228571Y-100107142D01*
X109323809Y-100154761D01*
X126857142Y-76166666D02*
X126904761Y-76214285D01*
X126952380Y-76357142D01*
X126952380Y-76452380D01*
X126904761Y-76595238D01*
X126809523Y-76690476D01*
X126714285Y-76738095D01*
X126523809Y-76785714D01*
X126380952Y-76785714D01*
X126190476Y-76738095D01*
X126095238Y-76690476D01*
X126000000Y-76595238D01*
X125952380Y-76452380D01*
X125952380Y-76357142D01*
X126000000Y-76214285D01*
X126047619Y-76166666D01*
X125952380Y-75833333D02*
X125952380Y-75166666D01*
X126952380Y-75595238D01*
X123607142Y-80666666D02*
X123654761Y-80714285D01*
X123702380Y-80857142D01*
X123702380Y-80952380D01*
X123654761Y-81095238D01*
X123559523Y-81190476D01*
X123464285Y-81238095D01*
X123273809Y-81285714D01*
X123130952Y-81285714D01*
X122940476Y-81238095D01*
X122845238Y-81190476D01*
X122750000Y-81095238D01*
X122702380Y-80952380D01*
X122702380Y-80857142D01*
X122750000Y-80714285D01*
X122797619Y-80666666D01*
X122702380Y-79809523D02*
X122702380Y-80000000D01*
X122750000Y-80095238D01*
X122797619Y-80142857D01*
X122940476Y-80238095D01*
X123130952Y-80285714D01*
X123511904Y-80285714D01*
X123607142Y-80238095D01*
X123654761Y-80190476D01*
X123702380Y-80095238D01*
X123702380Y-79904761D01*
X123654761Y-79809523D01*
X123607142Y-79761904D01*
X123511904Y-79714285D01*
X123273809Y-79714285D01*
X123178571Y-79761904D01*
X123130952Y-79809523D01*
X123083333Y-79904761D01*
X123083333Y-80095238D01*
X123130952Y-80190476D01*
X123178571Y-80238095D01*
X123273809Y-80285714D01*
%LPC*%
D14*
X139120000Y-98570000D03*
X96000000Y-111000000D03*
X96000000Y-56000000D03*
G36*
G01*
X102600000Y-108771738D02*
X102600000Y-109728262D01*
G75*
G02*
X102328262Y-110000000I-271738J0D01*
G01*
X101621738Y-110000000D01*
G75*
G02*
X101350000Y-109728262I0J271738D01*
G01*
X101350000Y-108771738D01*
G75*
G02*
X101621738Y-108500000I271738J0D01*
G01*
X102328262Y-108500000D01*
G75*
G02*
X102600000Y-108771738I0J-271738D01*
G01*
G37*
G36*
G01*
X104650000Y-108771738D02*
X104650000Y-109728262D01*
G75*
G02*
X104378262Y-110000000I-271738J0D01*
G01*
X103671738Y-110000000D01*
G75*
G02*
X103400000Y-109728262I0J271738D01*
G01*
X103400000Y-108771738D01*
G75*
G02*
X103671738Y-108500000I271738J0D01*
G01*
X104378262Y-108500000D01*
G75*
G02*
X104650000Y-108771738I0J-271738D01*
G01*
G37*
G36*
G01*
X106521738Y-62400000D02*
X107478262Y-62400000D01*
G75*
G02*
X107750000Y-62671738I0J-271738D01*
G01*
X107750000Y-63378262D01*
G75*
G02*
X107478262Y-63650000I-271738J0D01*
G01*
X106521738Y-63650000D01*
G75*
G02*
X106250000Y-63378262I0J271738D01*
G01*
X106250000Y-62671738D01*
G75*
G02*
X106521738Y-62400000I271738J0D01*
G01*
G37*
G36*
G01*
X106521738Y-60350000D02*
X107478262Y-60350000D01*
G75*
G02*
X107750000Y-60621738I0J-271738D01*
G01*
X107750000Y-61328262D01*
G75*
G02*
X107478262Y-61600000I-271738J0D01*
G01*
X106521738Y-61600000D01*
G75*
G02*
X106250000Y-61328262I0J271738D01*
G01*
X106250000Y-60621738D01*
G75*
G02*
X106521738Y-60350000I271738J0D01*
G01*
G37*
G36*
G01*
X148521738Y-62400000D02*
X149478262Y-62400000D01*
G75*
G02*
X149750000Y-62671738I0J-271738D01*
G01*
X149750000Y-63378262D01*
G75*
G02*
X149478262Y-63650000I-271738J0D01*
G01*
X148521738Y-63650000D01*
G75*
G02*
X148250000Y-63378262I0J271738D01*
G01*
X148250000Y-62671738D01*
G75*
G02*
X148521738Y-62400000I271738J0D01*
G01*
G37*
G36*
G01*
X148521738Y-60350000D02*
X149478262Y-60350000D01*
G75*
G02*
X149750000Y-60621738I0J-271738D01*
G01*
X149750000Y-61328262D01*
G75*
G02*
X149478262Y-61600000I-271738J0D01*
G01*
X148521738Y-61600000D01*
G75*
G02*
X148250000Y-61328262I0J271738D01*
G01*
X148250000Y-60621738D01*
G75*
G02*
X148521738Y-60350000I271738J0D01*
G01*
G37*
G36*
G01*
X148478262Y-109215000D02*
X147521738Y-109215000D01*
G75*
G02*
X147250000Y-108943262I0J271738D01*
G01*
X147250000Y-108236738D01*
G75*
G02*
X147521738Y-107965000I271738J0D01*
G01*
X148478262Y-107965000D01*
G75*
G02*
X148750000Y-108236738I0J-271738D01*
G01*
X148750000Y-108943262D01*
G75*
G02*
X148478262Y-109215000I-271738J0D01*
G01*
G37*
G36*
G01*
X148478262Y-111265000D02*
X147521738Y-111265000D01*
G75*
G02*
X147250000Y-110993262I0J271738D01*
G01*
X147250000Y-110286738D01*
G75*
G02*
X147521738Y-110015000I271738J0D01*
G01*
X148478262Y-110015000D01*
G75*
G02*
X148750000Y-110286738I0J-271738D01*
G01*
X148750000Y-110993262D01*
G75*
G02*
X148478262Y-111265000I-271738J0D01*
G01*
G37*
G36*
G01*
X102400000Y-67478262D02*
X102400000Y-66521738D01*
G75*
G02*
X102671738Y-66250000I271738J0D01*
G01*
X103378262Y-66250000D01*
G75*
G02*
X103650000Y-66521738I0J-271738D01*
G01*
X103650000Y-67478262D01*
G75*
G02*
X103378262Y-67750000I-271738J0D01*
G01*
X102671738Y-67750000D01*
G75*
G02*
X102400000Y-67478262I0J271738D01*
G01*
G37*
G36*
G01*
X100350000Y-67478262D02*
X100350000Y-66521738D01*
G75*
G02*
X100621738Y-66250000I271738J0D01*
G01*
X101328262Y-66250000D01*
G75*
G02*
X101600000Y-66521738I0J-271738D01*
G01*
X101600000Y-67478262D01*
G75*
G02*
X101328262Y-67750000I-271738J0D01*
G01*
X100621738Y-67750000D01*
G75*
G02*
X100350000Y-67478262I0J271738D01*
G01*
G37*
G36*
G01*
X131478262Y-104600000D02*
X130521738Y-104600000D01*
G75*
G02*
X130250000Y-104328262I0J271738D01*
G01*
X130250000Y-103621738D01*
G75*
G02*
X130521738Y-103350000I271738J0D01*
G01*
X131478262Y-103350000D01*
G75*
G02*
X131750000Y-103621738I0J-271738D01*
G01*
X131750000Y-104328262D01*
G75*
G02*
X131478262Y-104600000I-271738J0D01*
G01*
G37*
G36*
G01*
X131478262Y-106650000D02*
X130521738Y-106650000D01*
G75*
G02*
X130250000Y-106378262I0J271738D01*
G01*
X130250000Y-105671738D01*
G75*
G02*
X130521738Y-105400000I271738J0D01*
G01*
X131478262Y-105400000D01*
G75*
G02*
X131750000Y-105671738I0J-271738D01*
G01*
X131750000Y-106378262D01*
G75*
G02*
X131478262Y-106650000I-271738J0D01*
G01*
G37*
D15*
X115450000Y-60735000D03*
X116470000Y-63265000D03*
X117490000Y-60735000D03*
X118510000Y-63265000D03*
X119530000Y-60735000D03*
X120550000Y-63265000D03*
X121570000Y-60735000D03*
X122590000Y-63265000D03*
D16*
X110500000Y-58435000D03*
X125500000Y-58435000D03*
D15*
X135450000Y-60735000D03*
X136470000Y-63265000D03*
X137490000Y-60735000D03*
X138510000Y-63265000D03*
X139530000Y-60735000D03*
X140550000Y-63265000D03*
X141570000Y-60735000D03*
X142590000Y-63265000D03*
D16*
X130500000Y-58435000D03*
X145500000Y-58435000D03*
D15*
X156265000Y-101450000D03*
X153735000Y-102470000D03*
X156265000Y-103490000D03*
X153735000Y-104510000D03*
X156265000Y-105530000D03*
X153735000Y-106550000D03*
X156265000Y-107570000D03*
X153735000Y-108590000D03*
D16*
X158565000Y-96500000D03*
X158565000Y-111500000D03*
D15*
X122550000Y-106265000D03*
X121530000Y-103735000D03*
X120510000Y-106265000D03*
X119490000Y-103735000D03*
X118470000Y-106265000D03*
X117450000Y-103735000D03*
X116430000Y-106265000D03*
X115410000Y-103735000D03*
D16*
X127500000Y-108565000D03*
X112500000Y-108565000D03*
D15*
X100735000Y-80550000D03*
X103265000Y-79530000D03*
X100735000Y-78510000D03*
X103265000Y-77490000D03*
X100735000Y-76470000D03*
X103265000Y-75450000D03*
X100735000Y-74430000D03*
X103265000Y-73410000D03*
D16*
X98435000Y-85500000D03*
X98435000Y-70500000D03*
D15*
X171620000Y-89510000D03*
X156380000Y-89510000D03*
X171620000Y-86970000D03*
X171620000Y-84430000D03*
X171620000Y-81890000D03*
X171620000Y-79350000D03*
X171620000Y-76810000D03*
X171620000Y-74270000D03*
X171620000Y-71730000D03*
X171620000Y-69190000D03*
X171620000Y-66650000D03*
X171620000Y-64110000D03*
X171620000Y-61570000D03*
X171620000Y-59030000D03*
X171620000Y-56490000D03*
X156380000Y-86970000D03*
X156380000Y-84430000D03*
X156380000Y-81890000D03*
X156380000Y-79350000D03*
X156380000Y-76810000D03*
X156380000Y-74270000D03*
X156380000Y-71730000D03*
X156380000Y-69190000D03*
X156380000Y-66650000D03*
X156380000Y-64110000D03*
X156380000Y-61570000D03*
X156380000Y-59030000D03*
D17*
X156380000Y-56490000D03*
D18*
X127725001Y-75049998D03*
X128375002Y-75049998D03*
X129025001Y-75049998D03*
X129675002Y-75049998D03*
X130325001Y-75049998D03*
X130975002Y-75049998D03*
X131625001Y-75049998D03*
X132275002Y-75049998D03*
X132275002Y-80949999D03*
X131625001Y-80949999D03*
X130975002Y-80949999D03*
X130325001Y-80949999D03*
X129675002Y-80949999D03*
X129025001Y-80949999D03*
X128375002Y-80949999D03*
X127725001Y-80949999D03*
G36*
G01*
X125700000Y-85112500D02*
X125700000Y-85637500D01*
G75*
G02*
X125437500Y-85900000I-262500J0D01*
G01*
X124812500Y-85900000D01*
G75*
G02*
X124550000Y-85637500I0J262500D01*
G01*
X124550000Y-85112500D01*
G75*
G02*
X124812500Y-84850000I262500J0D01*
G01*
X125437500Y-84850000D01*
G75*
G02*
X125700000Y-85112500I0J-262500D01*
G01*
G37*
G36*
G01*
X127450000Y-85112500D02*
X127450000Y-85637500D01*
G75*
G02*
X127187500Y-85900000I-262500J0D01*
G01*
X126562500Y-85900000D01*
G75*
G02*
X126300000Y-85637500I0J262500D01*
G01*
X126300000Y-85112500D01*
G75*
G02*
X126562500Y-84850000I262500J0D01*
G01*
X127187500Y-84850000D01*
G75*
G02*
X127450000Y-85112500I0J-262500D01*
G01*
G37*
G36*
G01*
X143300000Y-84582500D02*
X143300000Y-84057500D01*
G75*
G02*
X143562500Y-83795000I262500J0D01*
G01*
X144187500Y-83795000D01*
G75*
G02*
X144450000Y-84057500I0J-262500D01*
G01*
X144450000Y-84582500D01*
G75*
G02*
X144187500Y-84845000I-262500J0D01*
G01*
X143562500Y-84845000D01*
G75*
G02*
X143300000Y-84582500I0J262500D01*
G01*
G37*
G36*
G01*
X141550000Y-84582500D02*
X141550000Y-84057500D01*
G75*
G02*
X141812500Y-83795000I262500J0D01*
G01*
X142437500Y-83795000D01*
G75*
G02*
X142700000Y-84057500I0J-262500D01*
G01*
X142700000Y-84582500D01*
G75*
G02*
X142437500Y-84845000I-262500J0D01*
G01*
X141812500Y-84845000D01*
G75*
G02*
X141550000Y-84582500I0J262500D01*
G01*
G37*
G36*
G01*
X143300000Y-80332500D02*
X143300000Y-79807500D01*
G75*
G02*
X143562500Y-79545000I262500J0D01*
G01*
X144187500Y-79545000D01*
G75*
G02*
X144450000Y-79807500I0J-262500D01*
G01*
X144450000Y-80332500D01*
G75*
G02*
X144187500Y-80595000I-262500J0D01*
G01*
X143562500Y-80595000D01*
G75*
G02*
X143300000Y-80332500I0J262500D01*
G01*
G37*
G36*
G01*
X141550000Y-80332500D02*
X141550000Y-79807500D01*
G75*
G02*
X141812500Y-79545000I262500J0D01*
G01*
X142437500Y-79545000D01*
G75*
G02*
X142700000Y-79807500I0J-262500D01*
G01*
X142700000Y-80332500D01*
G75*
G02*
X142437500Y-80595000I-262500J0D01*
G01*
X141812500Y-80595000D01*
G75*
G02*
X141550000Y-80332500I0J262500D01*
G01*
G37*
G36*
G01*
X143300000Y-76262500D02*
X143300000Y-75737500D01*
G75*
G02*
X143562500Y-75475000I262500J0D01*
G01*
X144187500Y-75475000D01*
G75*
G02*
X144450000Y-75737500I0J-262500D01*
G01*
X144450000Y-76262500D01*
G75*
G02*
X144187500Y-76525000I-262500J0D01*
G01*
X143562500Y-76525000D01*
G75*
G02*
X143300000Y-76262500I0J262500D01*
G01*
G37*
G36*
G01*
X141550000Y-76262500D02*
X141550000Y-75737500D01*
G75*
G02*
X141812500Y-75475000I262500J0D01*
G01*
X142437500Y-75475000D01*
G75*
G02*
X142700000Y-75737500I0J-262500D01*
G01*
X142700000Y-76262500D01*
G75*
G02*
X142437500Y-76525000I-262500J0D01*
G01*
X141812500Y-76525000D01*
G75*
G02*
X141550000Y-76262500I0J262500D01*
G01*
G37*
G36*
G01*
X143300000Y-73262500D02*
X143300000Y-72737500D01*
G75*
G02*
X143562500Y-72475000I262500J0D01*
G01*
X144187500Y-72475000D01*
G75*
G02*
X144450000Y-72737500I0J-262500D01*
G01*
X144450000Y-73262500D01*
G75*
G02*
X144187500Y-73525000I-262500J0D01*
G01*
X143562500Y-73525000D01*
G75*
G02*
X143300000Y-73262500I0J262500D01*
G01*
G37*
G36*
G01*
X141550000Y-73262500D02*
X141550000Y-72737500D01*
G75*
G02*
X141812500Y-72475000I262500J0D01*
G01*
X142437500Y-72475000D01*
G75*
G02*
X142700000Y-72737500I0J-262500D01*
G01*
X142700000Y-73262500D01*
G75*
G02*
X142437500Y-73525000I-262500J0D01*
G01*
X141812500Y-73525000D01*
G75*
G02*
X141550000Y-73262500I0J262500D01*
G01*
G37*
G36*
G01*
X143300000Y-70262500D02*
X143300000Y-69737500D01*
G75*
G02*
X143562500Y-69475000I262500J0D01*
G01*
X144187500Y-69475000D01*
G75*
G02*
X144450000Y-69737500I0J-262500D01*
G01*
X144450000Y-70262500D01*
G75*
G02*
X144187500Y-70525000I-262500J0D01*
G01*
X143562500Y-70525000D01*
G75*
G02*
X143300000Y-70262500I0J262500D01*
G01*
G37*
G36*
G01*
X141550000Y-70262500D02*
X141550000Y-69737500D01*
G75*
G02*
X141812500Y-69475000I262500J0D01*
G01*
X142437500Y-69475000D01*
G75*
G02*
X142700000Y-69737500I0J-262500D01*
G01*
X142700000Y-70262500D01*
G75*
G02*
X142437500Y-70525000I-262500J0D01*
G01*
X141812500Y-70525000D01*
G75*
G02*
X141550000Y-70262500I0J262500D01*
G01*
G37*
G36*
G01*
X125700000Y-72737500D02*
X125700000Y-73262500D01*
G75*
G02*
X125437500Y-73525000I-262500J0D01*
G01*
X124812500Y-73525000D01*
G75*
G02*
X124550000Y-73262500I0J262500D01*
G01*
X124550000Y-72737500D01*
G75*
G02*
X124812500Y-72475000I262500J0D01*
G01*
X125437500Y-72475000D01*
G75*
G02*
X125700000Y-72737500I0J-262500D01*
G01*
G37*
G36*
G01*
X127450000Y-72737500D02*
X127450000Y-73262500D01*
G75*
G02*
X127187500Y-73525000I-262500J0D01*
G01*
X126562500Y-73525000D01*
G75*
G02*
X126300000Y-73262500I0J262500D01*
G01*
X126300000Y-72737500D01*
G75*
G02*
X126562500Y-72475000I262500J0D01*
G01*
X127187500Y-72475000D01*
G75*
G02*
X127450000Y-72737500I0J-262500D01*
G01*
G37*
G36*
G01*
X125700000Y-70737500D02*
X125700000Y-71262500D01*
G75*
G02*
X125437500Y-71525000I-262500J0D01*
G01*
X124812500Y-71525000D01*
G75*
G02*
X124550000Y-71262500I0J262500D01*
G01*
X124550000Y-70737500D01*
G75*
G02*
X124812500Y-70475000I262500J0D01*
G01*
X125437500Y-70475000D01*
G75*
G02*
X125700000Y-70737500I0J-262500D01*
G01*
G37*
G36*
G01*
X127450000Y-70737500D02*
X127450000Y-71262500D01*
G75*
G02*
X127187500Y-71525000I-262500J0D01*
G01*
X126562500Y-71525000D01*
G75*
G02*
X126300000Y-71262500I0J262500D01*
G01*
X126300000Y-70737500D01*
G75*
G02*
X126562500Y-70475000I262500J0D01*
G01*
X127187500Y-70475000D01*
G75*
G02*
X127450000Y-70737500I0J-262500D01*
G01*
G37*
G36*
G01*
X125700000Y-82862500D02*
X125700000Y-83387500D01*
G75*
G02*
X125437500Y-83650000I-262500J0D01*
G01*
X124812500Y-83650000D01*
G75*
G02*
X124550000Y-83387500I0J262500D01*
G01*
X124550000Y-82862500D01*
G75*
G02*
X124812500Y-82600000I262500J0D01*
G01*
X125437500Y-82600000D01*
G75*
G02*
X125700000Y-82862500I0J-262500D01*
G01*
G37*
G36*
G01*
X127450000Y-82862500D02*
X127450000Y-83387500D01*
G75*
G02*
X127187500Y-83650000I-262500J0D01*
G01*
X126562500Y-83650000D01*
G75*
G02*
X126300000Y-83387500I0J262500D01*
G01*
X126300000Y-82862500D01*
G75*
G02*
X126562500Y-82600000I262500J0D01*
G01*
X127187500Y-82600000D01*
G75*
G02*
X127450000Y-82862500I0J-262500D01*
G01*
G37*
D15*
X97000000Y-100250000D03*
D19*
X99000000Y-104750000D03*
X99000000Y-95750000D03*
D20*
X100000000Y-100250000D03*
D21*
X106000000Y-100250000D03*
G36*
G01*
X124737500Y-76300000D02*
X125262500Y-76300000D01*
G75*
G02*
X125525000Y-76562500I0J-262500D01*
G01*
X125525000Y-77187500D01*
G75*
G02*
X125262500Y-77450000I-262500J0D01*
G01*
X124737500Y-77450000D01*
G75*
G02*
X124475000Y-77187500I0J262500D01*
G01*
X124475000Y-76562500D01*
G75*
G02*
X124737500Y-76300000I262500J0D01*
G01*
G37*
G36*
G01*
X124737500Y-74550000D02*
X125262500Y-74550000D01*
G75*
G02*
X125525000Y-74812500I0J-262500D01*
G01*
X125525000Y-75437500D01*
G75*
G02*
X125262500Y-75700000I-262500J0D01*
G01*
X124737500Y-75700000D01*
G75*
G02*
X124475000Y-75437500I0J262500D01*
G01*
X124475000Y-74812500D01*
G75*
G02*
X124737500Y-74550000I262500J0D01*
G01*
G37*
G36*
G01*
X125262500Y-79700000D02*
X124737500Y-79700000D01*
G75*
G02*
X124475000Y-79437500I0J262500D01*
G01*
X124475000Y-78812500D01*
G75*
G02*
X124737500Y-78550000I262500J0D01*
G01*
X125262500Y-78550000D01*
G75*
G02*
X125525000Y-78812500I0J-262500D01*
G01*
X125525000Y-79437500D01*
G75*
G02*
X125262500Y-79700000I-262500J0D01*
G01*
G37*
G36*
G01*
X125262500Y-81450000D02*
X124737500Y-81450000D01*
G75*
G02*
X124475000Y-81187500I0J262500D01*
G01*
X124475000Y-80562500D01*
G75*
G02*
X124737500Y-80300000I262500J0D01*
G01*
X125262500Y-80300000D01*
G75*
G02*
X125525000Y-80562500I0J-262500D01*
G01*
X125525000Y-81187500D01*
G75*
G02*
X125262500Y-81450000I-262500J0D01*
G01*
G37*
M02*
