G04 #@! TF.GenerationSoftware,KiCad,Pcbnew,5.1.6-c6e7f7d~87~ubuntu19.10.1*
G04 #@! TF.CreationDate,2023-03-13T14:52:07-06:00*
G04 #@! TF.ProjectId,twm,74776d2e-6b69-4636-9164-5f7063625858,rev?*
G04 #@! TF.SameCoordinates,Original*
G04 #@! TF.FileFunction,Legend,Bot*
G04 #@! TF.FilePolarity,Positive*
%FSLAX46Y46*%
G04 Gerber Fmt 4.6, Leading zero omitted, Abs format (unit mm)*
G04 Created by KiCad (PCBNEW 5.1.6-c6e7f7d~87~ubuntu19.10.1) date 2023-03-13 14:52:07*
%MOMM*%
%LPD*%
G01*
G04 APERTURE LIST*
%ADD10C,0.120000*%
%ADD11C,0.150000*%
%ADD12C,6.500000*%
%ADD13C,1.700000*%
%ADD14C,3.100000*%
%ADD15R,1.700000X1.700000*%
%ADD16C,3.600000*%
%ADD17C,3.400000*%
%ADD18R,4.100000X4.100000*%
G04 APERTURE END LIST*
D10*
X114828733Y-69459999D02*
X115171267Y-69459999D01*
X114828733Y-68439999D02*
X115171267Y-68439999D01*
X148510000Y-97296267D02*
X148510000Y-96953733D01*
X147490000Y-97296267D02*
X147490000Y-96953733D01*
X109485002Y-81121266D02*
X109485002Y-80778732D01*
X108465002Y-81121266D02*
X108465002Y-80778732D01*
X125828733Y-96635000D02*
X126171267Y-96635000D01*
X125828733Y-95615000D02*
X126171267Y-95615000D01*
X132465002Y-69778732D02*
X132465002Y-70121266D01*
X133485002Y-69778732D02*
X133485002Y-70121266D01*
X167791267Y-61060000D02*
X167448733Y-61060000D01*
X167791267Y-62080000D02*
X167448733Y-62080000D01*
D11*
X115166666Y-70832379D02*
X115500000Y-70356189D01*
X115738095Y-70832379D02*
X115738095Y-69832379D01*
X115357142Y-69832379D01*
X115261904Y-69879999D01*
X115214285Y-69927618D01*
X115166666Y-70022856D01*
X115166666Y-70165713D01*
X115214285Y-70260951D01*
X115261904Y-70308570D01*
X115357142Y-70356189D01*
X115738095Y-70356189D01*
X114261904Y-69832379D02*
X114738095Y-69832379D01*
X114785714Y-70308570D01*
X114738095Y-70260951D01*
X114642857Y-70213332D01*
X114404761Y-70213332D01*
X114309523Y-70260951D01*
X114261904Y-70308570D01*
X114214285Y-70403808D01*
X114214285Y-70641903D01*
X114261904Y-70737141D01*
X114309523Y-70784760D01*
X114404761Y-70832379D01*
X114642857Y-70832379D01*
X114738095Y-70784760D01*
X114785714Y-70737141D01*
X148452380Y-93833333D02*
X147976190Y-93500000D01*
X148452380Y-93261904D02*
X147452380Y-93261904D01*
X147452380Y-93642857D01*
X147500000Y-93738095D01*
X147547619Y-93785714D01*
X147642857Y-93833333D01*
X147785714Y-93833333D01*
X147880952Y-93785714D01*
X147928571Y-93738095D01*
X147976190Y-93642857D01*
X147976190Y-93261904D01*
X147785714Y-94690476D02*
X148452380Y-94690476D01*
X147404761Y-94452380D02*
X148119047Y-94214285D01*
X148119047Y-94833333D01*
X110857382Y-80783332D02*
X110381192Y-80449999D01*
X110857382Y-80211903D02*
X109857382Y-80211903D01*
X109857382Y-80592856D01*
X109905002Y-80688094D01*
X109952621Y-80735713D01*
X110047859Y-80783332D01*
X110190716Y-80783332D01*
X110285954Y-80735713D01*
X110333573Y-80688094D01*
X110381192Y-80592856D01*
X110381192Y-80211903D01*
X109857382Y-81116665D02*
X109857382Y-81735713D01*
X110238335Y-81402379D01*
X110238335Y-81545237D01*
X110285954Y-81640475D01*
X110333573Y-81688094D01*
X110428811Y-81735713D01*
X110666906Y-81735713D01*
X110762144Y-81688094D01*
X110809763Y-81640475D01*
X110857382Y-81545237D01*
X110857382Y-81259522D01*
X110809763Y-81164284D01*
X110762144Y-81116665D01*
X126166666Y-98007380D02*
X126500000Y-97531190D01*
X126738095Y-98007380D02*
X126738095Y-97007380D01*
X126357142Y-97007380D01*
X126261904Y-97055000D01*
X126214285Y-97102619D01*
X126166666Y-97197857D01*
X126166666Y-97340714D01*
X126214285Y-97435952D01*
X126261904Y-97483571D01*
X126357142Y-97531190D01*
X126738095Y-97531190D01*
X125785714Y-97102619D02*
X125738095Y-97055000D01*
X125642857Y-97007380D01*
X125404761Y-97007380D01*
X125309523Y-97055000D01*
X125261904Y-97102619D01*
X125214285Y-97197857D01*
X125214285Y-97293095D01*
X125261904Y-97435952D01*
X125833333Y-98007380D01*
X125214285Y-98007380D01*
X131997382Y-69783332D02*
X131521192Y-69449999D01*
X131997382Y-69211903D02*
X130997382Y-69211903D01*
X130997382Y-69592856D01*
X131045002Y-69688094D01*
X131092621Y-69735713D01*
X131187859Y-69783332D01*
X131330716Y-69783332D01*
X131425954Y-69735713D01*
X131473573Y-69688094D01*
X131521192Y-69592856D01*
X131521192Y-69211903D01*
X131997382Y-70735713D02*
X131997382Y-70164284D01*
X131997382Y-70449999D02*
X130997382Y-70449999D01*
X131140240Y-70354760D01*
X131235478Y-70259522D01*
X131283097Y-70164284D01*
X168262857Y-60497142D02*
X168310476Y-60544761D01*
X168453333Y-60592380D01*
X168548571Y-60592380D01*
X168691428Y-60544761D01*
X168786666Y-60449523D01*
X168834285Y-60354285D01*
X168881904Y-60163809D01*
X168881904Y-60020952D01*
X168834285Y-59830476D01*
X168786666Y-59735238D01*
X168691428Y-59640000D01*
X168548571Y-59592380D01*
X168453333Y-59592380D01*
X168310476Y-59640000D01*
X168262857Y-59687619D01*
X167310476Y-60592380D02*
X167881904Y-60592380D01*
X167596190Y-60592380D02*
X167596190Y-59592380D01*
X167691428Y-59735238D01*
X167786666Y-59830476D01*
X167881904Y-59878095D01*
X166691428Y-59592380D02*
X166596190Y-59592380D01*
X166500952Y-59640000D01*
X166453333Y-59687619D01*
X166405714Y-59782857D01*
X166358095Y-59973333D01*
X166358095Y-60211428D01*
X166405714Y-60401904D01*
X166453333Y-60497142D01*
X166500952Y-60544761D01*
X166596190Y-60592380D01*
X166691428Y-60592380D01*
X166786666Y-60544761D01*
X166834285Y-60497142D01*
X166881904Y-60401904D01*
X166929523Y-60211428D01*
X166929523Y-59973333D01*
X166881904Y-59782857D01*
X166834285Y-59687619D01*
X166786666Y-59640000D01*
X166691428Y-59592380D01*
%LPC*%
D12*
X139120000Y-98570000D03*
X96000000Y-111000000D03*
X96000000Y-56000000D03*
D13*
X115450000Y-60735000D03*
X116470000Y-63265000D03*
X117490000Y-60735000D03*
X118510000Y-63265000D03*
X119530000Y-60735000D03*
X120550000Y-63265000D03*
X121570000Y-60735000D03*
X122590000Y-63265000D03*
D14*
X110500000Y-58435000D03*
X125500000Y-58435000D03*
D13*
X135450000Y-60735000D03*
X136470000Y-63265000D03*
X137490000Y-60735000D03*
X138510000Y-63265000D03*
X139530000Y-60735000D03*
X140550000Y-63265000D03*
X141570000Y-60735000D03*
X142590000Y-63265000D03*
D14*
X130500000Y-58435000D03*
X145500000Y-58435000D03*
D13*
X156265000Y-101450000D03*
X153735000Y-102470000D03*
X156265000Y-103490000D03*
X153735000Y-104510000D03*
X156265000Y-105530000D03*
X153735000Y-106550000D03*
X156265000Y-107570000D03*
X153735000Y-108590000D03*
D14*
X158565000Y-96500000D03*
X158565000Y-111500000D03*
D13*
X122550000Y-106265000D03*
X121530000Y-103735000D03*
X120510000Y-106265000D03*
X119490000Y-103735000D03*
X118470000Y-106265000D03*
X117450000Y-103735000D03*
X116430000Y-106265000D03*
X115410000Y-103735000D03*
D14*
X127500000Y-108565000D03*
X112500000Y-108565000D03*
D13*
X100735000Y-80550000D03*
X103265000Y-79530000D03*
X100735000Y-78510000D03*
X103265000Y-77490000D03*
X100735000Y-76470000D03*
X103265000Y-75450000D03*
X100735000Y-74430000D03*
X103265000Y-73410000D03*
D14*
X98435000Y-85500000D03*
X98435000Y-70500000D03*
D13*
X171620000Y-89510000D03*
X156380000Y-89510000D03*
X171620000Y-86970000D03*
X171620000Y-84430000D03*
X171620000Y-81890000D03*
X171620000Y-79350000D03*
X171620000Y-76810000D03*
X171620000Y-74270000D03*
X171620000Y-71730000D03*
X171620000Y-69190000D03*
X171620000Y-66650000D03*
X171620000Y-64110000D03*
X171620000Y-61570000D03*
X171620000Y-59030000D03*
X171620000Y-56490000D03*
X156380000Y-86970000D03*
X156380000Y-84430000D03*
X156380000Y-81890000D03*
X156380000Y-79350000D03*
X156380000Y-76810000D03*
X156380000Y-74270000D03*
X156380000Y-71730000D03*
X156380000Y-69190000D03*
X156380000Y-66650000D03*
X156380000Y-64110000D03*
X156380000Y-61570000D03*
X156380000Y-59030000D03*
D15*
X156380000Y-56490000D03*
G36*
G01*
X115300000Y-69212499D02*
X115300000Y-68687499D01*
G75*
G02*
X115562500Y-68424999I262500J0D01*
G01*
X116187500Y-68424999D01*
G75*
G02*
X116450000Y-68687499I0J-262500D01*
G01*
X116450000Y-69212499D01*
G75*
G02*
X116187500Y-69474999I-262500J0D01*
G01*
X115562500Y-69474999D01*
G75*
G02*
X115300000Y-69212499I0J262500D01*
G01*
G37*
G36*
G01*
X113550000Y-69212499D02*
X113550000Y-68687499D01*
G75*
G02*
X113812500Y-68424999I262500J0D01*
G01*
X114437500Y-68424999D01*
G75*
G02*
X114700000Y-68687499I0J-262500D01*
G01*
X114700000Y-69212499D01*
G75*
G02*
X114437500Y-69474999I-262500J0D01*
G01*
X113812500Y-69474999D01*
G75*
G02*
X113550000Y-69212499I0J262500D01*
G01*
G37*
G36*
G01*
X148262500Y-96825000D02*
X147737500Y-96825000D01*
G75*
G02*
X147475000Y-96562500I0J262500D01*
G01*
X147475000Y-95937500D01*
G75*
G02*
X147737500Y-95675000I262500J0D01*
G01*
X148262500Y-95675000D01*
G75*
G02*
X148525000Y-95937500I0J-262500D01*
G01*
X148525000Y-96562500D01*
G75*
G02*
X148262500Y-96825000I-262500J0D01*
G01*
G37*
G36*
G01*
X148262500Y-98575000D02*
X147737500Y-98575000D01*
G75*
G02*
X147475000Y-98312500I0J262500D01*
G01*
X147475000Y-97687500D01*
G75*
G02*
X147737500Y-97425000I262500J0D01*
G01*
X148262500Y-97425000D01*
G75*
G02*
X148525000Y-97687500I0J-262500D01*
G01*
X148525000Y-98312500D01*
G75*
G02*
X148262500Y-98575000I-262500J0D01*
G01*
G37*
G36*
G01*
X109237502Y-80649999D02*
X108712502Y-80649999D01*
G75*
G02*
X108450002Y-80387499I0J262500D01*
G01*
X108450002Y-79762499D01*
G75*
G02*
X108712502Y-79499999I262500J0D01*
G01*
X109237502Y-79499999D01*
G75*
G02*
X109500002Y-79762499I0J-262500D01*
G01*
X109500002Y-80387499D01*
G75*
G02*
X109237502Y-80649999I-262500J0D01*
G01*
G37*
G36*
G01*
X109237502Y-82399999D02*
X108712502Y-82399999D01*
G75*
G02*
X108450002Y-82137499I0J262500D01*
G01*
X108450002Y-81512499D01*
G75*
G02*
X108712502Y-81249999I262500J0D01*
G01*
X109237502Y-81249999D01*
G75*
G02*
X109500002Y-81512499I0J-262500D01*
G01*
X109500002Y-82137499D01*
G75*
G02*
X109237502Y-82399999I-262500J0D01*
G01*
G37*
G36*
G01*
X126300000Y-96387500D02*
X126300000Y-95862500D01*
G75*
G02*
X126562500Y-95600000I262500J0D01*
G01*
X127187500Y-95600000D01*
G75*
G02*
X127450000Y-95862500I0J-262500D01*
G01*
X127450000Y-96387500D01*
G75*
G02*
X127187500Y-96650000I-262500J0D01*
G01*
X126562500Y-96650000D01*
G75*
G02*
X126300000Y-96387500I0J262500D01*
G01*
G37*
G36*
G01*
X124550000Y-96387500D02*
X124550000Y-95862500D01*
G75*
G02*
X124812500Y-95600000I262500J0D01*
G01*
X125437500Y-95600000D01*
G75*
G02*
X125700000Y-95862500I0J-262500D01*
G01*
X125700000Y-96387500D01*
G75*
G02*
X125437500Y-96650000I-262500J0D01*
G01*
X124812500Y-96650000D01*
G75*
G02*
X124550000Y-96387500I0J262500D01*
G01*
G37*
G36*
G01*
X132712502Y-70249999D02*
X133237502Y-70249999D01*
G75*
G02*
X133500002Y-70512499I0J-262500D01*
G01*
X133500002Y-71137499D01*
G75*
G02*
X133237502Y-71399999I-262500J0D01*
G01*
X132712502Y-71399999D01*
G75*
G02*
X132450002Y-71137499I0J262500D01*
G01*
X132450002Y-70512499D01*
G75*
G02*
X132712502Y-70249999I262500J0D01*
G01*
G37*
G36*
G01*
X132712502Y-68499999D02*
X133237502Y-68499999D01*
G75*
G02*
X133500002Y-68762499I0J-262500D01*
G01*
X133500002Y-69387499D01*
G75*
G02*
X133237502Y-69649999I-262500J0D01*
G01*
X132712502Y-69649999D01*
G75*
G02*
X132450002Y-69387499I0J262500D01*
G01*
X132450002Y-68762499D01*
G75*
G02*
X132712502Y-68499999I262500J0D01*
G01*
G37*
D13*
X97000000Y-100250000D03*
D16*
X99000000Y-104750000D03*
X99000000Y-95750000D03*
D17*
X100000000Y-100250000D03*
D18*
X106000000Y-100250000D03*
G36*
G01*
X167320000Y-61307500D02*
X167320000Y-61832500D01*
G75*
G02*
X167057500Y-62095000I-262500J0D01*
G01*
X166432500Y-62095000D01*
G75*
G02*
X166170000Y-61832500I0J262500D01*
G01*
X166170000Y-61307500D01*
G75*
G02*
X166432500Y-61045000I262500J0D01*
G01*
X167057500Y-61045000D01*
G75*
G02*
X167320000Y-61307500I0J-262500D01*
G01*
G37*
G36*
G01*
X169070000Y-61307500D02*
X169070000Y-61832500D01*
G75*
G02*
X168807500Y-62095000I-262500J0D01*
G01*
X168182500Y-62095000D01*
G75*
G02*
X167920000Y-61832500I0J262500D01*
G01*
X167920000Y-61307500D01*
G75*
G02*
X168182500Y-61045000I262500J0D01*
G01*
X168807500Y-61045000D01*
G75*
G02*
X169070000Y-61307500I0J-262500D01*
G01*
G37*
M02*
