M48
; DRILL file {KiCad 5.1.6-c6e7f7d~87~ubuntu19.10.1} date Mon Mar 13 14:53:40 2023
; FORMAT={-:-/ absolute / metric / decimal}
; #@! TF.CreationDate,2023-03-13T14:53:40-06:00
; #@! TF.GenerationSoftware,Kicad,Pcbnew,5.1.6-c6e7f7d~87~ubuntu19.10.1
; #@! TF.FileFunction,Plated,1,2,PTH
FMAT,2
METRIC
T1C0.400
T2C0.900
T3C1.100
T4C2.300
T5C2.500
T6C3.000
T7C3.200
%
G90
G05
T1
X119.37Y-76.57
X121.87Y-80.82
X122.5Y-75.125
X122.75Y-76.875
X123.12Y-71.07
X123.37Y-78.82
X123.5Y-85.375
X126.87Y-90.32
X128.0Y-77.125
X128.0Y-79.125
X128.225Y-73.45
X128.25Y-72.125
X128.37Y-93.57
X128.62Y-86.32
X128.75Y-69.625
X129.975Y-71.45
X130.0Y-68.375
X130.0Y-84.375
X130.725Y-72.45
X131.225Y-82.95
X131.5Y-70.875
X131.5Y-85.375
X132.0Y-77.125
X132.0Y-79.125
X132.125Y-73.55
X133.0Y-83.375
X133.75Y-80.875
X133.87Y-76.07
X134.0Y-73.625
X134.87Y-69.07
X138.37Y-93.32
X140.87Y-90.32
X154.62Y-62.82
X154.62Y-68.07
X154.62Y-73.07
X154.62Y-78.07
X154.62Y-83.07
X158.12Y-60.07
X158.12Y-62.82
X158.12Y-65.32
X158.12Y-67.82
X158.12Y-70.32
X158.12Y-72.82
X158.12Y-75.57
X158.12Y-78.07
X158.12Y-80.57
X169.37Y-64.32
T2
X115.41Y-103.735
X116.43Y-106.265
X117.45Y-103.735
X118.47Y-106.265
X119.49Y-103.735
X120.51Y-106.265
X121.53Y-103.735
X122.55Y-106.265
X153.735Y-102.47
X153.735Y-104.51
X153.735Y-106.55
X153.735Y-108.59
X156.265Y-101.45
X156.265Y-103.49
X156.265Y-105.53
X156.265Y-107.57
X135.45Y-60.735
X136.47Y-63.265
X137.49Y-60.735
X138.51Y-63.265
X139.53Y-60.735
X140.55Y-63.265
X141.57Y-60.735
X142.59Y-63.265
X115.45Y-60.735
X116.47Y-63.265
X117.49Y-60.735
X118.51Y-63.265
X119.53Y-60.735
X120.55Y-63.265
X121.57Y-60.735
X122.59Y-63.265
X100.735Y-74.43
X100.735Y-76.47
X100.735Y-78.51
X100.735Y-80.55
X103.265Y-73.41
X103.265Y-75.45
X103.265Y-77.49
X103.265Y-79.53
T3
X156.38Y-56.49
X156.38Y-59.03
X156.38Y-61.57
X156.38Y-64.11
X156.38Y-66.65
X156.38Y-69.19
X156.38Y-71.73
X156.38Y-74.27
X156.38Y-76.81
X156.38Y-79.35
X156.38Y-81.89
X156.38Y-84.43
X156.38Y-86.97
X156.38Y-89.51
X171.62Y-56.49
X171.62Y-59.03
X171.62Y-61.57
X171.62Y-64.11
X171.62Y-66.65
X171.62Y-69.19
X171.62Y-71.73
X171.62Y-74.27
X171.62Y-76.81
X171.62Y-79.35
X171.62Y-81.89
X171.62Y-84.43
X171.62Y-86.97
X171.62Y-89.51
T4
X100.0Y-100.25
T5
X99.0Y-95.75
X99.0Y-104.75
T6
X106.0Y-100.25
T7
X139.12Y-98.57
X96.0Y-56.0
X96.0Y-111.0
T0
M30
